NotoSans-CondensedBoldItalic.ufo
<glyph name="quotedbl" format="2">
  <advance width="450"/>
  <unicode hex="0022"/>
  <outline>
    <contour>
      <point x="301" y="456" type="line"/>
      <point x="435" y="456" type="line"/>
      <point x="508" y="714" type="line"/>
      <point x="338" y="714" type="line"/>
    </contour>
    <contour>
      <point x="92" y="456" type="line"/>
      <point x="226" y="456" type="line"/>
      <point x="298" y="714" type="line"/>
      <point x="129" y="714" type="line"/>
    </contour>
  </outline>
</glyph>
<glyph name="hyphen" format="2">
  <advance width="307"/>
  <unicode hex="002D"/>
  <outline>
    <contour>
      <point x="9" y="192" type="line"/>
      <point x="263" y="192" type="line"/>
      <point x="296" y="344" type="line"/>
      <point x="41" y="344" type="line"/>
    </contour>
  </outline>
</glyph>
<glyph name="one" format="2">
  <advance width="474"/>
  <unicode hex="0031"/>
  <outline>
    <contour>
      <point x="159" y="0" type="line"/>
      <point x="323" y="0" type="line"/>
      <point x="475" y="714" type="line"/>
      <point x="328" y="714" type="line"/>
      <point x="88" y="487" type="line"/>
      <point x="163" y="384" type="line"/>
      <point x="229" y="447" type="line" smooth="yes"/>
      <point x="242" y="459"/>
      <point x="254" y="473"/>
      <point x="265" y="487" type="curve"/>
      <point x="254" y="449"/>
      <point x="248" y="422"/>
      <point x="238" y="376" type="curve" smooth="yes"/>
    </contour>
  </outline>
</glyph>
<glyph name="less" format="2">
  <advance width="500"/>
  <unicode hex="003C"/>
  <outline>
    <contour>
      <point x="476" y="112" type="line"/>
      <point x="476" y="256" type="line"/>
      <point x="230" y="361" type="line"/>
      <point x="476" y="464" type="line"/>
      <point x="476" y="609" type="line"/>
      <point x="39" y="403" type="line"/>
      <point x="39" y="319" type="line"/>
    </contour>
  </outline>
</glyph>
<glyph name="equal" format="2">
  <advance width="500"/>
  <unicode hex="003D"/>
  <outline>
    <contour>
      <point x="44" y="398" type="line"/>
      <point x="476" y="398" type="line"/>
      <point x="476" y="529" type="line"/>
      <point x="44" y="529" type="line"/>
    </contour>
    <contour>
      <point x="44" y="175" type="line"/>
      <point x="476" y="175" type="line"/>
      <point x="476" y="307" type="line"/>
      <point x="44" y="307" type="line"/>
    </contour>
  </outline>
</glyph>
<glyph name="greater" format="2">
  <advance width="500"/>
  <unicode hex="003E"/>
  <outline>
    <contour>
      <point x="44" y="256" type="line"/>
      <point x="44" y="112" type="line"/>
      <point x="481" y="319" type="line"/>
      <point x="481" y="403" type="line"/>
      <point x="44" y="609" type="line"/>
      <point x="44" y="464" type="line"/>
      <point x="290" y="361" type="line"/>
    </contour>
  </outline>
</glyph>
<glyph name="bracketright" format="2">
  <advance width="287"/>
  <unicode hex="005D"/>
  <outline>
    <contour>
      <point x="-78" y="-168" type="line"/>
      <point x="149" y="-168" type="line"/>
      <point x="341" y="734" type="line"/>
      <point x="113" y="734" type="line"/>
      <point x="87" y="610" type="line"/>
      <point x="171" y="610" type="line"/>
      <point x="31" y="-44" type="line"/>
      <point x="-52" y="-44" type="line"/>
    </contour>
  </outline>
</glyph>
<glyph name="asciicircum" format="2">
  <advance width="465"/>
  <unicode hex="005E"/>
  <outline>
    <contour>
      <point x="-20" y="242" type="line"/>
      <point x="128" y="242" type="line"/>
      <point x="279" y="479" type="line"/>
      <point x="328" y="242" type="line"/>
      <point x="470" y="242" type="line"/>
      <point x="369" y="714" type="line"/>
      <point x="281" y="714" type="line"/>
    </contour>
  </outline>
</glyph>
<glyph name="x" format="2">
  <advance width="460"/>
  <unicode hex="0078"/>
  <anchor x="174" y="0" name="bottom"/>
  <anchor x="286" y="530" name="top"/>
  <anchor x="496" y="530" name="topright"/>
  <outline>
    <contour>
      <point x="-53" y="0" type="line"/>
      <point x="123" y="0" type="line"/>
      <point x="203" y="145" type="line"/>
      <point x="225" y="0" type="line"/>
      <point x="398" y="0" type="line"/>
      <point x="333" y="282" type="line"/>
      <point x="509" y="553" type="line"/>
      <point x="330" y="553" type="line"/>
      <point x="258" y="421" type="line"/>
      <point x="240" y="553" type="line"/>
      <point x="67" y="553" type="line"/>
      <point x="131" y="282" type="line"/>
    </contour>
  </outline>
</glyph>
<glyph name="bar" format="2">
  <advance width="392"/>
  <unicode hex="007C"/>
  <outline>
    <contour>
      <point x="125" y="-229" type="line"/>
      <point x="265" y="-229" type="line"/>
      <point x="265" y="771" type="line"/>
      <point x="125" y="771" type="line"/>
    </contour>
  </outline>
</glyph>
<glyph name="overscore" format="2">
  <advance width="460"/>
  <unicode hex="00AF"/>
  <outline>
    <contour>
      <point x="101" y="760" type="line"/>
      <point x="566" y="760" type="line"/>
      <point x="591" y="880" type="line"/>
      <point x="127" y="880" type="line"/>
    </contour>
  </outline>
</glyph>
<glyph name="guillemotright" format="2">
  <advance width="538"/>
  <unicode hex="00BB"/>
  <outline>
    <contour>
      <point x="342" y="30" type="line"/>
      <point x="519" y="271" type="line"/>
      <point x="521" y="282" type="line"/>
      <point x="409" y="523" type="line"/>
      <point x="278" y="465" type="line"/>
      <point x="359" y="280" type="line"/>
      <point x="226" y="100" type="line"/>
    </contour>
    <contour>
      <point x="108" y="30" type="line"/>
      <point x="285" y="271" type="line"/>
      <point x="286" y="282" type="line"/>
      <point x="175" y="523" type="line"/>
      <point x="44" y="465" type="line"/>
      <point x="124" y="280" type="line"/>
      <point x="-8" y="100" type="line"/>
    </contour>
  </outline>
</glyph>
<glyph name="Eth" format="2">
  <advance width="543"/>
  <unicode hex="00D0"/>
  <anchor x="216" y="0" name="bottom"/>
  <anchor x="367" y="714" name="top"/>
  <outline>
    <contour>
      <point x="-5" y="0" type="line"/>
      <point x="178" y="0" type="line" smooth="yes"/>
      <point x="426" y="0"/>
      <point x="544" y="256"/>
      <point x="544" y="487" type="curve" smooth="yes"/>
      <point x="544" y="628"/>
      <point x="463" y="714"/>
      <point x="310" y="714" type="curve" smooth="yes"/>
      <point x="146" y="714" type="line"/>
      <point x="87" y="433" type="line"/>
      <point x="34" y="433" type="line"/>
      <point x="7" y="308" type="line"/>
      <point x="60" y="308" type="line"/>
    </contour>
    <contour>
      <point x="203" y="148" type="curve" smooth="yes"/>
      <point x="193" y="148" type="line"/>
      <point x="226" y="308" type="line"/>
      <point x="290" y="308" type="line"/>
      <point x="316" y="433" type="line"/>
      <point x="253" y="433" type="line"/>
      <point x="282" y="567" type="line"/>
      <point x="296" y="567" type="line" smooth="yes"/>
      <point x="344" y="567"/>
      <point x="368" y="536"/>
      <point x="368" y="469" type="curve" smooth="yes"/>
      <point x="368" y="376"/>
      <point x="327" y="148"/>
    </contour>
  </outline>
</glyph>
<glyph name="multiply" format="2">
  <advance width="500"/>
  <unicode hex="00D7"/>
  <outline>
    <contour>
      <point x="382" y="566" type="line"/>
      <point x="258" y="446" type="line"/>
      <point x="135" y="566" type="line"/>
      <point x="47" y="474" type="line"/>
      <point x="167" y="353" type="line"/>
      <point x="48" y="232" type="line"/>
      <point x="135" y="141" type="line"/>
      <point x="258" y="262" type="line"/>
      <point x="382" y="140" type="line"/>
      <point x="472" y="230" type="line"/>
      <point x="350" y="353" type="line"/>
      <point x="474" y="477" type="line"/>
    </contour>
  </outline>
</glyph>
<glyph name="idotless" format="2">
  <advance width="252"/>
  <unicode hex="0131"/>
  <anchor x="67" y="0" name="bottom"/>
  <anchor x="185" y="553" name="top"/>
  <outline>
    <contour>
      <point x="-12" y="0" type="line"/>
      <point x="148" y="0" type="line"/>
      <point x="265" y="553" type="line"/>
      <point x="106" y="553" type="line"/>
    </contour>
  </outline>
</glyph>
<glyph name="uni018E" format="2">
  <advance width="419"/>
  <unicode hex="018E"/>
  <anchor x="154" y="0" name="bottom"/>
  <anchor x="305" y="714" name="top"/>
  <outline>
    <contour>
      <point x="-17" y="0" type="line"/>
      <point x="308" y="0" type="line"/>
      <point x="459" y="714" type="line"/>
      <point x="135" y="714" type="line"/>
      <point x="104" y="568" type="line"/>
      <point x="262" y="568" type="line"/>
      <point x="234" y="439" type="line"/>
      <point x="89" y="439" type="line"/>
      <point x="58" y="295" type="line"/>
      <point x="204" y="295" type="line"/>
      <point x="171" y="144" type="line"/>
      <point x="13" y="144" type="line"/>
    </contour>
  </outline>
</glyph>
<glyph name="uni0191" format="2">
  <advance width="576"/>
  <unicode hex="0191"/>
  <anchor x="170" y="0" name="bottom"/>
  <anchor x="478" y="714" name="top"/>
  <anchor x="661" y="714" name="topright"/>
  <outline>
    <contour>
      <point x="181" y="-11" type="curve" smooth="yes"/>
      <point x="288" y="-11"/>
      <point x="356" y="61"/>
      <point x="378" y="173" type="curve" smooth="yes"/>
      <point x="403" y="298" type="line"/>
      <point x="537" y="298" type="line"/>
      <point x="568" y="442" type="line"/>
      <point x="434" y="442" type="line"/>
      <point x="462" y="570" type="line"/>
      <point x="608" y="570" type="line"/>
      <point x="638" y="714" type="line"/>
      <point x="325" y="714" type="line"/>
      <point x="212" y="178" type="line" smooth="yes"/>
      <point x="205" y="145"/>
      <point x="192" y="126"/>
      <point x="170" y="126" type="curve" smooth="yes"/>
      <point x="145" y="126"/>
      <point x="133" y="148"/>
      <point x="133" y="176" type="curve" smooth="yes"/>
      <point x="133" y="192"/>
      <point x="135" y="206"/>
      <point x="141" y="222" type="curve"/>
      <point x="11" y="268" type="line"/>
      <point x="0" y="236"/>
      <point x="-6" y="205"/>
      <point x="-6" y="175" type="curve" smooth="yes"/>
      <point x="-6" y="59"/>
      <point x="66" y="-11"/>
    </contour>
  </outline>
</glyph>
<glyph name="florin" format="2">
  <advance width="458"/>
  <unicode hex="0192"/>
  <anchor x="138" y="0" name="bottom"/>
  <anchor x="450" y="765" name="top"/>
  <anchor x="584" y="765" name="topright"/>
  <outline>
    <contour>
      <point x="152" y="-9" type="curve" smooth="yes"/>
      <point x="262" y="-9"/>
      <point x="325" y="59"/>
      <point x="349" y="170" type="curve" smooth="yes"/>
      <point x="402" y="420" type="line"/>
      <point x="483" y="420" type="line"/>
      <point x="510" y="553" type="line"/>
      <point x="429" y="553" type="line"/>
      <point x="437" y="587" type="line"/>
      <point x="442" y="609"/>
      <point x="452" y="630"/>
      <point x="476" y="630" type="curve" smooth="yes"/>
      <point x="487" y="630"/>
      <point x="504" y="625"/>
      <point x="518" y="617" type="curve"/>
      <point x="572" y="737" type="line"/>
      <point x="531" y="758"/>
      <point x="491" y="765"/>
      <point x="452" y="765" type="curve" smooth="yes"/>
      <point x="324" y="765"/>
      <point x="293" y="654"/>
      <point x="276" y="582" type="curve" smooth="yes"/>
      <point x="268" y="548" type="line"/>
      <point x="204" y="503" type="line"/>
      <point x="187" y="420" type="line"/>
      <point x="241" y="420" type="line"/>
      <point x="191" y="180" type="line" smooth="yes"/>
      <point x="185" y="153"/>
      <point x="177" y="126"/>
      <point x="149" y="126" type="curve" smooth="yes"/>
      <point x="122" y="126"/>
      <point x="110" y="144"/>
      <point x="110" y="170" type="curve" smooth="yes"/>
      <point x="110" y="178"/>
      <point x="111" y="189"/>
      <point x="114" y="196" type="curve"/>
      <point x="-9" y="237" type="line"/>
      <point x="-19" y="210"/>
      <point x="-25" y="186"/>
      <point x="-25" y="153" type="curve" smooth="yes"/>
      <point x="-25" y="68"/>
      <point x="29" y="-9"/>
    </contour>
  </outline>
</glyph>
<glyph name="uni019A" format="2">
  <advance width="250"/>
  <unicode hex="019A"/>
  <anchor x="69" y="0" name="bottom"/>
  <anchor x="230" y="760" name="top"/>
  <outline>
    <contour>
      <point x="-13" y="0" type="line"/>
      <point x="148" y="0" type="line"/>
      <point x="213" y="307" type="line"/>
      <point x="259" y="307" type="line"/>
      <point x="287" y="440" type="line"/>
      <point x="241" y="440" type="line"/>
      <point x="309" y="760" type="line"/>
      <point x="149" y="760" type="line"/>
      <point x="81" y="440" type="line"/>
      <point x="37" y="440" type="line"/>
      <point x="9" y="307" type="line"/>
      <point x="52" y="307" type="line"/>
    </contour>
  </outline>
</glyph>
<glyph name="uni01C2" format="2">
  <advance width="424"/>
  <unicode hex="01C2"/>
  <anchor x="151" y="0" name="bottom"/>
  <anchor x="315" y="770" name="top"/>
  <outline>
    <contour>
      <point x="80" y="0" type="line"/>
      <point x="221" y="0" type="line"/>
      <point x="270" y="228" type="line"/>
      <point x="383" y="228" type="line"/>
      <point x="410" y="356" type="line"/>
      <point x="297" y="356" type="line"/>
      <point x="314" y="434" type="line"/>
      <point x="427" y="434" type="line"/>
      <point x="454" y="562" type="line"/>
      <point x="341" y="562" type="line"/>
      <point x="385" y="770" type="line"/>
      <point x="244" y="770" type="line"/>
      <point x="200" y="562" type="line"/>
      <point x="90" y="562" type="line"/>
      <point x="63" y="434" type="line"/>
      <point x="173" y="434" type="line"/>
      <point x="156" y="356" type="line"/>
      <point x="46" y="356" type="line"/>
      <point x="19" y="228" type="line"/>
      <point x="129" y="228" type="line"/>
    </contour>
  </outline>
</glyph>
<glyph name="uni023B" format="2">
  <advance width="471"/>
  <unicode hex="023B"/>
  <anchor x="214" y="0" name="bottom"/>
  <anchor x="365" y="714" name="top"/>
  <anchor x="546" y="714" name="topright"/>
  <outline>
    <contour>
      <point x="142" y="-75" type="line"/>
      <point x="216" y="-75" type="line"/>
      <point x="471" y="760" type="line"/>
      <point x="398" y="760" type="line"/>
    </contour>
    <component base="C"/>
  </outline>
</glyph>
<glyph name="uni023C" format="2">
  <advance width="398"/>
  <unicode hex="023C"/>
  <anchor x="109" y="-145" name="bottom"/>
  <anchor x="287" y="690" name="top"/>
  <anchor x="437" y="553" name="topright"/>
  <outline>
    <contour>
      <point x="112" y="-145" type="line"/>
      <point x="186" y="-145" type="line"/>
      <point x="411" y="690" type="line"/>
      <point x="338" y="690" type="line"/>
    </contour>
    <component base="c"/>
  </outline>
</glyph>
<glyph name="uni0246" format="2">
  <advance width="419"/>
  <unicode hex="0246"/>
  <anchor x="154" y="0" name="bottom"/>
  <anchor x="305" y="714" name="top"/>
  <anchor x="494" y="714" name="topright"/>
  <outline>
    <contour>
      <point x="142" y="-75" type="line"/>
      <point x="226" y="-75" type="line"/>
      <point x="456" y="760" type="line"/>
      <point x="373" y="760" type="line"/>
    </contour>
    <component base="E"/>
  </outline>
</glyph>
<glyph name="uni024E" format="2">
  <advance width="489"/>
  <unicode hex="024E"/>
  <anchor x="189" y="0" name="bottom"/>
  <anchor x="340" y="714" name="top"/>
  <outline>
    <contour>
      <point x="103" y="0" type="line"/>
      <point x="270" y="0" type="line"/>
      <point x="328" y="274" type="line"/>
      <point x="469" y="519" type="line"/>
      <point x="539" y="519" type="line"/>
      <point x="559" y="624" type="line"/>
      <point x="529" y="624" type="line"/>
      <point x="581" y="714" type="line"/>
      <point x="402" y="714" type="line"/>
      <point x="356" y="624" type="line"/>
      <point x="274" y="624" type="line"/>
      <point x="267" y="714" type="line"/>
      <point x="93" y="714" type="line"/>
      <point x="106" y="624" type="line"/>
      <point x="75" y="624" type="line"/>
      <point x="54" y="519" type="line"/>
      <point x="122" y="519" type="line"/>
      <point x="159" y="268" type="line"/>
    </contour>
    <contour>
      <point x="280" y="455" type="line"/>
      <point x="280" y="519" type="line"/>
      <point x="306" y="519" type="line"/>
    </contour>
  </outline>
</glyph>
<glyph name="uni024F" format="2">
  <advance width="457"/>
  <unicode hex="024F"/>
  <anchor x="122" y="-240" name="bottom"/>
  <anchor x="285" y="530" name="top"/>
  <anchor x="493" y="530" name="topright"/>
  <outline>
    <contour>
      <point x="-9" y="217" type="line"/>
      <point x="445" y="217" type="line"/>
      <point x="472" y="343" type="line"/>
      <point x="18" y="343" type="line"/>
    </contour>
    <component base="y"/>
  </outline>
</glyph>
<glyph name="uni0265" format="2">
  <advance width="491"/>
  <unicode hex="0265"/>
  <anchor x="139" y="-240" name="bottom"/>
  <anchor x="302" y="530" name="top"/>
  <outline>
    <contour>
      <point x="175" y="-240" type="line"/>
      <point x="335" y="-240" type="line"/>
      <point x="505" y="553" type="line"/>
      <point x="344" y="553" type="line"/>
      <point x="279" y="243" type="line" smooth="yes"/>
      <point x="260" y="155"/>
      <point x="236" y="134"/>
      <point x="217" y="134" type="curve" smooth="yes"/>
      <point x="195" y="134"/>
      <point x="188" y="151"/>
      <point x="188" y="169" type="curve" smooth="yes"/>
      <point x="188" y="193"/>
      <point x="192" y="218"/>
      <point x="198" y="245" type="curve" smooth="yes"/>
      <point x="263" y="553" type="line"/>
      <point x="103" y="553" type="line"/>
      <point x="28" y="200" type="line" smooth="yes"/>
      <point x="23" y="174"/>
      <point x="19" y="145"/>
      <point x="19" y="122" type="curve" smooth="yes"/>
      <point x="19" y="42"/>
      <point x="61" y="-10"/>
      <point x="133" y="-10" type="curve" smooth="yes"/>
      <point x="183" y="-10"/>
      <point x="217" y="12"/>
      <point x="246" y="53" type="curve"/>
      <point x="249" y="53" type="line"/>
      <point x="235" y="14"/>
      <point x="221" y="-30"/>
      <point x="213" y="-68" type="curve" smooth="yes"/>
    </contour>
  </outline>
</glyph>
<glyph name="uni0279" format="2">
  <advance width="352"/>
  <unicode hex="0279"/>
  <anchor x="117" y="0" name="bottom"/>
  <anchor x="235" y="553" name="top"/>
  <outline>
    <contour>
      <point x="-5" y="-10" type="curve" smooth="yes"/>
      <point x="52" y="-10"/>
      <point x="85" y="16"/>
      <point x="121" y="80" type="curve"/>
      <point x="125" y="80" type="line"/>
      <point x="123" y="0" type="line"/>
      <point x="249" y="0" type="line"/>
      <point x="366" y="553" type="line"/>
      <point x="206" y="553" type="line"/>
      <point x="148" y="275" type="line" smooth="yes"/>
      <point x="136" y="215"/>
      <point x="104" y="164"/>
      <point x="49" y="164" type="curve" smooth="yes"/>
      <point x="31" y="164"/>
      <point x="15" y="167"/>
      <point x="0" y="173" type="curve"/>
      <point x="-50" y="-3" type="line"/>
      <point x="-30" y="-9"/>
      <point x="-18" y="-10"/>
    </contour>
  </outline>
</glyph>
<glyph name="uni0289" format="2">
  <advance width="491"/>
  <unicode hex="0289"/>
  <anchor x="190" y="0" name="bottom"/>
  <anchor x="302" y="530" name="top"/>
  <anchor x="530" y="553" name="topright"/>
  <outline>
    <contour>
      <point x="-9" y="217" type="line"/>
      <point x="480" y="217" type="line"/>
      <point x="507" y="343" type="line"/>
      <point x="18" y="343" type="line"/>
    </contour>
    <component base="u"/>
  </outline>
</glyph>
<glyph name="kturned" format="2">
  <advance width="484"/>
  <unicode hex="029E"/>
  <anchor x="142" y="-207" name="bottom"/>
  <anchor x="298" y="553" name="top"/>
  <outline>
    <contour>
      <point x="177" y="-207" type="line"/>
      <point x="337" y="-207" type="line"/>
      <point x="499" y="553" type="line"/>
      <point x="338" y="553" type="line"/>
      <point x="309" y="401" type="line"/>
      <point x="270" y="368" type="line"/>
      <point x="227" y="553" type="line"/>
      <point x="53" y="553" type="line"/>
      <point x="131" y="239" type="line"/>
      <point x="-54" y="0" type="line"/>
      <point x="120" y="0" type="line"/>
      <point x="268" y="199" type="line"/>
      <point x="270" y="199" type="line"/>
      <point x="258" y="160"/>
      <point x="248" y="124"/>
      <point x="240" y="87" type="curve" smooth="yes"/>
    </contour>
  </outline>
</glyph>
<glyph name="uni02BE" format="2">
  <advance width="191"/>
  <unicode hex="02BE"/>
  <outline>
    <contour>
      <point x="95" y="574" type="line"/>
      <point x="209" y="573"/>
      <point x="248" y="632"/>
      <point x="248" y="705" type="curve" smooth="yes"/>
      <point x="248" y="773"/>
      <point x="204" y="817"/>
      <point x="145" y="817" type="curve"/>
      <point x="129" y="737" type="line"/>
      <point x="146" y="737"/>
      <point x="160" y="723"/>
      <point x="160" y="702" type="curve" smooth="yes"/>
      <point x="160" y="674"/>
      <point x="143" y="656"/>
      <point x="111" y="656" type="curve"/>
    </contour>
  </outline>
</glyph>
<glyph name="uni02D7" format="2">
  <advance width="244"/>
  <unicode hex="02D7"/>
  <outline>
    <contour>
      <point x="42" y="331" type="line"/>
      <point x="30" y="273" type="line"/>
      <point x="213" y="273" type="line"/>
      <point x="225" y="331" type="line"/>
    </contour>
  </outline>
</glyph>
<glyph name="dotaccent" format="2">
  <advance width="256"/>
  <unicode hex="02D9"/>
  <outline>
    <contour>
      <point x="205" y="607" type="curve" smooth="yes"/>
      <point x="270" y="607"/>
      <point x="305" y="653"/>
      <point x="305" y="706" type="curve" smooth="yes"/>
      <point x="305" y="752"/>
      <point x="281" y="776"/>
      <point x="228" y="776" type="curve" smooth="yes"/>
      <point x="161" y="776"/>
      <point x="128" y="728"/>
      <point x="128" y="676" type="curve" smooth="yes"/>
      <point x="128" y="634"/>
      <point x="154" y="607"/>
    </contour>
  </outline>
</glyph>
<glyph name="uni02EF" format="2">
  <advance width="352"/>
  <unicode hex="02EF"/>
  <outline>
    <contour>
      <point x="47" y="-238" type="line"/>
      <point x="88" y="-238" type="line"/>
      <point x="249" y="-19" type="line"/>
      <point x="180" y="-19" type="line"/>
      <point x="82" y="-153" type="line"/>
      <point x="40" y="-19" type="line"/>
      <point x="-23" y="-19" type="line"/>
    </contour>
  </outline>
</glyph>
<glyph name="uni02FA" format="2">
  <advance width="336"/>
  <unicode hex="02FA"/>
  <outline>
    <contour>
      <point x="279" y="445" type="line"/>
      <point x="332" y="445" type="line"/>
      <point x="332" y="681" type="line"/>
      <point x="126" y="681" type="line"/>
      <point x="126" y="628" type="line"/>
      <point x="279" y="628" type="line"/>
    </contour>
  </outline>
</glyph>
<glyph name="uni02FE" format="2">
  <advance width="406"/>
  <unicode hex="02FE"/>
  <outline>
    <contour>
      <point x="-27" y="-206" type="line"/>
      <point x="263" y="-206" type="line"/>
      <point x="263" y="-148" type="line"/>
      <point x="31" y="-148" type="line"/>
      <point x="31" y="-37" type="line"/>
      <point x="-27" y="-37" type="line"/>
    </contour>
  </outline>
</glyph>
<glyph name="uni02FF" format="2">
  <advance width="459"/>
  <unicode hex="02FF"/>
  <outline>
    <contour>
      <point x="174" y="-238" type="line"/>
      <point x="174" y="-180" type="line"/>
      <point x="68" y="-111" type="line"/>
      <point x="337" y="-111" type="line"/>
      <point x="337" y="-53" type="line"/>
      <point x="68" y="-53" type="line"/>
      <point x="174" y="15" type="line"/>
      <point x="174" y="73" type="line"/>
      <point x="-31" y="-59" type="line"/>
      <point x="-31" y="-106" type="line"/>
    </contour>
  </outline>
</glyph>
<glyph name="overlinecmb" format="2">
  <unicode hex="0305"/>
  <anchor x="58" y="530" name="_top"/>
  <anchor x="114" y="842" name="top"/>
  <outline>
    <contour>
      <point x="-67" y="724" type="line"/>
      <point x="267" y="724" type="line"/>
      <point x="291" y="842" type="line"/>
      <point x="-43" y="842" type="line"/>
    </contour>
  </outline>
</glyph>
<glyph name="lefttackbelowcomb" format="2">
  <unicode hex="0318"/>
  <anchor x="-49" y="0" name="_bottom"/>
  <anchor x="-74" y="-217" name="bottom"/>
  <outline>
    <contour>
      <point x="-87" y="-217" type="line"/>
      <point x="-29" y="-217" type="line"/>
      <point x="11" y="-29" type="line"/>
      <point x="-47" y="-29" type="line"/>
      <point x="-61" y="-94" type="line"/>
      <point x="-150" y="-94" type="line"/>
      <point x="-162" y="-152" type="line"/>
      <point x="-73" y="-152" type="line"/>
    </contour>
  </outline>
</glyph>
<glyph name="leftangleabovecomb" format="2">
  <unicode hex="031A"/>
  <anchor x="243" y="650" name="_topright"/>
  <outline>
    <contour>
      <point x="174" y="687" type="line"/>
      <point x="232" y="687" type="line"/>
      <point x="278" y="903" type="line"/>
      <point x="48" y="903" type="line"/>
      <point x="36" y="845" type="line"/>
      <point x="208" y="845" type="line"/>
    </contour>
  </outline>
</glyph>
<glyph name="horncomb" format="2">
  <unicode hex="031B"/>
  <anchor x="77" y="613" name="_topright"/>
  <outline>
    <contour>
      <point x="-58" y="506" type="line"/>
      <point x="71" y="506"/>
      <point x="154" y="566"/>
      <point x="211" y="749" type="curve"/>
      <point x="208" y="760" type="line"/>
      <point x="58" y="760" type="line"/>
      <point x="43" y="691"/>
      <point x="16" y="615"/>
      <point x="-35" y="613" type="curve"/>
    </contour>
  </outline>
</glyph>
<glyph name="commaaccentcomb" format="2">
  <unicode hex="0326"/>
  <anchor x="105" y="0" name="_bottom"/>
  <anchor x="63" y="-221" name="bottom"/>
  <outline>
    <contour>
      <point x="-10" y="-221" type="line"/>
      <point x="99" y="-221" type="line"/>
      <point x="129" y="-179"/>
      <point x="165" y="-119"/>
      <point x="188" y="-70" type="curve"/>
      <point x="188" y="-61" type="line"/>
      <point x="38" y="-61" type="line"/>
      <point x="27" y="-106"/>
      <point x="5" y="-169"/>
      <point x="-10" y="-209" type="curve"/>
    </contour>
  </outline>
</glyph>
<glyph name="lowlinecomb" format="2">
  <unicode hex="0332"/>
  <anchor x="-56" y="0" name="_bottom"/>
  <anchor x="-81" y="-185" name="bottom"/>
  <outline>
    <contour>
      <point x="-290" y="-185" type="line"/>
      <point x="98" y="-185" type="line"/>
      <point x="124" y="-65" type="line"/>
      <point x="-265" y="-65" type="line"/>
    </contour>
  </outline>
</glyph>
<glyph name="squarebelowcomb" format="2">
  <unicode hex="033B"/>
  <anchor x="-53" y="0" name="_bottom"/>
  <anchor x="-78" y="-228" name="bottom"/>
  <outline>
    <contour>
      <point x="-257" y="-228" type="line"/>
      <point x="55" y="-228" type="line"/>
      <point x="97" y="-28" type="line"/>
      <point x="-215" y="-28" type="line"/>
    </contour>
    <contour>
      <point x="-194" y="-176" type="line"/>
      <point x="-174" y="-80" type="line"/>
      <point x="34" y="-80" type="line"/>
      <point x="14" y="-176" type="line"/>
    </contour>
  </outline>
</glyph>
<glyph name="xabovecomb" format="2">
  <unicode hex="033D"/>
  <anchor x="56" y="530" name="_top"/>
  <anchor x="88" y="775" name="top"/>
  <outline>
    <contour>
      <point x="4" y="571" type="line"/>
      <point x="77" y="630" type="line"/>
      <point x="123" y="571" type="line"/>
      <point x="176" y="613" type="line"/>
      <point x="128" y="673" type="line"/>
      <point x="202" y="732" type="line"/>
      <point x="167" y="775" type="line"/>
      <point x="95" y="715" type="line"/>
      <point x="48" y="775" type="line"/>
      <point x="-4" y="732" type="line"/>
      <point x="42" y="673" type="line"/>
      <point x="-30" y="613" type="line"/>
    </contour>
  </outline>
</glyph>
<glyph name="ypogegrammenicomb" format="2">
  <unicode hex="0345"/>
  <anchor x="-26" y="0" name="_bottom"/>
  <anchor x="-56" y="-240" name="bottom"/>
  <outline>
    <contour>
      <point x="-58" y="-240" type="curve" smooth="yes"/>
      <point x="-31" y="-240"/>
      <point x="-2" y="-234"/>
      <point x="16" y="-227" type="curve"/>
      <point x="36" y="-131" type="line"/>
      <point x="27" y="-134"/>
      <point x="16" y="-136"/>
      <point x="6" y="-136" type="curve" smooth="yes"/>
      <point x="-9" y="-136"/>
      <point x="-19" y="-130"/>
      <point x="-19" y="-112" type="curve" smooth="yes"/>
      <point x="-19" y="-108"/>
      <point x="-18" y="-103"/>
      <point x="-17" y="-98" type="curve" smooth="yes"/>
      <point x="-7" y="-52" type="line"/>
      <point x="-131" y="-52" type="line"/>
      <point x="-147" y="-127" type="line" smooth="yes"/>
      <point x="-150" y="-140"/>
      <point x="-151" y="-152"/>
      <point x="-151" y="-162" type="curve" smooth="yes"/>
      <point x="-151" y="-214"/>
      <point x="-119" y="-240"/>
    </contour>
  </outline>
</glyph>
<glyph name="leftanglebelowcomb" format="2">
  <unicode hex="0349"/>
  <anchor x="-44" y="0" name="_bottom"/>
  <anchor x="-74" y="-239" name="bottom"/>
  <outline>
    <contour>
      <point x="-89" y="-239" type="line"/>
      <point x="-31" y="-239" type="line"/>
      <point x="7" y="-61" type="line"/>
      <point x="-147" y="-61" type="line"/>
      <point x="-159" y="-119" type="line"/>
      <point x="-63" y="-119" type="line"/>
    </contour>
  </outline>
</glyph>
<glyph name="arrowheadrightbelowcomb" format="2">
  <unicode hex="0355"/>
  <anchor x="-49" y="0" name="_bottom"/>
  <anchor x="-77" y="-240" name="bottom"/>
  <outline>
    <contour>
      <point x="-145" y="-240" type="line"/>
      <point x="-136" y="-240" type="line"/>
      <point x="-107" y="-218"/>
      <point x="-51" y="-186"/>
      <point x="-13" y="-174" type="curve"/>
      <point x="-13" y="-108" type="line"/>
      <point x="-51" y="-94"/>
      <point x="-105" y="-60"/>
      <point x="-136" y="-40" type="curve"/>
      <point x="-145" y="-40" type="line"/>
      <point x="-145" y="-88" type="line"/>
      <point x="-124" y="-106"/>
      <point x="-102" y="-122"/>
      <point x="-72" y="-140" type="curve"/>
      <point x="-102" y="-158"/>
      <point x="-127" y="-174"/>
      <point x="-145" y="-191" type="curve"/>
    </contour>
  </outline>
</glyph>
<glyph name="tildedoublecomb" format="2">
  <unicode hex="0360"/>
  <anchor x="310" y="530" name="_top"/>
  <anchor x="346" y="771" name="top"/>
  <outline>
    <contour>
      <point x="2" y="607" type="curve"/>
      <point x="87" y="607" type="line"/>
      <point x="104" y="648"/>
      <point x="130" y="657"/>
      <point x="154" y="657" type="curve" smooth="yes"/>
      <point x="271" y="657"/>
      <point x="366" y="608"/>
      <point x="485" y="608" type="curve" smooth="yes"/>
      <point x="581" y="608"/>
      <point x="658" y="662"/>
      <point x="686" y="771" type="curve"/>
      <point x="601" y="771" type="line"/>
      <point x="589" y="737"/>
      <point x="568" y="722"/>
      <point x="542" y="722" type="curve" smooth="yes"/>
      <point x="417" y="722"/>
      <point x="332" y="771"/>
      <point x="195" y="771" type="curve" smooth="yes"/>
      <point x="108" y="771"/>
      <point x="30" y="717"/>
    </contour>
  </outline>
</glyph>
<glyph name="arrowdoublerightbelowcomb" format="2">
  <unicode hex="0362"/>
  <anchor x="252" y="0" name="_bottom"/>
  <anchor x="228" y="-238" name="bottom"/>
  <outline>
    <contour>
      <point x="419" y="-238" type="line"/>
      <point x="551" y="-127" type="line"/>
      <point x="419" y="-15" type="line"/>
      <point x="419" y="-89" type="line"/>
      <point x="-100" y="-89" type="line"/>
      <point x="-100" y="-165" type="line"/>
      <point x="419" y="-165" type="line"/>
    </contour>
  </outline>
</glyph>
<glyph name="Heta" format="2">
  <advance width="365"/>
  <unicode hex="0370"/>
  <anchor x="127" y="0" name="bottom"/>
  <anchor x="278" y="714" name="top"/>
  <outline>
    <contour>
      <point x="-5" y="0" type="line"/>
      <point x="162" y="0" type="line"/>
      <point x="225" y="298" type="line"/>
      <point x="348" y="298" type="line"/>
      <point x="379" y="444" type="line"/>
      <point x="256" y="444" type="line"/>
      <point x="313" y="714" type="line"/>
      <point x="146" y="714" type="line"/>
    </contour>
  </outline>
</glyph>
<glyph name="heta" format="2">
  <advance width="312"/>
  <unicode hex="0371"/>
  <anchor x="100" y="0" name="bottom"/>
  <anchor x="212" y="530" name="top"/>
  <outline>
    <contour>
      <point x="-13" y="0" type="line"/>
      <point x="148" y="0" type="line"/>
      <point x="193" y="215" type="line"/>
      <point x="285" y="215" type="line"/>
      <point x="313" y="351" type="line"/>
      <point x="222" y="351" type="line"/>
      <point x="265" y="553" type="line"/>
      <point x="105" y="553" type="line"/>
    </contour>
  </outline>
</glyph>
<glyph name="Archaicsampi" format="2">
  <advance width="692"/>
  <unicode hex="0372"/>
  <anchor x="290" y="0" name="bottom"/>
  <anchor x="441" y="714" name="top"/>
  <outline>
    <contour>
      <point x="202" y="0" type="line"/>
      <point x="369" y="0" type="line"/>
      <point x="489" y="567" type="line"/>
      <point x="605" y="567" type="line"/>
      <point x="636" y="714" type="line"/>
      <point x="238" y="714" type="line"/>
      <point x="207" y="567" type="line"/>
      <point x="322" y="567" type="line"/>
    </contour>
    <contour>
      <point x="48" y="346" type="line"/>
      <point x="210" y="346" type="line"/>
      <point x="289" y="714" type="line"/>
      <point x="126" y="714" type="line"/>
    </contour>
    <contour>
      <point x="506" y="346" type="line"/>
      <point x="668" y="346" type="line"/>
      <point x="747" y="714" type="line"/>
      <point x="584" y="714" type="line"/>
    </contour>
  </outline>
</glyph>
<glyph name="archaicsampi" format="2">
  <advance width="666"/>
  <unicode hex="0373"/>
  <anchor x="277" y="0" name="bottom"/>
  <anchor x="438" y="760" name="top"/>
  <outline>
    <contour>
      <point x="192" y="0" type="line"/>
      <point x="352" y="0" type="line"/>
      <point x="483" y="618" type="line"/>
      <point x="599" y="618" type="line"/>
      <point x="629" y="760" type="line"/>
      <point x="238" y="760" type="line"/>
      <point x="208" y="618" type="line"/>
      <point x="323" y="618" type="line"/>
    </contour>
    <contour>
      <point x="55" y="392" type="line"/>
      <point x="210" y="392" type="line"/>
      <point x="289" y="760" type="line"/>
      <point x="133" y="760" type="line"/>
    </contour>
    <contour>
      <point x="499" y="392" type="line"/>
      <point x="654" y="392" type="line"/>
      <point x="733" y="760" type="line"/>
      <point x="577" y="760" type="line"/>
    </contour>
  </outline>
</glyph>
<glyph name="uni0375" format="2">
  <advance width="338"/>
  <unicode hex="0375"/>
  <outline>
    <contour>
      <point x="-30" y="-221" type="line"/>
      <point x="120" y="-221" type="line"/>
      <point x="131" y="-176"/>
      <point x="153" y="-113"/>
      <point x="168" y="-73" type="curve"/>
      <point x="168" y="-61" type="line"/>
      <point x="59" y="-61" type="line"/>
      <point x="29" y="-103"/>
      <point x="-7" y="-163"/>
      <point x="-30" y="-212" type="curve"/>
    </contour>
  </outline>
</glyph>
<glyph name="pamphyliandigamma" format="2">
  <advance width="493"/>
  <unicode hex="0377"/>
  <anchor x="191" y="0" name="bottom"/>
  <anchor x="303" y="530" name="top"/>
  <outline>
    <contour>
      <point x="-13" y="0" type="line"/>
      <point x="148" y="0" type="line"/>
      <point x="283" y="225" type="line"/>
      <point x="279" y="210"/>
      <point x="273" y="185"/>
      <point x="270" y="170" type="curve"/>
      <point x="234" y="0" type="line"/>
      <point x="389" y="0" type="line"/>
      <point x="506" y="553" type="line"/>
      <point x="346" y="553" type="line"/>
      <point x="212" y="341" type="line"/>
      <point x="216" y="354"/>
      <point x="223" y="378"/>
      <point x="226" y="391" type="curve"/>
      <point x="260" y="553" type="line"/>
      <point x="105" y="553" type="line"/>
    </contour>
  </outline>
</glyph>
<glyph name="tonos" format="2">
  <advance width="387"/>
  <unicode hex="0384"/>
  <anchor x="268" y="530" name="_top"/>
  <outline>
    <contour>
      <point x="200" y="606" type="line"/>
      <point x="301" y="606" type="line"/>
      <point x="330" y="643"/>
      <point x="375" y="714"/>
      <point x="400" y="755" type="curve"/>
      <point x="402" y="765" type="line"/>
      <point x="260" y="765" type="line"/>
      <point x="252" y="740"/>
      <point x="216" y="646"/>
      <point x="203" y="620" type="curve"/>
    </contour>
  </outline>
</glyph>
<glyph name="dieresistonos" format="2">
  <advance width="403"/>
  <unicode hex="0385"/>
  <anchor x="248" y="530" name="_top"/>
  <outline>
    <contour>
      <point x="240" y="693" type="line"/>
      <point x="320" y="693" type="line"/>
      <point x="342" y="724"/>
      <point x="393" y="798"/>
      <point x="409" y="831" type="curve"/>
      <point x="411" y="838" type="line"/>
      <point x="282" y="838" type="line"/>
      <point x="277" y="813"/>
      <point x="250" y="732"/>
      <point x="240" y="703" type="curve"/>
    </contour>
    <contour>
      <point x="142" y="614" type="curve" smooth="yes"/>
      <point x="184" y="614"/>
      <point x="222" y="653"/>
      <point x="222" y="712" type="curve" smooth="yes"/>
      <point x="222" y="747"/>
      <point x="202" y="767"/>
      <point x="169" y="767" type="curve" smooth="yes"/>
      <point x="113" y="767"/>
      <point x="84" y="720"/>
      <point x="84" y="670" type="curve" smooth="yes"/>
      <point x="84" y="633"/>
      <point x="104" y="614"/>
    </contour>
    <contour>
      <point x="416" y="614" type="curve" smooth="yes"/>
      <point x="458" y="614"/>
      <point x="496" y="653"/>
      <point x="496" y="712" type="curve" smooth="yes"/>
      <point x="496" y="747"/>
      <point x="476" y="767"/>
      <point x="443" y="767" type="curve" smooth="yes"/>
      <point x="388" y="767"/>
      <point x="359" y="720"/>
      <point x="359" y="670" type="curve" smooth="yes"/>
      <point x="359" y="633"/>
      <point x="379" y="614"/>
    </contour>
  </outline>
</glyph>
<glyph name="Gamma" format="2">
  <advance width="412"/>
  <unicode hex="0393"/>
  <anchor x="150" y="0" name="bottom"/>
  <anchor x="301" y="714" name="top"/>
  <outline>
    <contour>
      <point x="-5" y="0" type="line"/>
      <point x="162" y="0" type="line"/>
      <point x="283" y="570" type="line"/>
      <point x="463" y="570" type="line"/>
      <point x="493" y="714" type="line"/>
      <point x="146" y="714" type="line"/>
    </contour>
  </outline>
</glyph>
<glyph name="Delta" format="2">
  <advance width="530"/>
  <unicode hex="0394"/>
  <anchor x="209" y="0" name="bottom"/>
  <anchor x="360" y="714" name="top"/>
  <outline>
    <contour>
      <point x="-27" y="0" type="line"/>
      <point x="461" y="0" type="line"/>
      <point x="481" y="96" type="line"/>
      <point x="464" y="717" type="line"/>
      <point x="252" y="717" type="line"/>
      <point x="-27" y="95" type="line"/>
    </contour>
    <contour>
      <point x="169" y="147" type="line"/>
      <point x="295" y="472" type="line"/>
      <point x="301" y="486"/>
      <point x="314" y="532"/>
      <point x="320" y="558" type="curve"/>
      <point x="317" y="518"/>
      <point x="317" y="495"/>
      <point x="316" y="469" type="curve" smooth="yes"/>
      <point x="309" y="147" type="line"/>
    </contour>
  </outline>
</glyph>
<glyph name="Theta" format="2">
  <advance width="591"/>
  <unicode hex="0398"/>
  <anchor x="240" y="0" name="bottom"/>
  <anchor x="391" y="714" name="top"/>
  <outline>
    <contour>
      <point x="250" y="-10" type="curve" smooth="yes"/>
      <point x="464" y="-10"/>
      <point x="592" y="241"/>
      <point x="592" y="484" type="curve" smooth="yes"/>
      <point x="592" y="642"/>
      <point x="528" y="725"/>
      <point x="379" y="725" type="curve" smooth="yes"/>
      <point x="157" y="725"/>
      <point x="35" y="457"/>
      <point x="35" y="232" type="curve" smooth="yes"/>
      <point x="35" y="65"/>
      <point x="103" y="-10"/>
    </contour>
    <contour>
      <point x="261" y="139" type="curve" smooth="yes"/>
      <point x="228" y="139"/>
      <point x="207" y="156"/>
      <point x="207" y="231" type="curve" smooth="yes"/>
      <point x="207" y="341"/>
      <point x="263" y="579"/>
      <point x="367" y="579" type="curve" smooth="yes"/>
      <point x="401" y="579"/>
      <point x="422" y="550"/>
      <point x="422" y="489" type="curve" smooth="yes"/>
      <point x="422" y="421"/>
      <point x="376" y="139"/>
    </contour>
    <contour>
      <point x="236" y="295" type="line"/>
      <point x="364" y="295" type="line"/>
      <point x="393" y="430" type="line"/>
      <point x="265" y="430" type="line"/>
    </contour>
  </outline>
</glyph>
<glyph name="Lambda" format="2">
  <advance width="519"/>
  <unicode hex="039B"/>
  <anchor x="204" y="0" name="bottom"/>
  <anchor x="355" y="714" name="top"/>
  <outline>
    <contour>
      <point x="-58" y="0" type="line"/>
      <point x="117" y="0" type="line"/>
      <point x="261" y="357" type="line" smooth="yes"/>
      <point x="268" y="375"/>
      <point x="278" y="401"/>
      <point x="297" y="455" type="curve"/>
      <point x="294" y="423"/>
      <point x="293" y="383"/>
      <point x="292" y="355" type="curve" smooth="yes"/>
      <point x="284" y="0" type="line"/>
      <point x="461" y="0" type="line"/>
      <point x="449" y="717" type="line"/>
      <point x="257" y="717" type="line"/>
    </contour>
  </outline>
</glyph>
<glyph name="Xi" format="2">
  <advance width="429"/>
  <unicode hex="039E"/>
  <anchor x="159" y="0" name="bottom"/>
  <anchor x="310" y="714" name="top"/>
  <outline>
    <contour>
      <point x="-33" y="0" type="line"/>
      <point x="345" y="0" type="line"/>
      <point x="376" y="146" type="line"/>
      <point x="-2" y="146" type="line"/>
    </contour>
    <contour>
      <point x="73" y="302" type="line"/>
      <point x="368" y="302" type="line"/>
      <point x="399" y="446" type="line"/>
      <point x="104" y="446" type="line"/>
    </contour>
    <contour>
      <point x="102" y="570" type="line"/>
      <point x="453" y="570" type="line"/>
      <point x="483" y="714" type="line"/>
      <point x="132" y="714" type="line"/>
    </contour>
  </outline>
</glyph>
<glyph name="Sigma" format="2">
  <advance width="449"/>
  <unicode hex="03A3"/>
  <anchor x="169" y="0" name="bottom"/>
  <anchor x="320" y="714" name="top"/>
  <outline>
    <contour>
      <point x="-28" y="0" type="line"/>
      <point x="363" y="0" type="line"/>
      <point x="394" y="146" type="line"/>
      <point x="188" y="146" type="line"/>
      <point x="372" y="377" type="line"/>
      <point x="293" y="570" type="line"/>
      <point x="467" y="570" type="line"/>
      <point x="497" y="714" type="line"/>
      <point x="132" y="714" type="line"/>
      <point x="104" y="581" type="line"/>
      <point x="192" y="375" type="line"/>
      <point x="1" y="137" type="line"/>
    </contour>
  </outline>
</glyph>
<glyph name="Phi" format="2">
  <advance width="688"/>
  <unicode hex="03A6"/>
  <anchor x="288" y="0" name="bottom"/>
  <anchor x="439" y="714" name="top"/>
  <outline>
    <contour>
      <point x="203" y="-10" type="line"/>
      <point x="365" y="-10" type="line"/>
      <point x="388" y="100" type="line"/>
      <point x="597" y="102"/>
      <point x="688" y="273"/>
      <point x="688" y="438" type="curve" smooth="yes"/>
      <point x="688" y="552"/>
      <point x="612" y="633"/>
      <point x="502" y="636" type="curve"/>
      <point x="521" y="724" type="line"/>
      <point x="359" y="724" type="line"/>
      <point x="340" y="636" type="line"/>
      <point x="124" y="629"/>
      <point x="40" y="454"/>
      <point x="40" y="296" type="curve" smooth="yes"/>
      <point x="40" y="167"/>
      <point x="115" y="103"/>
      <point x="227" y="100" type="curve"/>
    </contour>
    <contour>
      <point x="256" y="240" type="line"/>
      <point x="223" y="240"/>
      <point x="207" y="260"/>
      <point x="207" y="308" type="curve" smooth="yes"/>
      <point x="207" y="384"/>
      <point x="242" y="496"/>
      <point x="311" y="496" type="curve"/>
    </contour>
    <contour>
      <point x="418" y="240" type="curve"/>
      <point x="472" y="496" type="line"/>
      <point x="504" y="495"/>
      <point x="521" y="468"/>
      <point x="521" y="421" type="curve" smooth="yes"/>
      <point x="521" y="338"/>
      <point x="479" y="240"/>
    </contour>
  </outline>
</glyph>
<glyph name="Psi" format="2">
  <advance width="713"/>
  <unicode hex="03A8"/>
  <anchor x="301" y="0" name="bottom"/>
  <anchor x="452" y="714" name="top"/>
  <outline>
    <contour>
      <point x="218" y="0" type="line"/>
      <point x="379" y="0" type="line"/>
      <point x="421" y="194" type="line"/>
      <point x="425" y="194" type="line"/>
      <point x="614" y="194"/>
      <point x="669" y="273"/>
      <point x="707" y="449" type="curve" smooth="yes"/>
      <point x="763" y="714" type="line"/>
      <point x="596" y="714" type="line"/>
      <point x="540" y="450" type="line" smooth="yes"/>
      <point x="528" y="396"/>
      <point x="512" y="340"/>
      <point x="454" y="340" type="curve"/>
      <point x="452" y="340" type="line"/>
      <point x="531" y="714" type="line"/>
      <point x="369" y="714" type="line"/>
      <point x="290" y="340" type="line"/>
      <point x="288" y="340" type="line"/>
      <point x="257" y="341"/>
      <point x="239" y="351"/>
      <point x="239" y="391" type="curve" smooth="yes"/>
      <point x="239" y="406"/>
      <point x="242" y="424"/>
      <point x="247" y="446" type="curve" smooth="yes"/>
      <point x="304" y="714" type="line"/>
      <point x="137" y="714" type="line"/>
      <point x="86" y="471" type="line" smooth="yes"/>
      <point x="78" y="435"/>
      <point x="73" y="398"/>
      <point x="73" y="369" type="curve" smooth="yes"/>
      <point x="73" y="258"/>
      <point x="130" y="196"/>
      <point x="257" y="194" type="curve"/>
      <point x="259" y="194" type="line"/>
    </contour>
  </outline>
</glyph>
<glyph name="Omega" format="2">
  <advance width="575"/>
  <unicode hex="03A9"/>
  <anchor x="232" y="0" name="bottom"/>
  <anchor x="383" y="714" name="top"/>
  <anchor x="115" y="714" name="topleft"/>
  <outline>
    <contour>
      <point x="-41" y="0" type="line"/>
      <point x="208" y="0" type="line"/>
      <point x="242" y="164" type="line"/>
      <point x="222" y="187"/>
      <point x="213" y="221"/>
      <point x="213" y="268" type="curve" smooth="yes"/>
      <point x="213" y="370"/>
      <point x="259" y="579"/>
      <point x="348" y="579" type="curve" smooth="yes"/>
      <point x="385" y="579"/>
      <point x="408" y="545"/>
      <point x="408" y="485" type="curve" smooth="yes"/>
      <point x="408" y="393"/>
      <point x="367" y="226"/>
      <point x="284" y="164" type="curve"/>
      <point x="250" y="0" type="line"/>
      <point x="500" y="0" type="line"/>
      <point x="531" y="146" type="line"/>
      <point x="400" y="146" type="line"/>
      <point x="522" y="219"/>
      <point x="583" y="358"/>
      <point x="583" y="503" type="curve" smooth="yes"/>
      <point x="583" y="638"/>
      <point x="503" y="725"/>
      <point x="366" y="725" type="curve" smooth="yes"/>
      <point x="179" y="725"/>
      <point x="54" y="529"/>
      <point x="54" y="332" type="curve" smooth="yes"/>
      <point x="54" y="260"/>
      <point x="70" y="192"/>
      <point x="121" y="146" type="curve"/>
      <point x="-10" y="146" type="line"/>
    </contour>
  </outline>
</glyph>
<glyph name="alpha" format="2">
  <advance width="520"/>
  <unicode hex="03B1"/>
  <anchor x="204" y="0" name="bottom"/>
  <anchor x="316" y="530" name="top"/>
  <outline>
    <contour>
      <point x="134" y="-10" type="curve" smooth="yes"/>
      <point x="185" y="-10"/>
      <point x="223" y="23"/>
      <point x="257" y="66" type="curve"/>
      <point x="261" y="66" type="line"/>
      <point x="262" y="41"/>
      <point x="277" y="-10"/>
      <point x="374" y="-10" type="curve" smooth="yes"/>
      <point x="395" y="-10"/>
      <point x="442" y="0"/>
      <point x="471" y="10" type="curve"/>
      <point x="471" y="141" type="line"/>
      <point x="457" y="133"/>
      <point x="446" y="130"/>
      <point x="440" y="130" type="curve" smooth="yes"/>
      <point x="430" y="130"/>
      <point x="423" y="133"/>
      <point x="423" y="149" type="curve" smooth="yes"/>
      <point x="423" y="157"/>
      <point x="426" y="175"/>
      <point x="429" y="189" type="curve" smooth="yes"/>
      <point x="458" y="324" type="line" smooth="yes"/>
      <point x="475" y="405"/>
      <point x="500" y="481"/>
      <point x="533" y="553" type="curve"/>
      <point x="390" y="553" type="line"/>
      <point x="376" y="538"/>
      <point x="362" y="515"/>
      <point x="349" y="487" type="curve"/>
      <point x="346" y="487" type="line"/>
      <point x="326" y="543"/>
      <point x="280" y="563"/>
      <point x="237" y="563" type="curve" smooth="yes"/>
      <point x="98" y="563"/>
      <point x="14" y="334"/>
      <point x="14" y="156" type="curve" smooth="yes"/>
      <point x="14" y="54"/>
      <point x="63" y="-10"/>
    </contour>
    <contour>
      <point x="201" y="125" type="curve" smooth="yes"/>
      <point x="187" y="125"/>
      <point x="179" y="144"/>
      <point x="179" y="181" type="curve" smooth="yes"/>
      <point x="179" y="247"/>
      <point x="215" y="424"/>
      <point x="268" y="424" type="curve" smooth="yes"/>
      <point x="288" y="424"/>
      <point x="299" y="407"/>
      <point x="299" y="370" type="curve" smooth="yes"/>
      <point x="299" y="351"/>
      <point x="297" y="327"/>
      <point x="284" y="265" type="curve" smooth="yes"/>
      <point x="272" y="207"/>
      <point x="248" y="125"/>
    </contour>
  </outline>
</glyph>
<glyph name="beta" format="2">
  <advance width="503"/>
  <unicode hex="03B2"/>
  <anchor x="280" y="0" name="bottom"/>
  <anchor x="358" y="765" name="top"/>
  <anchor x="589" y="765" name="topright"/>
  <outline>
    <contour>
      <point x="101" y="535" type="curve" smooth="yes"/>
      <point x="-63" y="-240" type="line"/>
      <point x="96" y="-240" type="line"/>
      <point x="150" y="12" type="line"/>
      <point x="171" y="-1"/>
      <point x="212" y="-10"/>
      <point x="252" y="-10" type="curve" smooth="yes"/>
      <point x="387" y="-10"/>
      <point x="472" y="130"/>
      <point x="472" y="265" type="curve" smooth="yes"/>
      <point x="472" y="335"/>
      <point x="438" y="391"/>
      <point x="374" y="404" type="curve"/>
      <point x="472" y="427"/>
      <point x="516" y="501"/>
      <point x="516" y="601" type="curve" smooth="yes"/>
      <point x="516" y="691"/>
      <point x="455" y="765"/>
      <point x="342" y="765" type="curve" smooth="yes"/>
      <point x="202" y="765"/>
      <point x="133" y="681"/>
    </contour>
    <contour>
      <point x="224" y="130" type="curve" smooth="yes"/>
      <point x="212" y="130"/>
      <point x="188" y="139"/>
      <point x="180" y="154" type="curve"/>
      <point x="264" y="546" type="line" smooth="yes"/>
      <point x="275" y="598"/>
      <point x="293" y="630"/>
      <point x="319" y="630" type="curve" smooth="yes"/>
      <point x="339" y="630"/>
      <point x="348" y="614"/>
      <point x="348" y="583" type="curve" smooth="yes"/>
      <point x="348" y="541"/>
      <point x="330" y="458"/>
      <point x="290" y="458" type="curve" smooth="yes"/>
      <point x="272" y="458" type="line"/>
      <point x="243" y="322" type="line"/>
      <point x="267" y="322" type="line" smooth="yes"/>
      <point x="295" y="322"/>
      <point x="309" y="301"/>
      <point x="309" y="265" type="curve" smooth="yes"/>
      <point x="309" y="225"/>
      <point x="287" y="130"/>
    </contour>
  </outline>
</glyph>
<glyph name="gamma" format="2">
  <advance width="460"/>
  <unicode hex="03B3"/>
  <anchor x="123" y="-240" name="bottom"/>
  <anchor x="286" y="530" name="top"/>
  <anchor x="496" y="530" name="topright"/>
  <outline>
    <contour>
      <point x="5" y="-240" type="curve"/>
      <point x="175" y="-240" type="line"/>
      <point x="191" y="-164"/>
      <point x="228" y="-62"/>
      <point x="260" y="7" type="curve" smooth="yes"/>
      <point x="517" y="553" type="line"/>
      <point x="345" y="553" type="line"/>
      <point x="274" y="383" type="line" smooth="yes"/>
      <point x="254" y="338"/>
      <point x="236" y="285"/>
      <point x="225" y="248" type="curve"/>
      <point x="220" y="248" type="line"/>
      <point x="222" y="273"/>
      <point x="225" y="341"/>
      <point x="225" y="392" type="curve" smooth="yes"/>
      <point x="225" y="553" type="line"/>
      <point x="62" y="553" type="line"/>
      <point x="89" y="6" type="line"/>
      <point x="56" y="-73"/>
      <point x="24" y="-156"/>
    </contour>
  </outline>
</glyph>
<glyph name="delta" format="2">
  <advance width="471"/>
  <unicode hex="03B4"/>
  <anchor x="180" y="0" name="bottom"/>
  <anchor x="343" y="769" name="top"/>
  <outline>
    <contour>
      <point x="190" y="-10" type="curve" smooth="yes"/>
      <point x="355" y="-10"/>
      <point x="442" y="122"/>
      <point x="442" y="294" type="curve" smooth="yes"/>
      <point x="442" y="362"/>
      <point x="421" y="422"/>
      <point x="375" y="479" type="curve" smooth="yes"/>
      <point x="346" y="515"/>
      <point x="297" y="552"/>
      <point x="297" y="589" type="curve" smooth="yes"/>
      <point x="297" y="619"/>
      <point x="314" y="634"/>
      <point x="342" y="634" type="curve" smooth="yes"/>
      <point x="371" y="634"/>
      <point x="412" y="623"/>
      <point x="460" y="586" type="curve"/>
      <point x="534" y="712" type="line"/>
      <point x="492" y="746"/>
      <point x="425" y="769"/>
      <point x="346" y="769" type="curve" smooth="yes"/>
      <point x="224" y="769"/>
      <point x="137" y="693"/>
      <point x="137" y="581" type="curve" smooth="yes"/>
      <point x="137" y="520"/>
      <point x="158" y="479"/>
      <point x="194" y="439" type="curve"/>
      <point x="82" y="397"/>
      <point x="7" y="293"/>
      <point x="7" y="174" type="curve" smooth="yes"/>
      <point x="7" y="58"/>
      <point x="62" y="-10"/>
    </contour>
    <contour>
      <point x="202" y="125" type="curve" smooth="yes"/>
      <point x="181" y="125"/>
      <point x="172" y="148"/>
      <point x="172" y="178" type="curve" smooth="yes"/>
      <point x="172" y="234"/>
      <point x="212" y="341"/>
      <point x="252" y="363" type="curve"/>
      <point x="267" y="343"/>
      <point x="276" y="319"/>
      <point x="276" y="282" type="curve" smooth="yes"/>
      <point x="276" y="238"/>
      <point x="252" y="125"/>
    </contour>
  </outline>
</glyph>
<glyph name="epsilon" format="2">
  <advance width="420"/>
  <unicode hex="03B5"/>
  <anchor x="154" y="0" name="bottom"/>
  <anchor x="266" y="530" name="top"/>
  <outline>
    <contour>
      <point x="174" y="-10" type="curve" smooth="yes"/>
      <point x="227" y="-10"/>
      <point x="291" y="2"/>
      <point x="344" y="31" type="curve"/>
      <point x="344" y="162" type="line"/>
      <point x="297" y="137"/>
      <point x="255" y="125"/>
      <point x="220" y="125" type="curve" smooth="yes"/>
      <point x="177" y="125"/>
      <point x="166" y="140"/>
      <point x="166" y="164" type="curve" smooth="yes"/>
      <point x="166" y="207"/>
      <point x="205" y="225"/>
      <point x="252" y="225" type="curve" smooth="yes"/>
      <point x="304" y="225" type="line"/>
      <point x="329" y="343" type="line"/>
      <point x="285" y="343" type="line"/>
      <point x="246" y="343"/>
      <point x="228" y="351"/>
      <point x="228" y="378" type="curve" smooth="yes"/>
      <point x="228" y="411"/>
      <point x="248" y="431"/>
      <point x="281" y="431" type="curve" smooth="yes"/>
      <point x="308" y="431"/>
      <point x="345" y="420"/>
      <point x="376" y="395" type="curve"/>
      <point x="446" y="513" type="line"/>
      <point x="392" y="550"/>
      <point x="335" y="563"/>
      <point x="271" y="563" type="curve" smooth="yes"/>
      <point x="155" y="563"/>
      <point x="75" y="494"/>
      <point x="75" y="402" type="curve" smooth="yes"/>
      <point x="75" y="337"/>
      <point x="99" y="305"/>
      <point x="132" y="292" type="curve"/>
      <point x="132" y="287" type="line"/>
      <point x="38" y="269"/>
      <point x="-3" y="189"/>
      <point x="-3" y="128" type="curve" smooth="yes"/>
      <point x="-3" y="32"/>
      <point x="57" y="-10"/>
    </contour>
  </outline>
</glyph>
<glyph name="zeta" format="2">
  <advance width="401"/>
  <unicode hex="03B6"/>
  <anchor x="107" y="-178" name="bottom"/>
  <anchor x="306" y="760" name="top"/>
  <outline>
    <contour>
      <point x="88" y="-178" type="curve"/>
      <point x="246" y="-178" type="line"/>
      <point x="296" y="-123"/>
      <point x="336" y="-69"/>
      <point x="336" y="15" type="curve" smooth="yes"/>
      <point x="336" y="73"/>
      <point x="286" y="106"/>
      <point x="252" y="129" type="curve" smooth="yes"/>
      <point x="228" y="148"/>
      <point x="185" y="170"/>
      <point x="185" y="220" type="curve" smooth="yes"/>
      <point x="185" y="350"/>
      <point x="341" y="537"/>
      <point x="463" y="656" type="curve"/>
      <point x="485" y="760" type="line"/>
      <point x="155" y="760" type="line"/>
      <point x="127" y="625" type="line"/>
      <point x="225" y="625" type="line"/>
      <point x="243" y="625"/>
      <point x="261" y="627"/>
      <point x="277" y="632" type="curve"/>
      <point x="158" y="524"/>
      <point x="12" y="348"/>
      <point x="12" y="161" type="curve" smooth="yes"/>
      <point x="12" y="90"/>
      <point x="44" y="58"/>
      <point x="90" y="26" type="curve" smooth="yes"/>
      <point x="122" y="5"/>
      <point x="154" y="-12"/>
      <point x="154" y="-47" type="curve" smooth="yes"/>
      <point x="154" y="-89"/>
      <point x="115" y="-146"/>
    </contour>
  </outline>
</glyph>
<glyph name="theta" format="2">
  <advance width="495"/>
  <unicode hex="03B8"/>
  <anchor x="192" y="0" name="bottom"/>
  <anchor x="355" y="771" name="top"/>
  <anchor x="582" y="771" name="topright"/>
  <outline>
    <contour>
      <point x="202" y="-10" type="curve" smooth="yes"/>
      <point x="308" y="-10"/>
      <point x="377" y="75"/>
      <point x="425" y="181" type="curve" smooth="yes"/>
      <point x="474" y="290"/>
      <point x="503" y="449"/>
      <point x="503" y="548" type="curve" smooth="yes"/>
      <point x="503" y="717"/>
      <point x="430" y="771"/>
      <point x="335" y="771" type="curve" smooth="yes"/>
      <point x="177" y="771"/>
      <point x="94" y="588"/>
      <point x="55" y="402" type="curve" smooth="yes"/>
      <point x="40" y="332"/>
      <point x="32" y="262"/>
      <point x="32" y="206" type="curve" smooth="yes"/>
      <point x="32" y="58"/>
      <point x="88" y="-10"/>
    </contour>
    <contour>
      <point x="212" y="119" type="curve" smooth="yes"/>
      <point x="195" y="119"/>
      <point x="180" y="139"/>
      <point x="180" y="177" type="curve" smooth="yes"/>
      <point x="180" y="205"/>
      <point x="187" y="251"/>
      <point x="199" y="315" type="curve"/>
      <point x="306" y="315" type="line"/>
      <point x="285" y="230"/>
      <point x="256" y="119"/>
    </contour>
    <contour>
      <point x="227" y="444" type="line"/>
      <point x="251" y="557"/>
      <point x="280" y="642"/>
      <point x="317" y="642" type="curve" smooth="yes"/>
      <point x="335" y="642"/>
      <point x="347" y="621"/>
      <point x="347" y="581" type="curve" smooth="yes"/>
      <point x="347" y="551"/>
      <point x="341" y="506"/>
      <point x="332" y="444" type="curve"/>
    </contour>
  </outline>
</glyph>
<glyph name="iota" format="2">
  <advance width="314"/>
  <unicode hex="03B9"/>
  <anchor x="101" y="0" name="bottom"/>
  <anchor x="186" y="536" name="top"/>
  <anchor x="77" y="536" name="topleft"/>
  <outline>
    <contour>
      <point x="139" y="-10" type="curve" smooth="yes"/>
      <point x="174" y="-10"/>
      <point x="220" y="1"/>
      <point x="256" y="23" type="curve"/>
      <point x="256" y="147" type="line"/>
      <point x="240" y="138"/>
      <point x="217" y="130"/>
      <point x="205" y="130" type="curve" smooth="yes"/>
      <point x="192" y="130"/>
      <point x="185" y="140"/>
      <point x="185" y="153" type="curve" smooth="yes"/>
      <point x="185" y="164"/>
      <point x="187" y="171"/>
      <point x="188" y="178" type="curve" smooth="yes"/>
      <point x="268" y="553" type="line"/>
      <point x="108" y="553" type="line"/>
      <point x="32" y="196" type="line" smooth="yes"/>
      <point x="26" y="168"/>
      <point x="21" y="135"/>
      <point x="21" y="108" type="curve" smooth="yes"/>
      <point x="21" y="34"/>
      <point x="63" y="-10"/>
    </contour>
  </outline>
</glyph>
<glyph name="lambda" format="2">
  <advance width="492"/>
  <unicode hex="03BB"/>
  <anchor x="190" y="0" name="bottom"/>
  <anchor x="353" y="768" name="top"/>
  <outline>
    <contour>
      <point x="369" y="-10" type="curve" smooth="yes"/>
      <point x="390" y="-10"/>
      <point x="428" y="-6"/>
      <point x="451" y="0" type="curve"/>
      <point x="451" y="141" type="line"/>
      <point x="433" y="135"/>
      <point x="425" y="134"/>
      <point x="415" y="134" type="curve" smooth="yes"/>
      <point x="396" y="134"/>
      <point x="386" y="144"/>
      <point x="384" y="183" type="curve" smooth="yes"/>
      <point x="368" y="563" type="line" smooth="yes"/>
      <point x="362" y="684"/>
      <point x="344" y="768"/>
      <point x="223" y="768" type="curve" smooth="yes"/>
      <point x="199" y="768"/>
      <point x="155" y="762"/>
      <point x="131" y="756" type="curve"/>
      <point x="131" y="625" type="line"/>
      <point x="150" y="631"/>
      <point x="157" y="633"/>
      <point x="168" y="633" type="curve" smooth="yes"/>
      <point x="190" y="633"/>
      <point x="205" y="619"/>
      <point x="206" y="569" type="curve" smooth="yes"/>
      <point x="207" y="520" type="line"/>
      <point x="-55" y="0" type="line"/>
      <point x="111" y="0" type="line"/>
      <point x="211" y="219" type="line" smooth="yes"/>
      <point x="218" y="235"/>
      <point x="225" y="262"/>
      <point x="230" y="282" type="curve"/>
      <point x="229" y="261"/>
      <point x="229" y="239"/>
      <point x="229" y="219" type="curve" smooth="yes"/>
      <point x="230" y="164" type="line" smooth="yes"/>
      <point x="232" y="67"/>
      <point x="250" y="-10"/>
    </contour>
  </outline>
</glyph>
<glyph name="nu" format="2">
  <advance width="469"/>
  <unicode hex="03BD"/>
  <anchor x="179" y="0" name="bottom"/>
  <anchor x="291" y="530" name="top"/>
  <outline>
    <contour>
      <point x="69" y="0" type="line"/>
      <point x="223" y="0" type="line"/>
      <point x="375" y="172"/>
      <point x="455" y="337"/>
      <point x="502" y="553" type="curve"/>
      <point x="335" y="553" type="line"/>
      <point x="299" y="387"/>
      <point x="269" y="292"/>
      <point x="217" y="201" type="curve"/>
      <point x="219" y="237"/>
      <point x="220" y="276"/>
      <point x="221" y="312" type="curve" smooth="yes"/>
      <point x="225" y="553" type="line"/>
      <point x="62" y="553" type="line"/>
    </contour>
  </outline>
</glyph>
<glyph name="pi" format="2">
  <advance width="567"/>
  <unicode hex="03C0"/>
  <anchor x="228" y="0" name="bottom"/>
  <anchor x="340" y="530" name="top"/>
  <outline>
    <contour>
      <point x="392" y="-10" type="curve" smooth="yes"/>
      <point x="427" y="-10"/>
      <point x="473" y="1"/>
      <point x="509" y="23" type="curve"/>
      <point x="509" y="147" type="line"/>
      <point x="494" y="139"/>
      <point x="476" y="130"/>
      <point x="458" y="130" type="curve" smooth="yes"/>
      <point x="445" y="130"/>
      <point x="438" y="140"/>
      <point x="438" y="153" type="curve" smooth="yes"/>
      <point x="438" y="164"/>
      <point x="440" y="171"/>
      <point x="441" y="178" type="curve" smooth="yes"/>
      <point x="492" y="418" type="line"/>
      <point x="569" y="418" type="line"/>
      <point x="598" y="553" type="line"/>
      <point x="124" y="553" type="line"/>
      <point x="41" y="490" type="line"/>
      <point x="25" y="418" type="line"/>
      <point x="102" y="418" type="line"/>
      <point x="13" y="0" type="line"/>
      <point x="173" y="0" type="line"/>
      <point x="262" y="418" type="line"/>
      <point x="332" y="418" type="line"/>
      <point x="285" y="196" type="line" smooth="yes"/>
      <point x="279" y="168"/>
      <point x="274" y="135"/>
      <point x="274" y="108" type="curve" smooth="yes"/>
      <point x="274" y="34"/>
      <point x="316" y="-10"/>
    </contour>
  </outline>
</glyph>
<glyph name="sigma1" format="2">
  <advance width="410"/>
  <unicode hex="03C2"/>
  <anchor x="111" y="-178" name="bottom"/>
  <anchor x="261" y="530" name="top"/>
  <outline>
    <contour>
      <point x="92" y="-178" type="curve"/>
      <point x="252" y="-178" type="line"/>
      <point x="317" y="-115"/>
      <point x="338" y="-60"/>
      <point x="338" y="-10" type="curve" smooth="yes"/>
      <point x="338" y="57"/>
      <point x="296" y="88"/>
      <point x="247" y="120" type="curve" smooth="yes"/>
      <point x="217" y="140"/>
      <point x="189" y="164"/>
      <point x="189" y="209" type="curve" smooth="yes"/>
      <point x="189" y="289"/>
      <point x="233" y="425"/>
      <point x="307" y="425" type="curve" smooth="yes"/>
      <point x="325" y="425"/>
      <point x="355" y="414"/>
      <point x="377" y="397" type="curve"/>
      <point x="440" y="520" type="line"/>
      <point x="399" y="549"/>
      <point x="348" y="563"/>
      <point x="293" y="563" type="curve" smooth="yes"/>
      <point x="95" y="563"/>
      <point x="19" y="342"/>
      <point x="19" y="179" type="curve" smooth="yes"/>
      <point x="21" y="108"/>
      <point x="35" y="61"/>
      <point x="94" y="21" type="curve" smooth="yes"/>
      <point x="137" y="-8"/>
      <point x="160" y="-24"/>
      <point x="160" y="-57" type="curve" smooth="yes"/>
      <point x="160" y="-88"/>
      <point x="139" y="-122"/>
    </contour>
  </outline>
</glyph>
<glyph name="sigma" format="2">
  <advance width="514"/>
  <unicode hex="03C3"/>
  <anchor x="201" y="0" name="bottom"/>
  <anchor x="313" y="530" name="top"/>
  <outline>
    <contour>
      <point x="193" y="-10" type="curve" smooth="yes"/>
      <point x="347" y="-10"/>
      <point x="456" y="164"/>
      <point x="456" y="308" type="curve" smooth="yes"/>
      <point x="456" y="361"/>
      <point x="445" y="393"/>
      <point x="428" y="418" type="curve"/>
      <point x="519" y="418" type="line"/>
      <point x="547" y="553" type="line"/>
      <point x="323" y="553" type="line" smooth="yes"/>
      <point x="95" y="553"/>
      <point x="18" y="349"/>
      <point x="18" y="181" type="curve" smooth="yes"/>
      <point x="18" y="62"/>
      <point x="83" y="-10"/>
    </contour>
    <contour>
      <point x="212" y="125" type="curve" smooth="yes"/>
      <point x="189" y="125"/>
      <point x="179" y="145"/>
      <point x="179" y="180" type="curve" smooth="yes"/>
      <point x="179" y="265"/>
      <point x="211" y="418"/>
      <point x="293" y="418" type="curve" smooth="yes"/>
      <point x="297" y="418" type="line"/>
      <point x="299" y="406"/>
      <point x="301" y="389"/>
      <point x="301" y="362" type="curve" smooth="yes"/>
      <point x="301" y="274"/>
      <point x="261" y="125"/>
    </contour>
  </outline>
</glyph>
<glyph name="tau" format="2">
  <advance width="388"/>
  <unicode hex="03C4"/>
  <anchor x="138" y="0" name="bottom"/>
  <anchor x="250" y="530" name="top"/>
  <outline>
    <contour>
      <point x="187" y="-10" type="curve" smooth="yes"/>
      <point x="222" y="-10"/>
      <point x="268" y="1"/>
      <point x="304" y="23" type="curve"/>
      <point x="304" y="147" type="line"/>
      <point x="288" y="139"/>
      <point x="265" y="130"/>
      <point x="253" y="130" type="curve" smooth="yes"/>
      <point x="240" y="130"/>
      <point x="233" y="140"/>
      <point x="233" y="153" type="curve" smooth="yes"/>
      <point x="233" y="164"/>
      <point x="234" y="171"/>
      <point x="236" y="178" type="curve" smooth="yes"/>
      <point x="287" y="418" type="line"/>
      <point x="399" y="418" type="line"/>
      <point x="427" y="553" type="line"/>
      <point x="124" y="553" type="line"/>
      <point x="41" y="490" type="line"/>
      <point x="25" y="418" type="line"/>
      <point x="127" y="418" type="line"/>
      <point x="80" y="196" type="line" smooth="yes"/>
      <point x="73" y="167"/>
      <point x="69" y="135"/>
      <point x="69" y="108" type="curve" smooth="yes"/>
      <point x="69" y="34"/>
      <point x="111" y="-10"/>
    </contour>
  </outline>
</glyph>
<glyph name="upsilon" format="2">
  <advance width="495"/>
  <unicode hex="03C5"/>
  <anchor x="192" y="0" name="bottom"/>
  <anchor x="304" y="530" name="top"/>
  <outline>
    <contour>
      <point x="197" y="-8" type="curve" smooth="yes"/>
      <point x="431" y="-8"/>
      <point x="486" y="299"/>
      <point x="488" y="553" type="curve"/>
      <point x="329" y="553" type="line"/>
      <point x="324" y="411"/>
      <point x="290" y="134"/>
      <point x="214" y="134" type="curve" smooth="yes"/>
      <point x="198" y="134"/>
      <point x="189" y="146"/>
      <point x="189" y="178" type="curve" smooth="yes"/>
      <point x="189" y="192"/>
      <point x="192" y="217"/>
      <point x="196" y="235" type="curve" smooth="yes"/>
      <point x="263" y="553" type="line"/>
      <point x="103" y="553" type="line"/>
      <point x="42" y="263" type="line" smooth="yes"/>
      <point x="33" y="222"/>
      <point x="28" y="183"/>
      <point x="28" y="152" type="curve" smooth="yes"/>
      <point x="28" y="50"/>
      <point x="77" y="-8"/>
    </contour>
  </outline>
</glyph>
<glyph name="phi" format="2">
  <advance width="683"/>
  <unicode hex="03C6"/>
  <anchor x="235" y="-240" name="bottom"/>
  <anchor x="398" y="530" name="top"/>
  <outline>
    <contour>
      <point x="198" y="-3" type="curve"/>
      <point x="148" y="-240" type="line"/>
      <point x="304" y="-240" type="line"/>
      <point x="355" y="-3" type="line"/>
      <point x="534" y="7"/>
      <point x="666" y="168"/>
      <point x="666" y="370" type="curve" smooth="yes"/>
      <point x="666" y="495"/>
      <point x="598" y="560"/>
      <point x="494" y="560" type="curve" smooth="yes"/>
      <point x="368" y="560"/>
      <point x="304" y="486"/>
      <point x="275" y="355" type="curve" smooth="yes"/>
      <point x="228" y="133" type="line"/>
      <point x="196" y="142"/>
      <point x="179" y="171"/>
      <point x="179" y="208" type="curve" smooth="yes"/>
      <point x="179" y="300"/>
      <point x="228" y="416"/>
      <point x="283" y="493" type="curve"/>
      <point x="168" y="565" type="line"/>
      <point x="76" y="455"/>
      <point x="18" y="321"/>
      <point x="18" y="204" type="curve" smooth="yes"/>
      <point x="18" y="68"/>
      <point x="100" y="9"/>
    </contour>
    <contour>
      <point x="384" y="133" type="curve"/>
      <point x="429" y="347" type="line" smooth="yes"/>
      <point x="442" y="410"/>
      <point x="457" y="425"/>
      <point x="476" y="425" type="curve" smooth="yes"/>
      <point x="492" y="425"/>
      <point x="504" y="406"/>
      <point x="504" y="376" type="curve" smooth="yes"/>
      <point x="504" y="305"/>
      <point x="481" y="156"/>
    </contour>
  </outline>
</glyph>
<glyph name="psi" format="2">
  <advance width="694"/>
  <unicode hex="03C8"/>
  <anchor x="240" y="-240" name="bottom"/>
  <anchor x="452" y="759" name="top"/>
  <outline>
    <contour>
      <point x="160" y="-240" type="line"/>
      <point x="317" y="-240" type="line"/>
      <point x="367" y="-7" type="line"/>
      <point x="648" y="-2"/>
      <point x="687" y="281"/>
      <point x="687" y="553" type="curve"/>
      <point x="531" y="553" type="line"/>
      <point x="531" y="393"/>
      <point x="508" y="136"/>
      <point x="397" y="136" type="curve"/>
      <point x="529" y="759" type="line"/>
      <point x="373" y="759" type="line"/>
      <point x="240" y="135" type="line"/>
      <point x="198" y="139"/>
      <point x="187" y="158"/>
      <point x="187" y="197" type="curve" smooth="yes"/>
      <point x="187" y="214"/>
      <point x="190" y="234"/>
      <point x="195" y="259" type="curve" smooth="yes"/>
      <point x="257" y="553" type="line"/>
      <point x="97" y="553" type="line"/>
      <point x="41" y="288" type="line" smooth="yes"/>
      <point x="33" y="251"/>
      <point x="28" y="214"/>
      <point x="28" y="185" type="curve" smooth="yes"/>
      <point x="28" y="74"/>
      <point x="86" y="7"/>
      <point x="211" y="-7" type="curve"/>
    </contour>
  </outline>
</glyph>
<glyph name="omega" format="2">
  <advance width="709"/>
  <unicode hex="03C9"/>
  <anchor x="299" y="0" name="bottom"/>
  <anchor x="411" y="530" name="top"/>
  <outline>
    <contour>
      <point x="162" y="-10" type="curve" smooth="yes"/>
      <point x="225" y="-10"/>
      <point x="276" y="25"/>
      <point x="309" y="84" type="curve"/>
      <point x="311" y="46"/>
      <point x="338" y="-10"/>
      <point x="432" y="-10" type="curve" smooth="yes"/>
      <point x="641" y="-10"/>
      <point x="692" y="274"/>
      <point x="692" y="448" type="curve" smooth="yes"/>
      <point x="692" y="501"/>
      <point x="692" y="527"/>
      <point x="690" y="553" type="curve"/>
      <point x="527" y="553" type="line"/>
      <point x="531" y="528"/>
      <point x="532" y="501"/>
      <point x="532" y="450" type="curve" smooth="yes"/>
      <point x="532" y="368"/>
      <point x="509" y="138"/>
      <point x="439" y="138" type="curve" smooth="yes"/>
      <point x="421" y="138"/>
      <point x="414" y="152"/>
      <point x="414" y="183" type="curve" smooth="yes"/>
      <point x="414" y="199"/>
      <point x="419" y="225"/>
      <point x="425" y="257" type="curve" smooth="yes"/>
      <point x="454" y="391" type="line"/>
      <point x="298" y="391" type="line"/>
      <point x="269" y="257" type="line" smooth="yes"/>
      <point x="252" y="174"/>
      <point x="239" y="138"/>
      <point x="207" y="138" type="curve" smooth="yes"/>
      <point x="192" y="138"/>
      <point x="180" y="152"/>
      <point x="180" y="184" type="curve" smooth="yes"/>
      <point x="180" y="285"/>
      <point x="224" y="412"/>
      <point x="292" y="553" type="curve"/>
      <point x="132" y="553" type="line"/>
      <point x="68" y="438"/>
      <point x="18" y="285"/>
      <point x="18" y="178" type="curve" smooth="yes"/>
      <point x="18" y="63"/>
      <point x="59" y="-10"/>
    </contour>
  </outline>
</glyph>
<glyph name="uni03D0" format="2">
  <advance width="490"/>
  <unicode hex="03D0"/>
  <anchor x="187" y="-10" name="bottom"/>
  <anchor x="351" y="765" name="top"/>
  <outline>
    <contour>
      <point x="212" y="-10" type="curve" smooth="yes"/>
      <point x="359" y="-10"/>
      <point x="461" y="145"/>
      <point x="461" y="299" type="curve" smooth="yes"/>
      <point x="461" y="420"/>
      <point x="405" y="454"/>
      <point x="338" y="454" type="curve" smooth="yes"/>
      <point x="292" y="454"/>
      <point x="251" y="432"/>
      <point x="216" y="388" type="curve"/>
      <point x="226" y="438"/>
      <point x="240" y="481"/>
      <point x="256" y="512" type="curve"/>
      <point x="288" y="500"/>
      <point x="324" y="493"/>
      <point x="354" y="493" type="curve" smooth="yes"/>
      <point x="450" y="493"/>
      <point x="508" y="545"/>
      <point x="508" y="636" type="curve" smooth="yes"/>
      <point x="508" y="711"/>
      <point x="459" y="765"/>
      <point x="363" y="765" type="curve" smooth="yes"/>
      <point x="216" y="765"/>
      <point x="114" y="600"/>
      <point x="69" y="461" type="curve" smooth="yes"/>
      <point x="41" y="373"/>
      <point x="33" y="279"/>
      <point x="33" y="203" type="curve" smooth="yes"/>
      <point x="33" y="46"/>
      <point x="110" y="-10"/>
    </contour>
    <contour>
      <point x="220" y="125" type="curve" smooth="yes"/>
      <point x="203" y="125"/>
      <point x="193" y="148"/>
      <point x="193" y="193" type="curve" smooth="yes"/>
      <point x="193" y="226"/>
      <point x="195" y="252"/>
      <point x="198" y="267" type="curve"/>
      <point x="211" y="294"/>
      <point x="247" y="336"/>
      <point x="269" y="336" type="curve" smooth="yes"/>
      <point x="290" y="336"/>
      <point x="293" y="309"/>
      <point x="293" y="284" type="curve" smooth="yes"/>
      <point x="293" y="211"/>
      <point x="261" y="125"/>
    </contour>
    <contour>
      <point x="368" y="585" type="curve" smooth="yes"/>
      <point x="352" y="585"/>
      <point x="322" y="589"/>
      <point x="300" y="601" type="curve"/>
      <point x="320" y="637"/>
      <point x="346" y="665"/>
      <point x="371" y="665" type="curve" smooth="yes"/>
      <point x="396" y="665"/>
      <point x="408" y="648"/>
      <point x="408" y="625" type="curve" smooth="yes"/>
      <point x="408" y="603"/>
      <point x="397" y="585"/>
    </contour>
  </outline>
</glyph>
<glyph name="uni03D2" format="2">
  <advance width="492"/>
  <unicode hex="03D2"/>
  <anchor x="341" y="714" name="top"/>
  <outline>
    <contour>
      <point x="103" y="0" type="line"/>
      <point x="270" y="0" type="line"/>
      <point x="326" y="266" type="line"/>
      <point x="367" y="353"/>
      <point x="410" y="441"/>
      <point x="448" y="501" type="curve" smooth="yes"/>
      <point x="487" y="560"/>
      <point x="503" y="574"/>
      <point x="523" y="574" type="curve" smooth="yes"/>
      <point x="534" y="574"/>
      <point x="543" y="571"/>
      <point x="553" y="564" type="curve"/>
      <point x="583" y="702" type="line"/>
      <point x="564" y="714"/>
      <point x="533" y="720"/>
      <point x="502" y="720" type="curve" smooth="yes"/>
      <point x="468" y="720"/>
      <point x="433" y="708"/>
      <point x="406" y="679" type="curve" smooth="yes"/>
      <point x="359" y="627"/>
      <point x="319" y="557"/>
      <point x="283" y="486" type="curve"/>
      <point x="264" y="714" type="line"/>
      <point x="93" y="714" type="line"/>
      <point x="159" y="268" type="line"/>
    </contour>
  </outline>
</glyph>
<glyph name="uni03D7" format="2">
  <advance width="570"/>
  <unicode hex="03D7"/>
  <outline>
    <contour>
      <point x="348" y="-240" type="curve" smooth="yes"/>
      <point x="428" y="-240"/>
      <point x="465" y="-202"/>
      <point x="484" y="-112" type="curve" smooth="yes"/>
      <point x="536" y="135" type="line"/>
      <point x="524" y="131"/>
      <point x="502" y="128"/>
      <point x="490" y="128" type="curve" smooth="yes"/>
      <point x="475" y="128"/>
      <point x="463" y="141"/>
      <point x="463" y="175" type="curve" smooth="yes"/>
      <point x="463" y="265"/>
      <point x="503" y="392"/>
      <point x="587" y="553" type="curve"/>
      <point x="434" y="553" type="line"/>
      <point x="256" y="333" type="line"/>
      <point x="259" y="357"/>
      <point x="261" y="380"/>
      <point x="261" y="403" type="curve" smooth="yes"/>
      <point x="261" y="504"/>
      <point x="214" y="563"/>
      <point x="112" y="563" type="curve" smooth="yes"/>
      <point x="85" y="563"/>
      <point x="48" y="555"/>
      <point x="28" y="547" type="curve"/>
      <point x="38" y="418" type="line"/>
      <point x="50" y="422"/>
      <point x="62" y="425"/>
      <point x="74" y="425" type="curve" smooth="yes"/>
      <point x="89" y="425"/>
      <point x="101" y="412"/>
      <point x="101" y="378" type="curve" smooth="yes"/>
      <point x="101" y="288"/>
      <point x="61" y="161"/>
      <point x="-23" y="0" type="curve"/>
      <point x="133" y="0" type="line"/>
      <point x="308" y="215" type="line"/>
      <point x="305" y="193"/>
      <point x="303" y="171"/>
      <point x="303" y="150" type="curve" smooth="yes"/>
      <point x="303" y="90"/>
      <point x="319" y="45"/>
      <point x="354" y="18" type="curve"/>
      <point x="338" y="-59" type="line" smooth="yes"/>
      <point x="331" y="-91"/>
      <point x="320" y="-100"/>
      <point x="302" y="-100" type="curve" smooth="yes"/>
      <point x="290" y="-100"/>
      <point x="278" y="-95"/>
      <point x="273" y="-91" type="curve"/>
      <point x="273" y="-228" type="line"/>
      <point x="289" y="-234"/>
      <point x="318" y="-240"/>
    </contour>
  </outline>
</glyph>
<glyph name="uni03D8" format="2">
  <advance width="549"/>
  <unicode hex="03D8"/>
  <anchor x="219" y="0" name="bottom"/>
  <anchor x="370" y="714" name="top"/>
  <outline>
    <contour>
      <point x="166" y="150" type="curve"/>
      <point x="134" y="0" type="line"/>
      <point x="300" y="0" type="line"/>
      <point x="330" y="141" type="line"/>
      <point x="481" y="170"/>
      <point x="551" y="361"/>
      <point x="551" y="489" type="curve" smooth="yes"/>
      <point x="551" y="649"/>
      <point x="474" y="724"/>
      <point x="356" y="724" type="curve" smooth="yes"/>
      <point x="142" y="724"/>
      <point x="61" y="518"/>
      <point x="61" y="374" type="curve" smooth="yes"/>
      <point x="61" y="242"/>
      <point x="103" y="173"/>
    </contour>
    <contour>
      <point x="282" y="276" type="curve" smooth="yes"/>
      <point x="259" y="276"/>
      <point x="235" y="296"/>
      <point x="235" y="346" type="curve" smooth="yes"/>
      <point x="235" y="442"/>
      <point x="276" y="579"/>
      <point x="331" y="579" type="curve" smooth="yes"/>
      <point x="354" y="579"/>
      <point x="377" y="560"/>
      <point x="377" y="509" type="curve" smooth="yes"/>
      <point x="377" y="413"/>
      <point x="334" y="276"/>
    </contour>
  </outline>
</glyph>
<glyph name="uni03D9" format="2">
  <advance width="479"/>
  <unicode hex="03D9"/>
  <anchor x="133" y="-240" name="bottom"/>
  <anchor x="296" y="530" name="top"/>
  <outline>
    <contour>
      <point x="53" y="-240" type="line"/>
      <point x="214" y="-240" type="line"/>
      <point x="265" y="2" type="line"/>
      <point x="405" y="50"/>
      <point x="462" y="237"/>
      <point x="462" y="372" type="curve" smooth="yes"/>
      <point x="462" y="488"/>
      <point x="398" y="563"/>
      <point x="290" y="563" type="curve" smooth="yes"/>
      <point x="89" y="563"/>
      <point x="18" y="326"/>
      <point x="18" y="181" type="curve" smooth="yes"/>
      <point x="18" y="98"/>
      <point x="50" y="38"/>
      <point x="106" y="9" type="curve"/>
    </contour>
    <contour>
      <point x="212" y="125" type="curve" smooth="yes"/>
      <point x="189" y="125"/>
      <point x="179" y="145"/>
      <point x="179" y="180" type="curve" smooth="yes"/>
      <point x="179" y="261"/>
      <point x="214" y="428"/>
      <point x="269" y="428" type="curve" smooth="yes"/>
      <point x="292" y="428"/>
      <point x="301" y="409"/>
      <point x="301" y="372" type="curve" smooth="yes"/>
      <point x="301" y="292"/>
      <point x="264" y="125"/>
    </contour>
  </outline>
</glyph>
<glyph name="uni03DA" format="2">
  <advance width="471"/>
  <unicode hex="03DA"/>
  <anchor x="180" y="0" name="bottom"/>
  <anchor x="331" y="714" name="top"/>
  <outline>
    <contour>
      <point x="144" y="0" type="line"/>
      <point x="311" y="0" type="line"/>
      <point x="367" y="267" type="line"/>
      <point x="285" y="267" type="line" smooth="yes"/>
      <point x="235" y="267"/>
      <point x="221" y="295"/>
      <point x="221" y="350" type="curve" smooth="yes"/>
      <point x="221" y="432"/>
      <point x="278" y="578"/>
      <point x="368" y="578" type="curve" smooth="yes"/>
      <point x="396" y="578"/>
      <point x="423" y="566"/>
      <point x="455" y="541" type="curve"/>
      <point x="533" y="673" type="line"/>
      <point x="483" y="711"/>
      <point x="421" y="724"/>
      <point x="361" y="724" type="curve" smooth="yes"/>
      <point x="172" y="724"/>
      <point x="44" y="535"/>
      <point x="44" y="342" type="curve" smooth="yes"/>
      <point x="44" y="233"/>
      <point x="85" y="150"/>
      <point x="171" y="127" type="curve"/>
    </contour>
  </outline>
</glyph>
<glyph name="uni03DC" format="2">
  <advance width="422"/>
  <unicode hex="03DC"/>
  <anchor x="155" y="0" name="bottom"/>
  <anchor x="306" y="714" name="top"/>
  <outline>
    <contour>
      <point x="-5" y="0" type="line"/>
      <point x="162" y="0" type="line"/>
      <point x="219" y="273" type="line"/>
      <point x="269" y="273" type="line"/>
      <point x="250" y="185" type="line"/>
      <point x="364" y="185" type="line"/>
      <point x="414" y="417" type="line"/>
      <point x="250" y="417" type="line"/>
      <point x="283" y="570" type="line"/>
      <point x="463" y="570" type="line"/>
      <point x="493" y="714" type="line"/>
      <point x="146" y="714" type="line"/>
    </contour>
  </outline>
</glyph>
<glyph name="uni03DD" format="2">
  <advance width="425"/>
  <unicode hex="03DD"/>
  <anchor x="106" y="-240" name="bottom"/>
  <anchor x="269" y="530" name="top"/>
  <outline>
    <contour>
      <point x="-63" y="-240" type="line"/>
      <point x="98" y="-240" type="line"/>
      <point x="177" y="134" type="line"/>
      <point x="231" y="134" type="line"/>
      <point x="210" y="36" type="line"/>
      <point x="333" y="36" type="line"/>
      <point x="383" y="269" type="line"/>
      <point x="206" y="269" type="line"/>
      <point x="238" y="418" type="line"/>
      <point x="420" y="418" type="line"/>
      <point x="448" y="553" type="line"/>
      <point x="105" y="553" type="line"/>
    </contour>
  </outline>
</glyph>
<glyph name="uni03DE" format="2">
  <advance width="555"/>
  <unicode hex="03DE"/>
  <anchor x="222" y="0" name="bottom"/>
  <anchor x="373" y="714" name="top"/>
  <outline>
    <contour>
      <point x="402" y="-15" type="curve" smooth="yes"/>
      <point x="448" y="-15"/>
      <point x="479" y="-9"/>
      <point x="499" y="-1" type="curve"/>
      <point x="499" y="130" type="line"/>
      <point x="487" y="126"/>
      <point x="475" y="123"/>
      <point x="463" y="123" type="curve" smooth="yes"/>
      <point x="448" y="123"/>
      <point x="430" y="130"/>
      <point x="430" y="164" type="curve" smooth="yes"/>
      <point x="430" y="206"/>
      <point x="441" y="237"/>
      <point x="455" y="279" type="curve" smooth="yes"/>
      <point x="510" y="444" type="line"/>
      <point x="293" y="444" type="line"/>
      <point x="297" y="458" type="line" smooth="yes"/>
      <point x="307" y="493"/>
      <point x="319" y="533"/>
      <point x="319" y="588" type="curve" smooth="yes"/>
      <point x="319" y="665"/>
      <point x="263" y="724"/>
      <point x="180" y="724" type="curve" smooth="yes"/>
      <point x="134" y="724"/>
      <point x="93" y="716"/>
      <point x="73" y="708" type="curve"/>
      <point x="83" y="579" type="line"/>
      <point x="95" y="583"/>
      <point x="107" y="586"/>
      <point x="119" y="586" type="curve" smooth="yes"/>
      <point x="134" y="586"/>
      <point x="152" y="579"/>
      <point x="152" y="545" type="curve" smooth="yes"/>
      <point x="152" y="507"/>
      <point x="138" y="467"/>
      <point x="127" y="430" type="curve" smooth="yes"/>
      <point x="86" y="298" type="line"/>
      <point x="301" y="298" type="line"/>
      <point x="293" y="275" type="line" smooth="yes"/>
      <point x="276" y="227"/>
      <point x="263" y="182"/>
      <point x="263" y="121" type="curve" smooth="yes"/>
      <point x="263" y="44"/>
      <point x="319" y="-15"/>
    </contour>
  </outline>
</glyph>
<glyph name="uni03DF" format="2">
  <advance width="479"/>
  <unicode hex="03DF"/>
  <anchor x="133" y="-240" name="bottom"/>
  <anchor x="346" y="765" name="top"/>
  <outline>
    <contour>
      <point x="324" y="-240" type="curve" smooth="yes"/>
      <point x="351" y="-240"/>
      <point x="378" y="-235"/>
      <point x="398" y="-227" type="curve"/>
      <point x="398" y="-95" type="line"/>
      <point x="386" y="-99"/>
      <point x="374" y="-102"/>
      <point x="362" y="-102" type="curve" smooth="yes"/>
      <point x="347" y="-102"/>
      <point x="335" y="-89"/>
      <point x="335" y="-55" type="curve" smooth="yes"/>
      <point x="335" y="-35"/>
      <point x="343" y="2"/>
      <point x="360" y="49" type="curve" smooth="yes"/>
      <point x="441" y="274" type="line"/>
      <point x="441" y="375" type="line"/>
      <point x="210" y="333" type="line"/>
      <point x="256" y="451" type="line" smooth="yes"/>
      <point x="277" y="504"/>
      <point x="294" y="564"/>
      <point x="294" y="605" type="curve" smooth="yes"/>
      <point x="294" y="706"/>
      <point x="247" y="765"/>
      <point x="145" y="765" type="curve" smooth="yes"/>
      <point x="118" y="765"/>
      <point x="81" y="757"/>
      <point x="61" y="749" type="curve"/>
      <point x="71" y="620" type="line"/>
      <point x="83" y="624"/>
      <point x="95" y="627"/>
      <point x="107" y="627" type="curve" smooth="yes"/>
      <point x="122" y="627"/>
      <point x="134" y="614"/>
      <point x="134" y="580" type="curve" smooth="yes"/>
      <point x="134" y="560"/>
      <point x="126" y="523"/>
      <point x="109" y="476" type="curve" smooth="yes"/>
      <point x="34" y="268" type="line"/>
      <point x="34" y="172" type="line"/>
      <point x="267" y="215" type="line"/>
      <point x="213" y="74" type="line" smooth="yes"/>
      <point x="192" y="21"/>
      <point x="175" y="-39"/>
      <point x="175" y="-80" type="curve" smooth="yes"/>
      <point x="175" y="-181"/>
      <point x="222" y="-240"/>
    </contour>
  </outline>
</glyph>
<glyph name="uni03F0" format="2">
  <advance width="570"/>
  <unicode hex="03F0"/>
  <anchor x="229" y="0" name="bottom"/>
  <anchor x="341" y="530" name="top"/>
  <outline>
    <contour>
      <point x="452" y="-10" type="curve" smooth="yes"/>
      <point x="479" y="-10"/>
      <point x="506" y="-5"/>
      <point x="526" y="3" type="curve"/>
      <point x="526" y="135" type="line"/>
      <point x="514" y="131"/>
      <point x="502" y="128"/>
      <point x="490" y="128" type="curve" smooth="yes"/>
      <point x="475" y="128"/>
      <point x="463" y="141"/>
      <point x="463" y="175" type="curve" smooth="yes"/>
      <point x="463" y="265"/>
      <point x="503" y="392"/>
      <point x="587" y="553" type="curve"/>
      <point x="434" y="553" type="line"/>
      <point x="256" y="333" type="line"/>
      <point x="259" y="357"/>
      <point x="261" y="380"/>
      <point x="261" y="403" type="curve" smooth="yes"/>
      <point x="261" y="504"/>
      <point x="214" y="563"/>
      <point x="112" y="563" type="curve" smooth="yes"/>
      <point x="85" y="563"/>
      <point x="48" y="555"/>
      <point x="28" y="547" type="curve"/>
      <point x="38" y="418" type="line"/>
      <point x="50" y="422"/>
      <point x="62" y="425"/>
      <point x="74" y="425" type="curve" smooth="yes"/>
      <point x="89" y="425"/>
      <point x="101" y="412"/>
      <point x="101" y="378" type="curve" smooth="yes"/>
      <point x="101" y="288"/>
      <point x="61" y="161"/>
      <point x="-23" y="0" type="curve"/>
      <point x="133" y="0" type="line"/>
      <point x="308" y="215" type="line"/>
      <point x="305" y="193"/>
      <point x="303" y="171"/>
      <point x="303" y="150" type="curve" smooth="yes"/>
      <point x="303" y="49"/>
      <point x="350" y="-10"/>
    </contour>
  </outline>
</glyph>
<glyph name="uni03F1" format="2">
  <advance width="489"/>
  <unicode hex="03F1"/>
  <anchor x="138" y="-240" name="bottom"/>
  <anchor x="301" y="530" name="top"/>
  <outline>
    <contour>
      <point x="180" y="-240" type="curve"/>
      <point x="324" y="-240" type="line"/>
      <point x="338" y="-217"/>
      <point x="349" y="-186"/>
      <point x="349" y="-159" type="curve" smooth="yes"/>
      <point x="349" y="-99"/>
      <point x="309" y="-66"/>
      <point x="233" y="-66" type="curve" smooth="yes"/>
      <point x="174" y="-66"/>
      <point x="154" y="-47"/>
      <point x="154" y="-19" type="curve" smooth="yes"/>
      <point x="154" y="0"/>
      <point x="155" y="14"/>
      <point x="158" y="32" type="curve"/>
      <point x="161" y="32" type="line"/>
      <point x="177" y="14"/>
      <point x="204" y="0"/>
      <point x="243" y="0" type="curve" smooth="yes"/>
      <point x="408" y="0"/>
      <point x="470" y="221"/>
      <point x="470" y="363" type="curve" smooth="yes"/>
      <point x="470" y="495"/>
      <point x="403" y="563"/>
      <point x="286" y="563" type="curve" smooth="yes"/>
      <point x="137" y="563"/>
      <point x="60" y="431"/>
      <point x="21" y="247" type="curve" smooth="yes"/>
      <point x="5" y="174"/>
      <point x="-8" y="85"/>
      <point x="-8" y="0" type="curve" smooth="yes"/>
      <point x="-8" y="-136"/>
      <point x="42" y="-197"/>
      <point x="159" y="-197" type="curve" smooth="yes"/>
      <point x="177" y="-197"/>
      <point x="187" y="-206"/>
      <point x="187" y="-219" type="curve" smooth="yes"/>
      <point x="187" y="-228"/>
      <point x="184" y="-235"/>
    </contour>
    <contour>
      <point x="218" y="129" type="curve" smooth="yes"/>
      <point x="200" y="129"/>
      <point x="182" y="146"/>
      <point x="176" y="156" type="curve"/>
      <point x="200" y="320"/>
      <point x="246" y="434"/>
      <point x="277" y="434" type="curve" smooth="yes"/>
      <point x="300" y="434"/>
      <point x="309" y="414"/>
      <point x="309" y="364" type="curve" smooth="yes"/>
      <point x="309" y="280"/>
      <point x="272" y="129"/>
    </contour>
  </outline>
</glyph>
<glyph name="uni03FA" format="2">
  <advance width="705"/>
  <unicode hex="03FA"/>
  <anchor x="297" y="0" name="bottom"/>
  <anchor x="448" y="714" name="top"/>
  <outline>
    <contour>
      <point x="-5" y="0" type="line"/>
      <point x="152" y="0" type="line"/>
      <point x="224" y="344" type="line" smooth="yes"/>
      <point x="231" y="376"/>
      <point x="236" y="412"/>
      <point x="242" y="452" type="curve"/>
      <point x="245" y="452" type="line"/>
      <point x="268" y="220" type="line"/>
      <point x="404" y="220" type="line"/>
      <point x="527" y="458" type="line"/>
      <point x="530" y="458" type="line"/>
      <point x="523" y="432"/>
      <point x="515" y="407"/>
      <point x="510" y="381" type="curve" smooth="yes"/>
      <point x="430" y="0" type="line"/>
      <point x="592" y="0" type="line"/>
      <point x="744" y="714" type="line"/>
      <point x="516" y="714" type="line"/>
      <point x="384" y="478" type="line"/>
      <point x="381" y="478" type="line"/>
      <point x="366" y="714" type="line"/>
      <point x="146" y="714" type="line"/>
    </contour>
  </outline>
</glyph>
<glyph name="uni03FC" format="2">
  <advance width="487"/>
  <unicode hex="03FC"/>
  <anchor x="137" y="-240" name="bottom"/>
  <anchor x="300" y="530" name="top"/>
  <outline>
    <contour>
      <point x="-93" y="-184" type="line"/>
      <point x="218" y="-184" type="line"/>
      <point x="242" y="-69" type="line"/>
      <point x="-69" y="-69" type="line"/>
    </contour>
    <component base="rho"/>
  </outline>
</glyph>
<glyph name="afii10145" format="2">
  <advance width="550"/>
  <unicode hex="040F"/>
  <anchor x="172" y="-222" name="bottom"/>
  <anchor x="370" y="714" name="top"/>
  <outline>
    <contour>
      <point x="88" y="-222" type="line"/>
      <point x="251" y="-222" type="line"/>
      <point x="298" y="0" type="line"/>
      <point x="439" y="0" type="line"/>
      <point x="590" y="714" type="line"/>
      <point x="423" y="714" type="line"/>
      <point x="303" y="146" type="line"/>
      <point x="192" y="146" type="line"/>
      <point x="313" y="714" type="line"/>
      <point x="146" y="714" type="line"/>
      <point x="-5" y="0" type="line"/>
      <point x="135" y="0" type="line"/>
    </contour>
  </outline>
</glyph>
<glyph name="afii10040" format="2">
  <advance width="607"/>
  <unicode hex="0426"/>
  <anchor x="201" y="-222" name="bottom"/>
  <anchor x="399" y="714" name="top"/>
  <outline>
    <contour>
      <point x="326" y="-222" type="line"/>
      <point x="488" y="-222" type="line"/>
      <point x="567" y="146" type="line"/>
      <point x="483" y="146" type="line"/>
      <point x="604" y="714" type="line"/>
      <point x="437" y="714" type="line"/>
      <point x="316" y="146" type="line"/>
      <point x="192" y="146" type="line"/>
      <point x="313" y="714" type="line"/>
      <point x="146" y="714" type="line"/>
      <point x="-5" y="0" type="line"/>
      <point x="373" y="0" type="line"/>
    </contour>
  </outline>
</glyph>
<glyph name="afii10042" format="2">
  <advance width="815"/>
  <unicode hex="0428"/>
  <anchor x="352" y="0" name="bottom"/>
  <anchor x="503" y="714" name="top"/>
  <outline>
    <contour>
      <point x="-5" y="0" type="line"/>
      <point x="705" y="0" type="line"/>
      <point x="856" y="714" type="line"/>
      <point x="689" y="714" type="line"/>
      <point x="568" y="146" type="line"/>
      <point x="464" y="146" type="line"/>
      <point x="585" y="714" type="line"/>
      <point x="418" y="714" type="line"/>
      <point x="297" y="146" type="line"/>
      <point x="192" y="146" type="line"/>
      <point x="313" y="714" type="line"/>
      <point x="146" y="714" type="line"/>
    </contour>
  </outline>
</glyph>
<glyph name="afii10079" format="2">
  <advance width="493"/>
  <unicode hex="043D"/>
  <anchor x="191" y="0" name="bottom"/>
  <anchor x="303" y="530" name="top"/>
  <outline>
    <contour>
      <point x="-13" y="0" type="line"/>
      <point x="148" y="0" type="line"/>
      <point x="193" y="215" type="line"/>
      <point x="275" y="215" type="line"/>
      <point x="229" y="0" type="line"/>
      <point x="389" y="0" type="line"/>
      <point x="506" y="553" type="line"/>
      <point x="346" y="553" type="line"/>
      <point x="303" y="351" type="line"/>
      <point x="222" y="351" type="line"/>
      <point x="265" y="553" type="line"/>
      <point x="105" y="553" type="line"/>
    </contour>
  </outline>
</glyph>
<glyph name="uni0460" format="2">
  <advance width="797"/>
  <unicode hex="0460"/>
  <anchor x="343" y="0" name="bottom"/>
  <anchor x="494" y="714" name="top"/>
  <outline>
    <contour>
      <point x="129" y="0" type="curve"/>
      <point x="280" y="0" type="line"/>
      <point x="374" y="219" type="line"/>
      <point x="381" y="150"/>
      <point x="391" y="78"/>
      <point x="407" y="0" type="curve"/>
      <point x="553" y="0" type="line"/>
      <point x="744" y="262"/>
      <point x="814" y="476"/>
      <point x="855" y="714" type="curve"/>
      <point x="681" y="714" type="line"/>
      <point x="670" y="564"/>
      <point x="610" y="386"/>
      <point x="519" y="236" type="curve"/>
      <point x="517" y="236" type="line"/>
      <point x="493" y="386"/>
      <point x="508" y="564"/>
      <point x="544" y="714" type="curve"/>
      <point x="403" y="714" type="line"/>
      <point x="391" y="657"/>
      <point x="382" y="602"/>
      <point x="376" y="547" type="curve"/>
      <point x="290" y="359" type="line"/>
      <point x="271" y="316"/>
      <point x="257" y="278"/>
      <point x="244" y="236" type="curve"/>
      <point x="243" y="236" type="line"/>
      <point x="209" y="386"/>
      <point x="229" y="564"/>
      <point x="281" y="714" type="curve"/>
      <point x="116" y="714" type="line"/>
      <point x="52" y="476"/>
      <point x="52" y="283"/>
    </contour>
  </outline>
</glyph>
<glyph name="uni0461" format="2">
  <advance width="680"/>
  <unicode hex="0461"/>
  <anchor x="284" y="0" name="bottom"/>
  <anchor x="396" y="530" name="top"/>
  <outline>
    <contour>
      <point x="105" y="0" type="curve"/>
      <point x="225" y="0" type="line"/>
      <point x="296" y="135" type="line"/>
      <point x="303" y="90"/>
      <point x="311" y="45"/>
      <point x="321" y="0" type="curve"/>
      <point x="435" y="0" type="line"/>
      <point x="580" y="138"/>
      <point x="657" y="331"/>
      <point x="705" y="553" type="curve"/>
      <point x="545" y="553" type="line"/>
      <point x="515" y="415"/>
      <point x="490" y="324"/>
      <point x="433" y="208" type="curve"/>
      <point x="432" y="208" type="line"/>
      <point x="420" y="323"/>
      <point x="429" y="438"/>
      <point x="457" y="553" type="curve"/>
      <point x="303" y="553" type="line"/>
      <point x="291" y="485"/>
      <point x="285" y="416"/>
      <point x="284" y="347" type="curve"/>
      <point x="244" y="265" type="line" smooth="yes"/>
      <point x="235" y="246"/>
      <point x="224" y="229"/>
      <point x="219" y="207" type="curve"/>
      <point x="216" y="207" type="line"/>
      <point x="198" y="313"/>
      <point x="200" y="447"/>
      <point x="222" y="553" type="curve"/>
      <point x="57" y="553" type="line"/>
      <point x="40" y="369"/>
      <point x="58" y="167"/>
    </contour>
  </outline>
</glyph>
<glyph name="uni0466" format="2">
  <advance width="649"/>
  <unicode hex="0466"/>
  <anchor x="269" y="0" name="bottom"/>
  <anchor x="420" y="714" name="top"/>
  <outline>
    <contour>
      <point x="-61" y="0" type="line"/>
      <point x="115" y="0" type="line"/>
      <point x="243" y="271" type="line"/>
      <point x="245" y="271" type="line"/>
      <point x="188" y="0" type="line"/>
      <point x="345" y="0" type="line"/>
      <point x="401" y="269" type="line"/>
      <point x="403" y="269" type="line"/>
      <point x="418" y="0" type="line"/>
      <point x="595" y="0" type="line"/>
      <point x="531" y="714" type="line"/>
      <point x="306" y="714" type="line"/>
    </contour>
    <contour>
      <point x="309" y="406" type="line"/>
      <point x="368" y="524" type="line" smooth="yes"/>
      <point x="375" y="539"/>
      <point x="379" y="555"/>
      <point x="386" y="570" type="curve"/>
      <point x="387" y="555"/>
      <point x="387" y="540"/>
      <point x="388" y="525" type="curve" smooth="yes"/>
      <point x="395" y="406" type="line"/>
    </contour>
  </outline>
</glyph>
<glyph name="uni0488" format="2">
  <advance width="890"/>
  <unicode hex="0488"/>
  <outline>
    <contour>
      <point x="570" y="456" type="curve"/>
      <point x="627" y="456" type="line"/>
      <point x="629" y="477"/>
      <point x="649" y="488"/>
      <point x="687" y="488" type="curve" smooth="yes"/>
      <point x="734" y="488"/>
      <point x="746" y="478"/>
      <point x="748" y="456" type="curve"/>
      <point x="804" y="456" type="line"/>
      <point x="799" y="522"/>
      <point x="746" y="557"/>
      <point x="687" y="557" type="curve" smooth="yes"/>
      <point x="626" y="557"/>
      <point x="574" y="517"/>
    </contour>
    <contour>
      <point x="68" y="-20" type="curve"/>
      <point x="126" y="-20" type="line"/>
      <point x="127" y="0"/>
      <point x="149" y="12"/>
      <point x="186" y="12" type="curve" smooth="yes"/>
      <point x="232" y="12"/>
      <point x="245" y="1"/>
      <point x="247" y="-20" type="curve"/>
      <point x="303" y="-20" type="line"/>
      <point x="299" y="42"/>
      <point x="254" y="81"/>
      <point x="186" y="81" type="curve" smooth="yes"/>
      <point x="124" y="81"/>
      <point x="72" y="41"/>
    </contour>
    <contour>
      <point x="315" y="-156" type="curve"/>
      <point x="373" y="-156" type="line"/>
      <point x="373" y="-135"/>
      <point x="393" y="-124"/>
      <point x="432" y="-124" type="curve" smooth="yes"/>
      <point x="479" y="-124"/>
      <point x="491" y="-134"/>
      <point x="493" y="-156" type="curve"/>
      <point x="550" y="-156" type="line"/>
      <point x="545" y="-91"/>
      <point x="492" y="-55"/>
      <point x="432" y="-55" type="curve" smooth="yes"/>
      <point x="371" y="-55"/>
      <point x="319" y="-94"/>
    </contour>
    <contour>
      <point x="6" y="221" type="curve"/>
      <point x="64" y="221" type="line"/>
      <point x="64" y="242"/>
      <point x="85" y="253"/>
      <point x="124" y="253" type="curve" smooth="yes"/>
      <point x="169" y="253"/>
      <point x="182" y="244"/>
      <point x="184" y="221" type="curve"/>
      <point x="240" y="221" type="line"/>
      <point x="238" y="282"/>
      <point x="193" y="322"/>
      <point x="124" y="322" type="curve" smooth="yes"/>
      <point x="63" y="322"/>
      <point x="10" y="282"/>
    </contour>
    <contour>
      <point x="68" y="456" type="curve"/>
      <point x="126" y="456" type="line"/>
      <point x="126" y="477"/>
      <point x="147" y="488"/>
      <point x="186" y="488" type="curve" smooth="yes"/>
      <point x="232" y="488"/>
      <point x="245" y="478"/>
      <point x="247" y="456" type="curve"/>
      <point x="303" y="456" type="line"/>
      <point x="299" y="518"/>
      <point x="254" y="557"/>
      <point x="186" y="557" type="curve" smooth="yes"/>
      <point x="128" y="557"/>
      <point x="72" y="519"/>
    </contour>
    <contour>
      <point x="570" y="-20" type="curve"/>
      <point x="627" y="-20" type="line"/>
      <point x="629" y="0"/>
      <point x="650" y="12"/>
      <point x="687" y="12" type="curve" smooth="yes"/>
      <point x="734" y="12"/>
      <point x="746" y="1"/>
      <point x="748" y="-20" type="curve"/>
      <point x="804" y="-20" type="line"/>
      <point x="799" y="46"/>
      <point x="746" y="81"/>
      <point x="687" y="81" type="curve" smooth="yes"/>
      <point x="626" y="81"/>
      <point x="574" y="41"/>
    </contour>
    <contour>
      <point x="632" y="221" type="curve"/>
      <point x="690" y="221" type="line"/>
      <point x="690" y="242"/>
      <point x="711" y="253"/>
      <point x="750" y="253" type="curve" smooth="yes"/>
      <point x="796" y="253"/>
      <point x="809" y="243"/>
      <point x="811" y="221" type="curve"/>
      <point x="866" y="221" type="line"/>
      <point x="864" y="282"/>
      <point x="819" y="322"/>
      <point x="750" y="322" type="curve" smooth="yes"/>
      <point x="688" y="322"/>
      <point x="635" y="282"/>
    </contour>
    <contour>
      <point x="315" y="595" type="curve"/>
      <point x="373" y="595" type="line"/>
      <point x="374" y="616"/>
      <point x="394" y="627"/>
      <point x="432" y="627" type="curve" smooth="yes"/>
      <point x="479" y="627"/>
      <point x="491" y="617"/>
      <point x="493" y="595" type="curve"/>
      <point x="550" y="595" type="line"/>
      <point x="546" y="659"/>
      <point x="497" y="696"/>
      <point x="432" y="696" type="curve" smooth="yes"/>
      <point x="375" y="696"/>
      <point x="321" y="659"/>
    </contour>
  </outline>
</glyph>
<glyph name="uni0489" format="2">
  <advance width="877"/>
  <unicode hex="0489"/>
  <outline>
    <contour>
      <point x="660" y="449" type="line"/>
      <point x="713" y="488"/>
      <point x="757" y="522"/>
      <point x="804" y="548" type="curve"/>
      <point x="749" y="602" type="line"/>
      <point x="693" y="583"/>
      <point x="640" y="557"/>
      <point x="591" y="529" type="curve"/>
      <point x="590" y="520" type="line"/>
    </contour>
    <contour>
      <point x="128" y="-63" type="line"/>
      <point x="185" y="-42"/>
      <point x="238" y="-18"/>
      <point x="286" y="11" type="curve"/>
      <point x="288" y="20" type="line"/>
      <point x="217" y="90" type="line"/>
      <point x="173" y="56"/>
      <point x="120" y="22"/>
      <point x="74" y="-6" type="curve"/>
    </contour>
    <contour>
      <point x="179" y="198" type="curve"/>
      <point x="185" y="203" type="line"/>
      <point x="185" y="303" type="line"/>
      <point x="135" y="309"/>
      <point x="74" y="318"/>
      <point x="14" y="339" type="curve"/>
      <point x="14" y="257" type="line"/>
      <point x="70" y="232"/>
      <point x="123" y="212"/>
    </contour>
    <contour>
      <point x="373" y="-188" type="curve"/>
      <point x="451" y="-188" type="line"/>
      <point x="475" y="-133"/>
      <point x="496" y="-80"/>
      <point x="511" y="-24" type="curve"/>
      <point x="506" y="-17" type="line"/>
      <point x="405" y="-17" type="line"/>
      <point x="400" y="-56"/>
      <point x="388" y="-122"/>
    </contour>
    <contour>
      <point x="711" y="-100" type="curve"/>
      <point x="765" y="-45" type="line"/>
      <point x="746" y="10"/>
      <point x="721" y="63"/>
      <point x="692" y="113" type="curve"/>
      <point x="683" y="114" type="line"/>
      <point x="613" y="43" type="line"/>
      <point x="631" y="19"/>
      <point x="673" y="-41"/>
    </contour>
    <contour>
      <point x="193" y="425" type="line"/>
      <point x="263" y="497" type="line"/>
      <point x="242" y="521"/>
      <point x="189" y="595"/>
      <point x="165" y="640" type="curve"/>
      <point x="110" y="585" type="line"/>
      <point x="133" y="526"/>
      <point x="156" y="475"/>
      <point x="184" y="427" type="curve"/>
    </contour>
    <contour>
      <point x="862" y="203" type="curve"/>
      <point x="862" y="282" type="line"/>
      <point x="809" y="308"/>
      <point x="753" y="326"/>
      <point x="698" y="342" type="curve"/>
      <point x="691" y="336" type="line"/>
      <point x="691" y="237" type="line"/>
      <point x="734" y="231"/>
      <point x="773" y="223"/>
    </contour>
    <contour>
      <point x="372" y="557" type="line"/>
      <point x="472" y="557" type="line"/>
      <point x="479" y="607"/>
      <point x="488" y="649"/>
      <point x="507" y="728" type="curve"/>
      <point x="427" y="728" type="line"/>
      <point x="401" y="675"/>
      <point x="382" y="619"/>
      <point x="367" y="564" type="curve"/>
    </contour>
  </outline>
</glyph>
<glyph name="uni048F" format="2">
  <advance width="487"/>
  <unicode hex="048F"/>
  <anchor x="137" y="-240" name="bottom"/>
  <anchor x="300" y="530" name="top"/>
  <anchor x="523" y="530" name="topright"/>
  <outline>
    <contour>
      <point x="303" y="-91" type="line"/>
      <point x="375" y="-72" type="line"/>
      <point x="281" y="270" type="line"/>
      <point x="209" y="251" type="line"/>
    </contour>
    <component base="p"/>
  </outline>
</glyph>
<glyph name="afii10050" format="2">
  <advance width="433"/>
  <unicode hex="0490"/>
  <anchor x="161" y="0" name="bottom"/>
  <anchor x="345" y="867" name="top"/>
  <outline>
    <contour>
      <point x="-5" y="0" type="line"/>
      <point x="162" y="0" type="line"/>
      <point x="283" y="570" type="line"/>
      <point x="482" y="569" type="line"/>
      <point x="546" y="867" type="line"/>
      <point x="383" y="867" type="line"/>
      <point x="350" y="714" type="line"/>
      <point x="146" y="714" type="line"/>
    </contour>
  </outline>
</glyph>
<glyph name="uni04A0" format="2">
  <advance width="600"/>
  <unicode hex="04A0"/>
  <anchor x="244" y="0" name="bottom"/>
  <anchor x="395" y="714" name="top"/>
  <outline>
    <contour>
      <point x="73" y="0" type="line"/>
      <point x="240" y="0" type="line"/>
      <point x="317" y="363" type="line"/>
      <point x="376" y="0" type="line"/>
      <point x="551" y="0" type="line"/>
      <point x="476" y="366" type="line"/>
      <point x="703" y="714" type="line"/>
      <point x="524" y="714" type="line"/>
      <point x="319" y="373" type="line"/>
      <point x="392" y="714" type="line"/>
      <point x="119" y="714" type="line"/>
      <point x="88" y="567" type="line"/>
      <point x="193" y="567" type="line"/>
    </contour>
  </outline>
</glyph>
<glyph name="uni04A4" format="2">
  <advance width="631"/>
  <unicode hex="04A4"/>
  <anchor x="260" y="0" name="bottom"/>
  <anchor x="411" y="714" name="top"/>
  <outline>
    <contour>
      <point x="-5" y="0" type="line"/>
      <point x="162" y="0" type="line"/>
      <point x="225" y="298" type="line"/>
      <point x="348" y="298" type="line"/>
      <point x="285" y="0" type="line"/>
      <point x="452" y="0" type="line"/>
      <point x="572" y="567" type="line"/>
      <point x="678" y="567" type="line"/>
      <point x="709" y="714" type="line"/>
      <point x="437" y="714" type="line"/>
      <point x="379" y="444" type="line"/>
      <point x="256" y="444" type="line"/>
      <point x="313" y="714" type="line"/>
      <point x="146" y="714" type="line"/>
    </contour>
  </outline>
</glyph>
<glyph name="uni04B2" format="2">
  <advance width="545"/>
  <unicode hex="04B2"/>
  <anchor x="170" y="-222" name="bottom"/>
  <anchor x="368" y="714" name="top"/>
  <outline>
    <contour>
      <point x="264" y="-222" type="line"/>
      <point x="427" y="-222" type="line"/>
      <point x="505" y="146" type="line"/>
      <point x="410" y="146" type="line"/>
      <point x="360" y="363" type="line"/>
      <point x="574" y="714" type="line"/>
      <point x="395" y="714" type="line"/>
      <point x="300" y="536" type="line"/>
      <point x="277" y="714" type="line"/>
      <point x="101" y="714" type="line"/>
      <point x="171" y="357" type="line"/>
      <point x="-59" y="0" type="line"/>
      <point x="119" y="0" type="line"/>
      <point x="233" y="188" type="line"/>
      <point x="261" y="0" type="line"/>
      <point x="312" y="0" type="line"/>
    </contour>
  </outline>
</glyph>
<glyph name="uni04B8" format="2">
  <advance width="579"/>
  <unicode hex="04B8"/>
  <anchor x="234" y="0" name="bottom"/>
  <anchor x="385" y="714" name="top"/>
  <outline>
    <contour>
      <point x="301" y="0" type="line"/>
      <point x="468" y="0" type="line"/>
      <point x="620" y="714" type="line"/>
      <point x="453" y="714" type="line"/>
      <point x="384" y="394" type="line"/>
      <point x="369" y="387"/>
      <point x="354" y="382"/>
      <point x="339" y="378" type="curve"/>
      <point x="373" y="539" type="line"/>
      <point x="305" y="539" type="line"/>
      <point x="270" y="372" type="line"/>
      <point x="248" y="374"/>
      <point x="239" y="383"/>
      <point x="239" y="407" type="curve" smooth="yes"/>
      <point x="239" y="422"/>
      <point x="242" y="441"/>
      <point x="247" y="465" type="curve" smooth="yes"/>
      <point x="300" y="714" type="line"/>
      <point x="133" y="714" type="line"/>
      <point x="77" y="452" type="line" smooth="yes"/>
      <point x="70" y="419"/>
      <point x="65" y="382"/>
      <point x="65" y="361" type="curve" smooth="yes"/>
      <point x="65" y="285"/>
      <point x="103" y="225"/>
      <point x="238" y="225" type="curve"/>
      <point x="210" y="89" type="line"/>
      <point x="278" y="89" type="line"/>
      <point x="309" y="236" type="line"/>
      <point x="324" y="240"/>
      <point x="340" y="246"/>
      <point x="355" y="254" type="curve"/>
    </contour>
  </outline>
</glyph>
<glyph name="uni04BE" format="2">
  <advance width="697"/>
  <unicode hex="04BE"/>
  <anchor x="246" y="-222" name="bottom"/>
  <anchor x="444" y="714" name="top"/>
  <outline>
    <contour>
      <point x="267" y="-222" type="line"/>
      <point x="430" y="-222" type="line"/>
      <point x="478" y="0" type="line"/>
      <point x="521" y="10"/>
      <point x="565" y="29"/>
      <point x="602" y="60" type="curve"/>
      <point x="602" y="208" type="line"/>
      <point x="547" y="168"/>
      <point x="492" y="137"/>
      <point x="429" y="137" type="curve" smooth="yes"/>
      <point x="382" y="137"/>
      <point x="357" y="162"/>
      <point x="357" y="227" type="curve" smooth="yes"/>
      <point x="357" y="249"/>
      <point x="359" y="273"/>
      <point x="362" y="298" type="curve"/>
      <point x="374" y="298" type="line" smooth="yes"/>
      <point x="566" y="298"/>
      <point x="711" y="371"/>
      <point x="711" y="543" type="curve" smooth="yes"/>
      <point x="711" y="660"/>
      <point x="633" y="724"/>
      <point x="528" y="724" type="curve" smooth="yes"/>
      <point x="363" y="724"/>
      <point x="267" y="607"/>
      <point x="212" y="428" type="curve"/>
      <point x="206" y="428" type="line" smooth="yes"/>
      <point x="183" y="428"/>
      <point x="176" y="440"/>
      <point x="176" y="452" type="curve" smooth="yes"/>
      <point x="176" y="479"/>
      <point x="189" y="505"/>
      <point x="200" y="527" type="curve"/>
      <point x="72" y="527" type="line"/>
      <point x="46" y="494"/>
      <point x="28" y="449"/>
      <point x="28" y="413" type="curve" smooth="yes"/>
      <point x="28" y="330"/>
      <point x="71" y="299"/>
      <point x="185" y="298" type="curve"/>
      <point x="182" y="271"/>
      <point x="180" y="245"/>
      <point x="180" y="219" type="curve" smooth="yes"/>
      <point x="180" y="109"/>
      <point x="226" y="31"/>
      <point x="316" y="2" type="curve"/>
    </contour>
    <contour>
      <point x="389" y="428" type="line"/>
      <point x="405" y="496"/>
      <point x="454" y="589"/>
      <point x="514" y="589" type="curve" smooth="yes"/>
      <point x="535" y="589"/>
      <point x="558" y="568"/>
      <point x="558" y="530" type="curve" smooth="yes"/>
      <point x="558" y="451"/>
      <point x="484" y="428"/>
      <point x="397" y="428" type="curve" smooth="yes"/>
    </contour>
  </outline>
</glyph>
<glyph name="uni04C9" format="2">
  <advance width="618"/>
  <unicode hex="04C9"/>
  <anchor x="206" y="-222" name="bottom"/>
  <anchor x="404" y="714" name="top"/>
  <outline>
    <contour>
      <point x="263" y="-222" type="line"/>
      <point x="442" y="-222" type="line"/>
      <point x="586" y="158" type="line"/>
      <point x="485" y="158" type="line"/>
      <point x="604" y="714" type="line"/>
      <point x="437" y="714" type="line"/>
      <point x="379" y="444" type="line"/>
      <point x="256" y="444" type="line"/>
      <point x="313" y="714" type="line"/>
      <point x="146" y="714" type="line"/>
      <point x="-5" y="0" type="line"/>
      <point x="162" y="0" type="line"/>
      <point x="225" y="298" type="line"/>
      <point x="348" y="298" type="line"/>
      <point x="285" y="0" type="line"/>
      <point x="378" y="0" type="line"/>
    </contour>
  </outline>
</glyph>
<glyph name="uni0512" format="2">
  <advance width="685"/>
  <unicode hex="0512"/>
  <anchor x="236" y="-240" name="bottom"/>
  <anchor x="438" y="714" name="top"/>
  <outline>
    <contour>
      <point x="414" y="-240" type="curve" smooth="yes"/>
      <point x="534" y="-240"/>
      <point x="584" y="-134"/>
      <point x="608" y="-25" type="curve" smooth="yes"/>
      <point x="648" y="164" type="line"/>
      <point x="497" y="164" type="line"/>
      <point x="614" y="714" type="line"/>
      <point x="227" y="714" type="line"/>
      <point x="119" y="350"/>
      <point x="108" y="312"/>
      <point x="90" y="260" type="curve" smooth="yes"/>
      <point x="69" y="200"/>
      <point x="47" y="134"/>
      <point x="3" y="134" type="curve" smooth="yes"/>
      <point x="-5" y="134"/>
      <point x="-22" y="137"/>
      <point x="-39" y="145" type="curve"/>
      <point x="-39" y="1" type="line"/>
      <point x="-22" y="-7"/>
      <point x="2" y="-10"/>
      <point x="23" y="-10" type="curve" smooth="yes"/>
      <point x="139" y="-10"/>
      <point x="187" y="69"/>
      <point x="238" y="221" type="curve" smooth="yes"/>
      <point x="255" y="268"/>
      <point x="269" y="317"/>
      <point x="340" y="556" type="curve"/>
      <point x="414" y="556" type="line"/>
      <point x="296" y="0" type="line"/>
      <point x="451" y="0" type="line"/>
      <point x="446" y="-22" type="line" smooth="yes"/>
      <point x="440" y="-55"/>
      <point x="430" y="-96"/>
      <point x="389" y="-96" type="curve" smooth="yes"/>
      <point x="378" y="-96"/>
      <point x="358" y="-93"/>
      <point x="338" y="-84" type="curve"/>
      <point x="338" y="-225" type="line"/>
      <point x="358" y="-233"/>
      <point x="373" y="-240"/>
    </contour>
  </outline>
</glyph>
<glyph name="uni052A" format="2">
  <advance width="1132"/>
  <unicode hex="052A"/>
  <anchor x="463" y="-222" name="bottom"/>
  <anchor x="661" y="714" name="top"/>
  <outline>
    <contour>
      <point x="505" y="298" type="line"/>
      <point x="688" y="298" type="line"/>
      <point x="719" y="444" type="line"/>
      <point x="536" y="444" type="line"/>
    </contour>
    <component base="afii10021"/>
    <component base="afii10028" xOffset="610"/>
  </outline>
</glyph>
<glyph name="uni052E" format="2">
  <advance width="600"/>
  <unicode hex="052E"/>
  <anchor x="197" y="-222" name="bottom"/>
  <anchor x="395" y="714" name="top"/>
  <outline>
    <contour>
      <point x="320" y="-222" type="line"/>
      <point x="483" y="-222" type="line"/>
      <point x="561" y="146" type="line"/>
      <point x="473" y="146" type="line"/>
      <point x="328" y="0" type="line"/>
      <point x="367" y="0" type="line"/>
    </contour>
    <component base="afii10029"/>
  </outline>
</glyph>
<glyph name="uni052F" format="2">
  <advance width="542"/>
  <unicode hex="052F"/>
  <anchor x="172" y="-203" name="bottom"/>
  <anchor x="327" y="530" name="top"/>
  <outline>
    <contour>
      <point x="270" y="-203" type="line"/>
      <point x="425" y="-203" type="line"/>
      <point x="497" y="135" type="line"/>
      <point x="405" y="135" type="line"/>
      <point x="273" y="0" type="line"/>
      <point x="313" y="0" type="line"/>
    </contour>
    <component base="afii10077"/>
  </outline>
</glyph>
<glyph name="uni1AB8" format="2">
  <unicode hex="1AB8"/>
  <anchor x="-57" y="0" name="_bottom"/>
  <anchor x="-83" y="-240" name="bottom"/>
  <outline>
    <contour>
      <point x="65" y="-240" type="curve"/>
      <point x="87" y="-136" type="line"/>
      <point x="71" y="-136"/>
      <point x="62" y="-130"/>
      <point x="62" y="-112" type="curve" smooth="yes"/>
      <point x="62" y="-108"/>
      <point x="62" y="-103"/>
      <point x="65" y="-92" type="curve" smooth="yes"/>
      <point x="81" y="-25" type="line"/>
      <point x="-43" y="-25" type="line"/>
      <point x="-60" y="-95" type="line" smooth="yes"/>
      <point x="-64" y="-112"/>
      <point x="-67" y="-136"/>
      <point x="-67" y="-146" type="curve" smooth="yes"/>
      <point x="-67" y="-198"/>
      <point x="-46" y="-240"/>
    </contour>
    <contour>
      <point x="-125" y="-240" type="curve"/>
      <point x="-103" y="-136" type="line"/>
      <point x="-119" y="-136"/>
      <point x="-128" y="-130"/>
      <point x="-128" y="-112" type="curve" smooth="yes"/>
      <point x="-128" y="-108"/>
      <point x="-128" y="-103"/>
      <point x="-125" y="-92" type="curve" smooth="yes"/>
      <point x="-109" y="-25" type="line"/>
      <point x="-233" y="-25" type="line"/>
      <point x="-250" y="-95" type="line" smooth="yes"/>
      <point x="-254" y="-112"/>
      <point x="-257" y="-136"/>
      <point x="-257" y="-146" type="curve" smooth="yes"/>
      <point x="-257" y="-198"/>
      <point x="-236" y="-240"/>
    </contour>
  </outline>
</glyph>
<glyph name="uni1AB9" format="2">
  <unicode hex="1AB9"/>
  <anchor x="-56" y="0" name="_bottom"/>
  <anchor x="-75" y="-240" name="bottom"/>
  <outline>
    <contour>
      <point x="-222" y="-240" type="line"/>
      <point x="-104" y="-240" type="line"/>
      <point x="68" y="40" type="line"/>
      <point x="-50" y="40" type="line"/>
    </contour>
  </outline>
</glyph>
<glyph name="uni1ABA" format="2">
  <unicode hex="1ABA"/>
  <anchor x="-46" y="0" name="_bottom"/>
  <anchor x="-65" y="-240" name="bottom"/>
  <outline>
    <contour>
      <point x="-188" y="-163" type="line"/>
      <point x="-70" y="-163" type="line"/>
      <point x="68" y="40" type="line"/>
      <point x="-50" y="40" type="line"/>
    </contour>
    <contour>
      <point x="-125" y="-240" type="curve" smooth="yes"/>
      <point x="-60" y="-240"/>
      <point x="-25" y="-194"/>
      <point x="-25" y="-141" type="curve" smooth="yes"/>
      <point x="-25" y="-95"/>
      <point x="-49" y="-71"/>
      <point x="-102" y="-71" type="curve" smooth="yes"/>
      <point x="-169" y="-71"/>
      <point x="-202" y="-119"/>
      <point x="-202" y="-171" type="curve" smooth="yes"/>
      <point x="-202" y="-213"/>
      <point x="-176" y="-240"/>
    </contour>
  </outline>
</glyph>
<glyph name="uni1D03" format="2">
  <advance width="479"/>
  <unicode hex="1D03"/>
  <anchor x="165" y="0" name="bottom"/>
  <anchor x="283" y="553" name="top"/>
  <outline>
    <contour>
      <point x="-5" y="228" type="line"/>
      <point x="466" y="228" type="line"/>
      <point x="491" y="350" type="line"/>
      <point x="20" y="350" type="line"/>
    </contour>
    <component base="uni0299"/>
  </outline>
</glyph>
<glyph name="uni1D07" format="2">
  <advance width="361"/>
  <unicode hex="1D07"/>
  <anchor x="125" y="0" name="bottom"/>
  <anchor x="237" y="530" name="top"/>
  <outline>
    <contour>
      <point x="-11" y="0" type="line"/>
      <point x="268" y="0" type="line"/>
      <point x="297" y="135" type="line"/>
      <point x="177" y="135" type="line"/>
      <point x="197" y="221" type="line"/>
      <point x="306" y="221" type="line"/>
      <point x="336" y="355" type="line"/>
      <point x="224" y="355" type="line"/>
      <point x="241" y="426" type="line"/>
      <point x="361" y="426" type="line"/>
      <point x="388" y="560" type="line"/>
      <point x="110" y="560" type="line"/>
    </contour>
  </outline>
</glyph>
<glyph name="uni1D0F" format="2">
  <advance width="513"/>
  <unicode hex="1D0F"/>
  <anchor x="198" y="0" name="bottom"/>
  <anchor x="316" y="553" name="top"/>
  <outline>
    <contour>
      <point x="212" y="-8" type="curve" smooth="yes"/>
      <point x="413" y="-8"/>
      <point x="497" y="216"/>
      <point x="497" y="368" type="curve" smooth="yes"/>
      <point x="497" y="492"/>
      <point x="440" y="569"/>
      <point x="309" y="569" type="curve" smooth="yes"/>
      <point x="122" y="569"/>
      <point x="20" y="368"/>
      <point x="20" y="192" type="curve" smooth="yes"/>
      <point x="20" y="60"/>
      <point x="88" y="-8"/>
    </contour>
    <contour>
      <point x="222" y="131" type="curve" smooth="yes"/>
      <point x="200" y="131"/>
      <point x="187" y="146"/>
      <point x="187" y="191" type="curve" smooth="yes"/>
      <point x="187" y="281"/>
      <point x="230" y="432"/>
      <point x="295" y="432" type="curve" smooth="yes"/>
      <point x="315" y="432"/>
      <point x="332" y="414"/>
      <point x="332" y="373" type="curve" smooth="yes"/>
      <point x="332" y="296"/>
      <point x="285" y="131"/>
    </contour>
  </outline>
</glyph>
<glyph name="uni1D18" format="2">
  <advance width="428"/>
  <unicode hex="1D18"/>
  <anchor x="158" y="0" name="bottom"/>
  <anchor x="270" y="530" name="top"/>
  <outline>
    <contour>
      <point x="-11" y="0" type="line"/>
      <point x="149" y="0" type="line"/>
      <point x="185" y="174" type="line"/>
      <point x="215" y="174" type="line" smooth="yes"/>
      <point x="375" y="174"/>
      <point x="430" y="321"/>
      <point x="430" y="422" type="curve" smooth="yes"/>
      <point x="430" y="504"/>
      <point x="388" y="560"/>
      <point x="270" y="560" type="curve" smooth="yes"/>
      <point x="110" y="560" type="line"/>
    </contour>
    <contour>
      <point x="214" y="307" type="line"/>
      <point x="241" y="426" type="line"/>
      <point x="242" y="426" type="line" smooth="yes"/>
      <point x="260" y="426"/>
      <point x="267" y="425"/>
      <point x="267" y="401" type="curve" smooth="yes"/>
      <point x="267" y="347"/>
      <point x="248" y="307"/>
      <point x="219" y="307" type="curve" smooth="yes"/>
    </contour>
  </outline>
</glyph>
<glyph name="uni1D1A" format="2">
  <advance width="446"/>
  <unicode hex="1D1A"/>
  <anchor x="167" y="0" name="bottom"/>
  <anchor x="279" y="530" name="top"/>
  <outline>
    <contour>
      <point x="189" y="0" type="curve" smooth="yes"/>
      <point x="349" y="0" type="line"/>
      <point x="470" y="560" type="line"/>
      <point x="310" y="560" type="line"/>
      <point x="274" y="386" type="line"/>
      <point x="267" y="386" type="line"/>
      <point x="220" y="560" type="line"/>
      <point x="48" y="560" type="line"/>
      <point x="118" y="345" type="line"/>
      <point x="54" y="294"/>
      <point x="29" y="206"/>
      <point x="29" y="138" type="curve" smooth="yes"/>
      <point x="29" y="56"/>
      <point x="71" y="0"/>
    </contour>
    <contour>
      <point x="217" y="134" type="line" smooth="yes"/>
      <point x="199" y="134"/>
      <point x="192" y="135"/>
      <point x="192" y="159" type="curve" smooth="yes"/>
      <point x="192" y="213"/>
      <point x="211" y="253"/>
      <point x="240" y="253" type="curve" smooth="yes"/>
      <point x="245" y="253" type="line"/>
      <point x="218" y="134" type="line"/>
    </contour>
  </outline>
</glyph>
<glyph name="uni1D20" format="2">
  <advance width="470"/>
  <unicode hex="1D20"/>
  <anchor x="179" y="0" name="bottom"/>
  <anchor x="291" y="530" name="top"/>
  <outline>
    <contour>
      <point x="86" y="0" type="line"/>
      <point x="269" y="0" type="line"/>
      <point x="521" y="560" type="line"/>
      <point x="350" y="560" type="line"/>
      <point x="247" y="301" type="line" smooth="yes"/>
      <point x="236" y="275"/>
      <point x="228" y="246"/>
      <point x="220" y="214" type="curve"/>
      <point x="218" y="214" type="line"/>
      <point x="223" y="246"/>
      <point x="225" y="264"/>
      <point x="226" y="294" type="curve" smooth="yes"/>
      <point x="235" y="560" type="line"/>
      <point x="71" y="560" type="line"/>
    </contour>
  </outline>
</glyph>
<glyph name="uni1D22" format="2">
  <advance width="393"/>
  <unicode hex="1D22"/>
  <anchor x="141" y="0" name="bottom"/>
  <anchor x="253" y="530" name="top"/>
  <outline>
    <contour>
      <point x="-36" y="0" type="line"/>
      <point x="320" y="0" type="line"/>
      <point x="348" y="135" type="line"/>
      <point x="176" y="135" type="line"/>
      <point x="414" y="452" type="line"/>
      <point x="436" y="560" type="line"/>
      <point x="89" y="560" type="line"/>
      <point x="62" y="426" type="line"/>
      <point x="226" y="426" type="line"/>
      <point x="-13" y="108" type="line"/>
    </contour>
  </outline>
</glyph>
<glyph name="uni1D24" format="2">
  <advance width="477"/>
  <unicode hex="1D24"/>
  <anchor x="184" y="0" name="bottom"/>
  <anchor x="348" y="765" name="top"/>
  <outline>
    <contour>
      <point x="196" y="-10" type="curve" smooth="yes"/>
      <point x="265" y="-10"/>
      <point x="335" y="16"/>
      <point x="383" y="59" type="curve"/>
      <point x="342" y="171" type="line"/>
      <point x="295" y="137"/>
      <point x="265" y="125"/>
      <point x="227" y="125" type="curve" smooth="yes"/>
      <point x="195" y="125"/>
      <point x="175" y="143"/>
      <point x="175" y="177" type="curve" smooth="yes"/>
      <point x="175" y="219"/>
      <point x="223" y="261"/>
      <point x="335" y="306" type="curve"/>
      <point x="354" y="403" type="line"/>
      <point x="476" y="454"/>
      <point x="528" y="519"/>
      <point x="528" y="613" type="curve" smooth="yes"/>
      <point x="528" y="701"/>
      <point x="462" y="765"/>
      <point x="345" y="765" type="curve" smooth="yes"/>
      <point x="276" y="765"/>
      <point x="206" y="739"/>
      <point x="158" y="696" type="curve"/>
      <point x="199" y="583" type="line"/>
      <point x="246" y="617"/>
      <point x="276" y="629"/>
      <point x="314" y="629" type="curve" smooth="yes"/>
      <point x="346" y="629"/>
      <point x="366" y="611"/>
      <point x="366" y="578" type="curve" smooth="yes"/>
      <point x="366" y="536"/>
      <point x="318" y="494"/>
      <point x="206" y="449" type="curve"/>
      <point x="187" y="352" type="line"/>
      <point x="65" y="301"/>
      <point x="13" y="236"/>
      <point x="13" y="142" type="curve" smooth="yes"/>
      <point x="13" y="54"/>
      <point x="79" y="-10"/>
    </contour>
  </outline>
</glyph>
<glyph name="uni1D7A" format="2">
  <advance width="833"/>
  <unicode hex="1D7A"/>
  <anchor x="125" y="0" name="bottom_1"/>
  <anchor x="532" y="0" name="bottom_2"/>
  <anchor x="157" y="265" name="center_1"/>
  <anchor x="644" y="265" name="center_2"/>
  <anchor x="255" y="664" name="top_1"/>
  <anchor x="693" y="760" name="top_2"/>
  <anchor x="345" y="880" name="topright_1"/>
  <anchor x="888" y="760" name="topright_2"/>
  <outline>
    <contour>
      <point x="-117" y="-85" type="line"/>
      <point x="31" y="-85" type="line"/>
      <point x="890" y="760" type="line"/>
      <point x="742" y="760" type="line"/>
    </contour>
    <component base="t"/>
    <component base="h" xOffset="342"/>
  </outline>
</glyph>
<glyph name="uni1D7B" format="2">
  <advance width="351"/>
  <unicode hex="1D7B"/>
  <anchor x="120" y="0" name="bottom"/>
  <anchor x="232" y="530" name="top"/>
  <outline>
    <contour>
      <point x="36" y="217" type="line"/>
      <point x="288" y="217" type="line"/>
      <point x="315" y="343" type="line"/>
      <point x="63" y="343" type="line"/>
    </contour>
    <component base="uni026A"/>
  </outline>
</glyph>
<glyph name="uni1D7D" format="2">
  <advance width="487"/>
  <unicode hex="1D7D"/>
  <anchor x="137" y="-240" name="bottom"/>
  <anchor x="300" y="530" name="top"/>
  <anchor x="523" y="530" name="topright"/>
  <outline>
    <contour>
      <point x="-12" y="217" type="line"/>
      <point x="479" y="217" type="line"/>
      <point x="506" y="343" type="line"/>
      <point x="15" y="343" type="line"/>
    </contour>
    <component base="p"/>
  </outline>
</glyph>
<glyph name="uni1D7F" format="2">
  <advance width="502"/>
  <unicode hex="1D7F"/>
  <anchor x="195" y="0" name="bottom"/>
  <anchor x="307" y="530" name="top"/>
  <outline>
    <contour>
      <point x="-12" y="217" type="line"/>
      <point x="492" y="217" type="line"/>
      <point x="519" y="343" type="line"/>
      <point x="15" y="343" type="line"/>
    </contour>
    <component base="uni028A"/>
  </outline>
</glyph>
<glyph name="macronacutecomb" format="2">
  <unicode hex="1DC4"/>
  <anchor x="58" y="530" name="_top"/>
  <anchor x="90" y="750" name="top"/>
  <outline>
    <contour>
      <point x="-42" y="591" type="line"/>
      <point x="101" y="591" type="line"/>
      <point x="218" y="668" type="line"/>
      <point x="164" y="750" type="line"/>
      <point x="72" y="689" type="line"/>
      <point x="-42" y="689" type="line"/>
    </contour>
  </outline>
</glyph>
<glyph name="gravemacron" format="2">
  <unicode hex="1DC5"/>
  <anchor x="62" y="553" name="_top"/>
  <anchor x="-4" y="757" name="top"/>
  <outline>
    <contour>
      <point x="64" y="591" type="line"/>
      <point x="207" y="591" type="line"/>
      <point x="207" y="689" type="line"/>
      <point x="93" y="689" type="line"/>
      <point x="1" y="750" type="line"/>
      <point x="-53" y="668" type="line"/>
    </contour>
  </outline>
</glyph>
<glyph name="acutegraveacute" format="2">
  <unicode hex="1DC9"/>
  <anchor x="0" y="553" name="_top"/>
  <anchor x="2" y="753" name="top"/>
  <outline>
    <contour>
      <point x="139" y="580" type="line"/>
      <point x="263" y="661" type="line"/>
      <point x="211" y="736" type="line"/>
      <point x="133" y="685" type="line"/>
      <point x="20" y="751" type="line"/>
      <point x="-104" y="670" type="line"/>
      <point x="-53" y="595" type="line"/>
      <point x="26" y="646" type="line"/>
    </contour>
  </outline>
</glyph>
<glyph name="ogonekabove" format="2">
  <unicode hex="1DCE"/>
  <anchor x="-121" y="530" name="_top"/>
  <anchor x="-91" y="790" name="top"/>
  <outline>
    <contour>
      <point x="-114" y="534" type="line"/>
      <point x="-44" y="584"/>
      <point x="6" y="641"/>
      <point x="6" y="707" type="curve" smooth="yes"/>
      <point x="6" y="755"/>
      <point x="-25" y="790"/>
      <point x="-89" y="790" type="curve" smooth="yes"/>
      <point x="-114" y="790"/>
      <point x="-139" y="789"/>
      <point x="-166" y="779" type="curve"/>
      <point x="-188" y="673" type="line"/>
      <point x="-171" y="677"/>
      <point x="-154" y="680"/>
      <point x="-144" y="680" type="curve" smooth="yes"/>
      <point x="-135" y="680"/>
      <point x="-126" y="674"/>
      <point x="-126" y="662" type="curve" smooth="yes"/>
      <point x="-128" y="630"/>
      <point x="-145" y="599"/>
      <point x="-192" y="550" type="curve"/>
    </contour>
  </outline>
</glyph>
<glyph name="uni1DFC" format="2">
  <unicode hex="1DFC"/>
  <anchor x="-54" y="22" name="_bottom"/>
  <outline>
    <contour>
      <point x="-374" y="-217" type="curve"/>
      <point x="-279" y="-217" type="line"/>
      <point x="-269" y="-166"/>
      <point x="-194" y="-150"/>
      <point x="-99" y="-150" type="curve" smooth="yes"/>
      <point x="-17" y="-150"/>
      <point x="69" y="-165"/>
      <point x="79" y="-217" type="curve"/>
      <point x="174" y="-217" type="line"/>
      <point x="164" y="-96"/>
      <point x="61" y="-38"/>
      <point x="-99" y="-38" type="curve" smooth="yes"/>
      <point x="-267" y="-38"/>
      <point x="-364" y="-96"/>
    </contour>
  </outline>
</glyph>
<glyph name="uni1E10" format="2">
  <advance width="543"/>
  <unicode hex="1E10"/>
  <anchor x="169" y="-240" name="bottom"/>
  <anchor x="367" y="714" name="top"/>
  <anchor x="309" y="357" name="center"/>
  <anchor x="618" y="714" name="topright"/>
  <outline>
    <contour>
      <point x="166" y="-240" type="curve" smooth="yes"/>
      <point x="242" y="-240"/>
      <point x="305" y="-209"/>
      <point x="305" y="-115" type="curve" smooth="yes"/>
      <point x="305" y="-67"/>
      <point x="274" y="-40"/>
      <point x="234" y="-34" type="curve"/>
      <point x="272" y="31" type="line"/>
      <point x="196" y="31" type="line"/>
      <point x="129" y="-83" type="line"/>
      <point x="162" y="-83"/>
      <point x="180" y="-96"/>
      <point x="180" y="-115" type="curve" smooth="yes"/>
      <point x="180" y="-138"/>
      <point x="166" y="-149"/>
      <point x="140" y="-149" type="curve" smooth="yes"/>
      <point x="121" y="-149"/>
      <point x="100" y="-145"/>
      <point x="84" y="-141" type="curve"/>
      <point x="84" y="-229" type="line"/>
      <point x="111" y="-238"/>
      <point x="138" y="-240"/>
    </contour>
    <component base="D"/>
  </outline>
</glyph>
<glyph name="LL-middleWelsh" format="2">
  <advance width="674"/>
  <unicode hex="1EFA"/>
  <anchor x="418" y="0" name="bottom"/>
  <anchor x="569" y="714" name="top"/>
  <anchor x="511" y="357" name="center"/>
  <anchor x="713" y="714" name="topright"/>
  <outline>
    <contour>
      <point x="-4" y="0" type="line"/>
      <point x="163" y="0" type="line"/>
      <point x="313" y="714" type="line"/>
      <point x="146" y="714" type="line"/>
    </contour>
    <component base="L" xOffset="274"/>
  </outline>
</glyph>
<glyph name="ll-middleWelsh" format="2">
  <advance width="500"/>
  <unicode hex="1EFB"/>
  <anchor x="69" y="0" name="bottom"/>
  <anchor x="230" y="760" name="top"/>
  <anchor x="431" y="265" name="center_1"/>
  <anchor x="181" y="265" name="center_2"/>
  <anchor x="585" y="760" name="topright_1"/>
  <anchor x="335" y="760" name="topright_2"/>
  <outline>
    <contour>
      <point x="68" y="580" type="line"/>
      <point x="566" y="580" type="line"/>
      <point x="582" y="657" type="line"/>
      <point x="84" y="657" type="line"/>
    </contour>
    <component base="l" xOffset="250"/>
    <component base="l"/>
  </outline>
</glyph>
<glyph name="uni1FCD" format="2">
  <advance width="430"/>
  <unicode hex="1FCD"/>
  <anchor x="247" y="530" name="_top"/>
  <anchor x="284" y="780" name="top"/>
  <outline>
    <contour>
      <point x="133" y="605" type="line"/>
      <point x="220" y="605"/>
      <point x="280" y="656"/>
      <point x="280" y="711" type="curve" smooth="yes"/>
      <point x="280" y="759"/>
      <point x="257" y="780"/>
      <point x="216" y="780" type="curve" smooth="yes"/>
      <point x="175" y="780"/>
      <point x="152" y="756"/>
      <point x="152" y="725" type="curve" smooth="yes"/>
      <point x="152" y="698"/>
      <point x="171" y="684"/>
      <point x="192" y="683" type="curve"/>
      <point x="186" y="655"/>
      <point x="160" y="649"/>
      <point x="142" y="646" type="curve"/>
    </contour>
    <contour>
      <point x="350" y="611" type="curve"/>
      <point x="428" y="611" type="line"/>
      <point x="430" y="623" type="line"/>
      <point x="430" y="646"/>
      <point x="429" y="735"/>
      <point x="429" y="770" type="curve"/>
      <point x="300" y="770" type="line"/>
      <point x="298" y="760" type="line"/>
      <point x="306" y="717"/>
      <point x="331" y="651"/>
    </contour>
  </outline>
</glyph>
<glyph name="uni1FCE" format="2">
  <advance width="430"/>
  <unicode hex="1FCE"/>
  <outline>
    <contour>
      <point x="288" y="623" type="curve"/>
      <point x="288" y="611" type="line"/>
      <point x="365" y="611" type="line"/>
      <point x="399" y="651"/>
      <point x="452" y="717"/>
      <point x="478" y="760" type="curve"/>
      <point x="478" y="770" type="line"/>
      <point x="349" y="770" type="line"/>
      <point x="331" y="720"/>
      <point x="302" y="656"/>
    </contour>
    <contour>
      <point x="152" y="646" type="curve"/>
      <point x="143" y="605" type="line"/>
      <point x="230" y="605"/>
      <point x="290" y="656"/>
      <point x="290" y="711" type="curve" smooth="yes"/>
      <point x="290" y="759"/>
      <point x="267" y="780"/>
      <point x="226" y="780" type="curve" smooth="yes"/>
      <point x="185" y="780"/>
      <point x="162" y="756"/>
      <point x="162" y="725" type="curve" smooth="yes"/>
      <point x="162" y="698"/>
      <point x="185" y="684"/>
      <point x="202" y="683" type="curve"/>
      <point x="196" y="655"/>
      <point x="170" y="649"/>
    </contour>
  </outline>
</glyph>
<glyph name="uni1FCF" format="2">
  <advance width="430"/>
  <unicode hex="1FCF"/>
  <outline>
    <contour>
      <point x="178" y="801" type="curve"/>
      <point x="231" y="801" type="line"/>
      <point x="237" y="826"/>
      <point x="251" y="832"/>
      <point x="267" y="832" type="curve" smooth="yes"/>
      <point x="298" y="832"/>
      <point x="316" y="802"/>
      <point x="363" y="802" type="curve" smooth="yes"/>
      <point x="406" y="802"/>
      <point x="439" y="836"/>
      <point x="454" y="911" type="curve"/>
      <point x="400" y="911" type="line"/>
      <point x="392" y="885"/>
      <point x="381" y="880"/>
      <point x="363" y="880" type="curve" smooth="yes"/>
      <point x="335" y="880"/>
      <point x="308" y="910"/>
      <point x="267" y="910" type="curve" smooth="yes"/>
      <point x="222" y="910"/>
      <point x="196" y="884"/>
    </contour>
    <contour>
      <point x="222" y="647" type="curve"/>
      <point x="213" y="606" type="line"/>
      <point x="310" y="606"/>
      <point x="360" y="656"/>
      <point x="360" y="711" type="curve" smooth="yes"/>
      <point x="360" y="759"/>
      <point x="337" y="780"/>
      <point x="296" y="780" type="curve" smooth="yes"/>
      <point x="255" y="780"/>
      <point x="232" y="756"/>
      <point x="232" y="725" type="curve" smooth="yes"/>
      <point x="232" y="698"/>
      <point x="251" y="685"/>
      <point x="272" y="683" type="curve"/>
      <point x="266" y="655"/>
      <point x="240" y="650"/>
    </contour>
  </outline>
</glyph>
<glyph name="uni1FDD" format="2">
  <advance width="430"/>
  <unicode hex="1FDD"/>
  <outline>
    <contour>
      <point x="235" y="606" type="curve"/>
      <point x="244" y="650" type="line"/>
      <point x="222" y="653"/>
      <point x="202" y="659"/>
      <point x="202" y="677" type="curve" smooth="yes"/>
      <point x="202" y="679"/>
      <point x="202" y="682"/>
      <point x="203" y="684" type="curve"/>
      <point x="229" y="685"/>
      <point x="256" y="705"/>
      <point x="256" y="733" type="curve" smooth="yes"/>
      <point x="256" y="755"/>
      <point x="246" y="780"/>
      <point x="204" y="780" type="curve" smooth="yes"/>
      <point x="161" y="780"/>
      <point x="134" y="736"/>
      <point x="134" y="700" type="curve" smooth="yes"/>
      <point x="134" y="644"/>
      <point x="169" y="605"/>
    </contour>
    <contour>
      <point x="325" y="611" type="curve"/>
      <point x="403" y="611" type="line"/>
      <point x="405" y="623" type="line"/>
      <point x="402" y="690"/>
      <point x="403" y="752"/>
      <point x="404" y="770" type="curve"/>
      <point x="275" y="770" type="line"/>
      <point x="273" y="760" type="line"/>
      <point x="281" y="717"/>
      <point x="306" y="651"/>
    </contour>
  </outline>
</glyph>
<glyph name="uni1FDE" format="2">
  <advance width="430"/>
  <unicode hex="1FDE"/>
  <anchor x="270" y="530" name="_top"/>
  <anchor x="307" y="780" name="top"/>
  <outline>
    <contour>
      <point x="270" y="611" type="line"/>
      <point x="347" y="611" type="line"/>
      <point x="381" y="651"/>
      <point x="434" y="717"/>
      <point x="460" y="760" type="curve"/>
      <point x="460" y="770" type="line"/>
      <point x="331" y="770" type="line"/>
      <point x="313" y="720"/>
      <point x="284" y="656"/>
      <point x="270" y="623" type="curve"/>
    </contour>
    <contour>
      <point x="251" y="606" type="curve"/>
      <point x="260" y="650" type="line"/>
      <point x="236" y="653"/>
      <point x="218" y="659"/>
      <point x="218" y="678" type="curve" smooth="yes"/>
      <point x="218" y="680"/>
      <point x="219" y="682"/>
      <point x="219" y="684" type="curve"/>
      <point x="253" y="685"/>
      <point x="273" y="711"/>
      <point x="273" y="743" type="curve" smooth="yes"/>
      <point x="273" y="766"/>
      <point x="258" y="780"/>
      <point x="225" y="780" type="curve" smooth="yes"/>
      <point x="176" y="780"/>
      <point x="149" y="733"/>
      <point x="149" y="695" type="curve" smooth="yes"/>
      <point x="149" y="645"/>
      <point x="184" y="605"/>
    </contour>
  </outline>
</glyph>
<glyph name="uni1FED" format="2">
  <advance width="430"/>
  <unicode hex="1FED"/>
  <anchor x="269" y="530" name="_top"/>
  <outline>
    <contour>
      <point x="281" y="611" type="curve"/>
      <point x="359" y="611" type="line"/>
      <point x="362" y="625" type="line"/>
      <point x="360" y="651"/>
      <point x="360" y="741"/>
      <point x="360" y="776" type="curve"/>
      <point x="231" y="776" type="line"/>
      <point x="229" y="766" type="line"/>
      <point x="238" y="725"/>
      <point x="265" y="648"/>
    </contour>
    <contour>
      <point x="129" y="600" type="curve" smooth="yes"/>
      <point x="171" y="600"/>
      <point x="209" y="633"/>
      <point x="209" y="692" type="curve" smooth="yes"/>
      <point x="209" y="727"/>
      <point x="189" y="747"/>
      <point x="156" y="747" type="curve" smooth="yes"/>
      <point x="100" y="747"/>
      <point x="71" y="706"/>
      <point x="71" y="656" type="curve" smooth="yes"/>
      <point x="71" y="619"/>
      <point x="91" y="600"/>
    </contour>
    <contour>
      <point x="455" y="600" type="curve" smooth="yes"/>
      <point x="497" y="600"/>
      <point x="535" y="633"/>
      <point x="535" y="692" type="curve" smooth="yes"/>
      <point x="535" y="727"/>
      <point x="515" y="747"/>
      <point x="482" y="747" type="curve" smooth="yes"/>
      <point x="427" y="747"/>
      <point x="398" y="706"/>
      <point x="398" y="656" type="curve" smooth="yes"/>
      <point x="398" y="619"/>
      <point x="418" y="600"/>
    </contour>
  </outline>
</glyph>
<glyph name="uni1FEE" format="2">
  <advance width="468"/>
  <unicode hex="1FEE"/>
  <outline>
    <contour>
      <point x="243" y="625" type="curve"/>
      <point x="240" y="611" type="line"/>
      <point x="319" y="611" type="line"/>
      <point x="348" y="648"/>
      <point x="396" y="725"/>
      <point x="421" y="766" type="curve"/>
      <point x="423" y="776" type="line"/>
      <point x="294" y="776" type="line"/>
      <point x="289" y="751"/>
      <point x="254" y="654"/>
    </contour>
    <contour>
      <point x="145" y="600" type="curve" smooth="yes"/>
      <point x="187" y="600"/>
      <point x="225" y="633"/>
      <point x="225" y="692" type="curve" smooth="yes"/>
      <point x="225" y="727"/>
      <point x="205" y="747"/>
      <point x="172" y="747" type="curve" smooth="yes"/>
      <point x="116" y="747"/>
      <point x="87" y="706"/>
      <point x="87" y="656" type="curve" smooth="yes"/>
      <point x="87" y="619"/>
      <point x="107" y="600"/>
    </contour>
    <contour>
      <point x="471" y="600" type="curve" smooth="yes"/>
      <point x="513" y="600"/>
      <point x="551" y="633"/>
      <point x="551" y="692" type="curve" smooth="yes"/>
      <point x="551" y="727"/>
      <point x="531" y="747"/>
      <point x="498" y="747" type="curve" smooth="yes"/>
      <point x="443" y="747"/>
      <point x="414" y="706"/>
      <point x="414" y="656" type="curve" smooth="yes"/>
      <point x="414" y="619"/>
      <point x="434" y="600"/>
    </contour>
  </outline>
</glyph>
<glyph name="uni1FEF" format="2">
  <advance width="430"/>
  <unicode hex="1FEF"/>
  <anchor x="234" y="530" name="_top"/>
  <anchor x="273" y="782" name="top"/>
  <outline>
    <contour>
      <point x="251" y="617" type="curve"/>
      <point x="339" y="617" type="line"/>
      <point x="342" y="631" type="line"/>
      <point x="340" y="657"/>
      <point x="340" y="747"/>
      <point x="340" y="782" type="curve"/>
      <point x="201" y="782" type="line"/>
      <point x="199" y="772" type="line"/>
      <point x="208" y="731"/>
      <point x="235" y="654"/>
    </contour>
  </outline>
</glyph>
<glyph name="uni1FFD" format="2">
  <advance width="430"/>
  <unicode hex="1FFD"/>
  <anchor x="286" y="530" name="_top"/>
  <anchor x="323" y="776" name="top"/>
  <outline>
    <contour>
      <point x="224" y="611" type="line"/>
      <point x="313" y="611" type="line"/>
      <point x="342" y="648"/>
      <point x="390" y="725"/>
      <point x="415" y="766" type="curve"/>
      <point x="417" y="776" type="line"/>
      <point x="278" y="776" type="line"/>
      <point x="273" y="751"/>
      <point x="238" y="654"/>
      <point x="227" y="625" type="curve"/>
    </contour>
  </outline>
</glyph>
<glyph name="uni1FFE" format="2">
  <advance width="430"/>
  <unicode hex="1FFE"/>
  <anchor x="250" y="530" name="_top"/>
  <anchor x="287" y="780" name="top"/>
  <outline>
    <contour>
      <point x="325" y="606" type="curve"/>
      <point x="334" y="650" type="line"/>
      <point x="312" y="653"/>
      <point x="292" y="659"/>
      <point x="292" y="677" type="curve" smooth="yes"/>
      <point x="292" y="679"/>
      <point x="292" y="682"/>
      <point x="293" y="684" type="curve"/>
      <point x="319" y="685"/>
      <point x="346" y="705"/>
      <point x="346" y="733" type="curve" smooth="yes"/>
      <point x="346" y="755"/>
      <point x="336" y="780"/>
      <point x="294" y="780" type="curve" smooth="yes"/>
      <point x="251" y="780"/>
      <point x="224" y="736"/>
      <point x="224" y="700" type="curve" smooth="yes"/>
      <point x="224" y="644"/>
      <point x="259" y="605"/>
    </contour>
  </outline>
</glyph>
<glyph name="uni2012" format="2">
  <advance width="474"/>
  <unicode hex="2012"/>
  <outline>
    <contour>
      <point x="26" y="289" type="line"/>
      <point x="453" y="289" type="line"/>
      <point x="482" y="424" type="line"/>
      <point x="55" y="424" type="line"/>
    </contour>
  </outline>
</glyph>
<glyph name="emdash" format="2">
  <advance width="916"/>
  <unicode hex="2014"/>
  <outline>
    <contour>
      <point x="11" y="202" type="line"/>
      <point x="874" y="202" type="line"/>
      <point x="903" y="337" type="line"/>
      <point x="40" y="337" type="line"/>
    </contour>
  </outline>
</glyph>
<glyph name="underscoredbl" format="2">
  <advance width="465"/>
  <unicode hex="2017"/>
  <outline>
    <contour>
      <point x="-84" y="-115" type="line"/>
      <point x="383" y="-115" type="line"/>
      <point x="400" y="-35" type="line"/>
      <point x="-67" y="-35" type="line"/>
    </contour>
    <contour>
      <point x="-110" y="-239" type="line"/>
      <point x="357" y="-239" type="line"/>
      <point x="374" y="-159" type="line"/>
      <point x="-93" y="-159" type="line"/>
    </contour>
  </outline>
</glyph>
<glyph name="quoteright" format="2">
  <advance width="260"/>
  <unicode hex="2019"/>
  <outline>
    <contour>
      <point x="66" y="429" type="curve"/>
      <point x="199" y="429" type="line"/>
      <point x="241" y="504"/>
      <point x="281" y="596"/>
      <point x="317" y="704" type="curve"/>
      <point x="315" y="714" type="line"/>
      <point x="159" y="714" type="line"/>
      <point x="131" y="613"/>
      <point x="100" y="520"/>
    </contour>
  </outline>
</glyph>
<glyph name="uni2023" format="2">
  <advance width="461"/>
  <unicode hex="2023"/>
  <outline>
    <contour>
      <point x="24" y="134" type="line"/>
      <point x="472" y="373" type="line"/>
      <point x="126" y="611" type="line"/>
    </contour>
  </outline>
</glyph>
<glyph name="minute" format="2">
  <advance width="241"/>
  <unicode hex="2032"/>
  <outline>
    <contour>
      <point x="32" y="456" type="line"/>
      <point x="166" y="456" type="line"/>
      <point x="338" y="714" type="line"/>
      <point x="169" y="714" type="line"/>
    </contour>
  </outline>
</glyph>
<glyph name="caretinsertionpoint" format="2">
  <advance width="465"/>
  <unicode hex="2041"/>
  <outline>
    <contour>
      <point x="-122" y="-240" type="line"/>
      <point x="26" y="-240" type="line"/>
      <point x="353" y="402" type="line"/>
      <point x="205" y="402" type="line"/>
    </contour>
    <contour>
      <point x="226" y="-240" type="line"/>
      <point x="368" y="-240" type="line"/>
      <point x="262" y="259" type="line"/>
      <point x="149" y="234" type="line"/>
      <point x="160" y="81" type="line"/>
    </contour>
  </outline>
</glyph>
<glyph name="hyphenbullet" format="2">
  <advance width="307"/>
  <unicode hex="2043"/>
  <outline>
    <contour>
      <point x="9" y="192" type="line"/>
      <point x="263" y="192" type="line"/>
      <point x="296" y="344" type="line"/>
      <point x="41" y="344" type="line"/>
    </contour>
  </outline>
</glyph>
<glyph name="bracketleftwithquill" format="2">
  <advance width="287"/>
  <unicode hex="2045"/>
  <outline>
    <contour>
      <point x="41" y="236" type="line"/>
      <point x="265" y="236" type="line"/>
      <point x="291" y="360" type="line"/>
      <point x="67" y="360" type="line"/>
    </contour>
    <component base="bracketleft"/>
  </outline>
</glyph>
<glyph name="parenleftsuperior" format="2">
  <advance width="221"/>
  <unicode hex="207D"/>
  <outline>
    <contour>
      <point x="111" y="207" type="curve"/>
      <point x="194" y="207" type="line"/>
      <point x="176" y="264"/>
      <point x="166" y="339"/>
      <point x="166" y="399" type="curve" smooth="yes"/>
      <point x="166" y="555"/>
      <point x="231" y="676"/>
      <point x="316" y="776" type="curve"/>
      <point x="225" y="776" type="line"/>
      <point x="126" y="667"/>
      <point x="74" y="550"/>
      <point x="74" y="406" type="curve" smooth="yes"/>
      <point x="74" y="337"/>
      <point x="87" y="259"/>
    </contour>
  </outline>
</glyph>
<glyph name="parenrightsuperior" format="2">
  <advance width="220"/>
  <unicode hex="207E"/>
  <outline>
    <contour>
      <point x="-2" y="207" type="curve"/>
      <point x="89" y="207" type="line"/>
      <point x="188" y="317"/>
      <point x="238" y="434"/>
      <point x="238" y="579" type="curve" smooth="yes"/>
      <point x="238" y="649"/>
      <point x="226" y="722"/>
      <point x="200" y="776" type="curve"/>
      <point x="117" y="776" type="line"/>
      <point x="135" y="720"/>
      <point x="146" y="644"/>
      <point x="146" y="582" type="curve" smooth="yes"/>
      <point x="146" y="429"/>
      <point x="84" y="308"/>
    </contour>
  </outline>
</glyph>
<glyph name="uni20A5" format="2">
  <advance width="725"/>
  <unicode hex="20A5"/>
  <anchor x="307" y="0" name="bottom"/>
  <anchor x="419" y="553" name="top"/>
  <anchor x="761" y="553" name="topright"/>
  <outline>
    <contour>
      <point x="114" y="-110" type="line"/>
      <point x="183" y="-110" type="line"/>
      <point x="591" y="666" type="line"/>
      <point x="522" y="666" type="line"/>
    </contour>
    <component base="m"/>
  </outline>
</glyph>
<glyph name="uni20A9" format="2">
  <advance width="744"/>
  <unicode hex="20A9"/>
  <outline>
    <contour>
      <point x="66" y="0" type="line"/>
      <point x="253" y="0" type="line"/>
      <point x="339" y="248" type="line"/>
      <point x="409" y="248" type="line"/>
      <point x="402" y="0" type="line"/>
      <point x="585" y="0" type="line"/>
      <point x="673" y="248" type="line"/>
      <point x="742" y="248" type="line"/>
      <point x="760" y="333" type="line"/>
      <point x="703" y="333" type="line"/>
      <point x="721" y="385" type="line"/>
      <point x="770" y="385" type="line"/>
      <point x="788" y="470" type="line"/>
      <point x="751" y="470" type="line"/>
      <point x="837" y="714" type="line"/>
      <point x="669" y="714" type="line"/>
      <point x="594" y="470" type="line"/>
      <point x="525" y="470" type="line"/>
      <point x="532" y="714" type="line"/>
      <point x="396" y="714" type="line"/>
      <point x="307" y="470" type="line"/>
      <point x="233" y="470" type="line"/>
      <point x="244" y="714" type="line"/>
      <point x="93" y="714" type="line"/>
      <point x="84" y="470" type="line"/>
      <point x="48" y="470" type="line"/>
      <point x="30" y="385" type="line"/>
      <point x="81" y="385" type="line"/>
      <point x="79" y="333" type="line"/>
      <point x="20" y="333" type="line"/>
      <point x="2" y="248" type="line"/>
      <point x="75" y="248" type="line"/>
    </contour>
    <contour>
      <point x="211" y="195" type="line"/>
      <point x="219" y="248" type="line"/>
      <point x="229" y="248" type="line"/>
    </contour>
    <contour>
      <point x="227" y="333" type="line"/>
      <point x="229" y="385" type="line"/>
      <point x="276" y="385" type="line"/>
      <point x="257" y="333" type="line"/>
    </contour>
    <contour>
      <point x="513" y="192" type="line"/>
      <point x="517" y="248" type="line"/>
      <point x="527" y="248" type="line"/>
    </contour>
    <contour>
      <point x="368" y="333" type="line"/>
      <point x="386" y="385" type="line"/>
      <point x="412" y="385" type="line"/>
      <point x="411" y="333" type="line"/>
    </contour>
    <contour>
      <point x="521" y="333" type="line"/>
      <point x="523" y="385" type="line"/>
      <point x="567" y="385" type="line"/>
      <point x="551" y="333" type="line"/>
    </contour>
    <contour>
      <point x="408" y="470" type="line"/>
      <point x="421" y="521" type="line"/>
      <point x="416" y="470" type="line"/>
    </contour>
  </outline>
</glyph>
<glyph name="NDoubleStruck" format="2">
  <advance width="778"/>
  <unicode hex="2115"/>
  <outline>
    <contour>
      <point x="39" y="0" type="line"/>
      <point x="92" y="0" type="line"/>
      <point x="92" y="491" type="line"/>
      <point x="546" y="0" type="line"/>
      <point x="623" y="0" type="line"/>
      <point x="623" y="714" type="line"/>
      <point x="570" y="714" type="line"/>
      <point x="570" y="224" type="line"/>
      <point x="115" y="714" type="line"/>
      <point x="39" y="714" type="line"/>
    </contour>
    <contour>
      <point x="570" y="53" type="line"/>
      <point x="92" y="562" type="line"/>
      <point x="92" y="661" type="line"/>
      <point x="570" y="151" type="line"/>
    </contour>
  </outline>
</glyph>
<glyph name="versicle" format="2">
  <advance width="519"/>
  <unicode hex="2123"/>
  <anchor x="204" y="0" name="bottom"/>
  <anchor x="355" y="714" name="top"/>
  <anchor x="594" y="714" name="topright"/>
  <outline>
    <contour>
      <point x="81" y="-145" type="line"/>
      <point x="150" y="-145" type="line"/>
      <point x="413" y="798" type="line"/>
      <point x="180" y="859" type="line"/>
      <point x="164" y="797" type="line"/>
      <point x="334" y="757" type="line"/>
    </contour>
    <component base="V"/>
  </outline>
</glyph>
<glyph name="ZDoubleStruck" format="2">
  <advance width="630"/>
  <unicode hex="2124"/>
  <outline>
    <contour>
      <point x="-20" y="0" type="line"/>
      <point x="523" y="0" type="line"/>
      <point x="523" y="53" type="line"/>
      <point x="174" y="53" type="line"/>
      <point x="533" y="661" type="line"/>
      <point x="533" y="714" type="line"/>
      <point x="12" y="714" type="line"/>
      <point x="12" y="661" type="line"/>
      <point x="346" y="661" type="line"/>
      <point x="-20" y="53" type="line"/>
    </contour>
    <contour>
      <point x="40" y="53" type="line"/>
      <point x="404" y="661" type="line"/>
      <point x="475" y="661" type="line"/>
      <point x="113" y="53" type="line"/>
    </contour>
  </outline>
</glyph>
<glyph name="Escript" format="2">
  <advance width="603"/>
  <unicode hex="2130"/>
  <outline>
    <contour>
      <point x="168" y="-7" type="curve" smooth="yes"/>
      <point x="294" y="-7"/>
      <point x="412" y="87"/>
      <point x="412" y="208" type="curve" smooth="yes"/>
      <point x="412" y="236"/>
      <point x="402" y="302"/>
      <point x="329" y="302" type="curve" smooth="yes"/>
      <point x="249" y="302"/>
      <point x="189" y="235"/>
      <point x="189" y="156" type="curve" smooth="yes"/>
      <point x="189" y="132"/>
      <point x="190" y="108"/>
      <point x="195" y="84" type="curve"/>
      <point x="213" y="88" type="line"/>
      <point x="200" y="193"/>
      <point x="272" y="284"/>
      <point x="331" y="284" type="curve" smooth="yes"/>
      <point x="367" y="284"/>
      <point x="394" y="257"/>
      <point x="394" y="208" type="curve" smooth="yes"/>
      <point x="394" y="100"/>
      <point x="282" y="11"/>
      <point x="176" y="11" type="curve" smooth="yes"/>
      <point x="148" y="11"/>
      <point x="65" y="9"/>
      <point x="65" y="135" type="curve" smooth="yes"/>
      <point x="65" y="259"/>
      <point x="152" y="387"/>
      <point x="246" y="415" type="curve"/>
      <point x="274" y="387"/>
      <point x="317" y="374"/>
      <point x="343" y="374" type="curve" smooth="yes"/>
      <point x="345" y="374"/>
      <point x="388" y="371"/>
      <point x="388" y="400" type="curve" smooth="yes"/>
      <point x="388" y="430"/>
      <point x="326" y="441"/>
      <point x="273" y="443" type="curve"/>
      <point x="269" y="454"/>
      <point x="267" y="466"/>
      <point x="267" y="483" type="curve" smooth="yes"/>
      <point x="267" y="616"/>
      <point x="338" y="701"/>
      <point x="432" y="701" type="curve" smooth="yes"/>
      <point x="471" y="701"/>
      <point x="531" y="672"/>
      <point x="531" y="584" type="curve" smooth="yes"/>
      <point x="531" y="516"/>
      <point x="493" y="478"/>
      <point x="448" y="478" type="curve" smooth="yes"/>
      <point x="443" y="478"/>
      <point x="403" y="477"/>
      <point x="403" y="531" type="curve" smooth="yes"/>
      <point x="403" y="585"/>
      <point x="463" y="627"/>
      <point x="461" y="627" type="curve"/>
      <point x="456" y="637" type="line"/>
      <point x="396" y="613"/>
      <point x="376" y="569"/>
      <point x="376" y="530" type="curve" smooth="yes"/>
      <point x="376" y="491"/>
      <point x="401" y="460"/>
      <point x="446" y="460" type="curve" smooth="yes"/>
      <point x="520" y="460"/>
      <point x="555" y="535"/>
      <point x="555" y="582" type="curve" smooth="yes"/>
      <point x="555" y="636"/>
      <point x="527" y="728"/>
      <point x="400" y="728" type="curve" smooth="yes"/>
      <point x="273" y="728"/>
      <point x="182" y="640"/>
      <point x="177" y="557" type="curve" smooth="yes"/>
      <point x="173" y="497"/>
      <point x="202" y="457"/>
      <point x="219" y="440" type="curve"/>
      <point x="85" y="421"/>
      <point x="-30" y="318"/>
      <point x="-30" y="196" type="curve" smooth="yes"/>
      <point x="-30" y="78"/>
      <point x="46" y="-7"/>
    </contour>
    <contour>
      <point x="338" y="390" type="curve" smooth="yes"/>
      <point x="323" y="392"/>
      <point x="298" y="402"/>
      <point x="283" y="423" type="curve"/>
      <point x="293" y="425"/>
      <point x="310" y="424"/>
      <point x="322" y="422" type="curve" smooth="yes"/>
      <point x="337" y="420"/>
      <point x="370" y="411"/>
      <point x="370" y="400" type="curve" smooth="yes"/>
      <point x="370" y="389"/>
      <point x="352" y="388"/>
    </contour>
  </outline>
</glyph>
<glyph name="betsymbol" format="2">
  <advance width="472"/>
  <unicode hex="2136"/>
  <outline>
    <contour>
      <point x="13" y="0" type="line"/>
      <point x="461" y="0" type="line"/>
      <point x="461" y="121" type="line"/>
      <point x="396" y="121" type="line"/>
      <point x="396" y="293" type="line"/>
      <point x="396" y="503"/>
      <point x="329" y="585"/>
      <point x="153" y="585" type="curve"/>
      <point x="32" y="585" type="line"/>
      <point x="32" y="467" type="line"/>
      <point x="152" y="467" type="line"/>
      <point x="214" y="467"/>
      <point x="252" y="416"/>
      <point x="252" y="312" type="curve"/>
      <point x="252" y="121" type="line"/>
      <point x="13" y="121" type="line"/>
    </contour>
  </outline>
</glyph>
<glyph name="daletsymbol" format="2">
  <advance width="452"/>
  <unicode hex="2138"/>
  <outline>
    <contour>
      <point x="247" y="0" type="line"/>
      <point x="390" y="0" type="line"/>
      <point x="390" y="464" type="line"/>
      <point x="456" y="464" type="line"/>
      <point x="456" y="585" type="line"/>
      <point x="2" y="585" type="line"/>
      <point x="2" y="464" type="line"/>
      <point x="247" y="464" type="line"/>
    </contour>
  </outline>
</glyph>
<glyph name="uni2C63" format="2">
  <advance width="502"/>
  <unicode hex="2C63"/>
  <anchor x="195" y="0" name="bottom"/>
  <anchor x="346" y="714" name="top"/>
  <outline>
    <contour>
      <point x="-5" y="0" type="line"/>
      <point x="162" y="0" type="line"/>
      <point x="212" y="237" type="line"/>
      <point x="271" y="237" type="line" smooth="yes"/>
      <point x="457" y="237"/>
      <point x="532" y="406"/>
      <point x="532" y="543" type="curve" smooth="yes"/>
      <point x="532" y="645"/>
      <point x="477" y="714"/>
      <point x="341" y="714" type="curve" smooth="yes"/>
      <point x="146" y="714" type="line"/>
      <point x="108" y="535" type="line"/>
      <point x="56" y="535" type="line"/>
      <point x="32" y="420" type="line"/>
      <point x="84" y="420" type="line"/>
    </contour>
    <contour>
      <point x="242" y="381" type="line"/>
      <point x="250" y="420" type="line"/>
      <point x="303" y="420" type="line"/>
      <point x="327" y="535" type="line"/>
      <point x="275" y="535" type="line"/>
      <point x="283" y="570" type="line"/>
      <point x="312" y="570" type="line" smooth="yes"/>
      <point x="344" y="570"/>
      <point x="360" y="560"/>
      <point x="360" y="521" type="curve" smooth="yes"/>
      <point x="360" y="439"/>
      <point x="327" y="381"/>
      <point x="274" y="381" type="curve" smooth="yes"/>
    </contour>
  </outline>
</glyph>
<glyph name="uni2C66" format="2">
  <advance width="342"/>
  <unicode hex="2C66"/>
  <anchor x="71" y="-208" name="bottom"/>
  <anchor x="275" y="760" name="top"/>
  <anchor x="157" y="265" name="center"/>
  <anchor x="345" y="880" name="topright"/>
  <outline>
    <contour>
      <point x="60" y="-208" type="line"/>
      <point x="114" y="-208" type="line"/>
      <point x="429" y="760" type="line"/>
      <point x="375" y="760" type="line"/>
    </contour>
    <component base="t"/>
  </outline>
</glyph>
<glyph name="uni2DF5" format="2">
  <unicode hex="2DF5"/>
  <anchor x="59" y="553" name="_top"/>
  <anchor x="115" y="841" name="top"/>
  <anchor x="277" y="841" name="topright"/>
  <outline>
    <contour>
      <point x="-13" y="616" type="curve" smooth="yes"/>
      <point x="12" y="616"/>
      <point x="39" y="625"/>
      <point x="56" y="636" type="curve"/>
      <point x="56" y="690" type="line"/>
      <point x="36" y="678"/>
      <point x="20" y="671"/>
      <point x="6" y="671" type="curve" smooth="yes"/>
      <point x="-5" y="671"/>
      <point x="-11" y="680"/>
      <point x="-11" y="698" type="curve" smooth="yes"/>
      <point x="-11" y="723"/>
      <point x="1" y="787"/>
      <point x="45" y="787" type="curve" smooth="yes"/>
      <point x="124" y="787" type="line"/>
      <point x="84" y="620" type="line"/>
      <point x="156" y="620" type="line"/>
      <point x="196" y="787" type="line"/>
      <point x="245" y="787" type="line"/>
      <point x="258" y="841" type="line"/>
      <point x="44" y="841" type="line" smooth="yes"/>
      <point x="-53" y="841"/>
      <point x="-85" y="752"/>
      <point x="-85" y="688" type="curve" smooth="yes"/>
      <point x="-85" y="644"/>
      <point x="-59" y="616"/>
    </contour>
  </outline>
</glyph>
<glyph name="brackhalftopleft" format="2">
  <advance width="345"/>
  <unicode hex="2E22"/>
  <outline>
    <contour>
      <point x="80" y="263" type="line"/>
      <point x="196" y="263" type="line"/>
      <point x="196" y="612" type="line"/>
      <point x="320" y="612" type="line"/>
      <point x="320" y="714" type="line"/>
      <point x="80" y="714" type="line"/>
    </contour>
  </outline>
</glyph>
<glyph name="brackhalfbottomleft" format="2">
  <advance width="345"/>
  <unicode hex="2E24"/>
  <outline>
    <contour>
      <point x="80" y="-158" type="line"/>
      <point x="320" y="-158" type="line"/>
      <point x="320" y="-56" type="line"/>
      <point x="196" y="-56" type="line"/>
      <point x="196" y="293" type="line"/>
      <point x="80" y="293" type="line"/>
    </contour>
  </outline>
</glyph>
<glyph name="ringpoint" format="2">
  <advance width="572"/>
  <unicode hex="2E30"/>
  <outline>
    <contour>
      <point x="296" y="165" type="curve" smooth="yes"/>
      <point x="397" y="165"/>
      <point x="479" y="248"/>
      <point x="479" y="350" type="curve" smooth="yes"/>
      <point x="479" y="453"/>
      <point x="397" y="535"/>
      <point x="296" y="535" type="curve" smooth="yes"/>
      <point x="194" y="535"/>
      <point x="111" y="453"/>
      <point x="111" y="350" type="curve" smooth="yes"/>
      <point x="111" y="248"/>
      <point x="194" y="165"/>
    </contour>
    <contour>
      <point x="295" y="278" type="curve" smooth="yes"/>
      <point x="254" y="278"/>
      <point x="222" y="310"/>
      <point x="222" y="351" type="curve" smooth="yes"/>
      <point x="222" y="391"/>
      <point x="254" y="423"/>
      <point x="295" y="423" type="curve" smooth="yes"/>
      <point x="335" y="423"/>
      <point x="367" y="391"/>
      <point x="367" y="351" type="curve" smooth="yes"/>
      <point x="367" y="310"/>
      <point x="335" y="278"/>
    </contour>
  </outline>
</glyph>
<glyph name="uni2E3C" format="2">
  <unicode hex="2E3C"/>
  <outline>
    <contour>
      <point x="-145" y="-208" type="line"/>
      <point x="-91" y="-164" type="line"/>
      <point x="-56" y="-208" type="line"/>
      <point x="-10" y="-171" type="line"/>
      <point x="-46" y="-126" type="line"/>
      <point x="9" y="-82" type="line"/>
      <point x="-22" y="-44" type="line"/>
      <point x="-75" y="-89" type="line"/>
      <point x="-111" y="-44" type="line"/>
      <point x="-157" y="-82" type="line"/>
      <point x="-122" y="-126" type="line"/>
      <point x="-176" y="-171" type="line"/>
    </contour>
  </outline>
</glyph>
<glyph name="uni2E42" format="2">
  <advance width="500"/>
  <unicode hex="2E42"/>
  <outline>
    <contour>
      <point x="24" y="-139" type="curve"/>
      <point x="164" y="-139" type="line"/>
      <point x="161" y="-72"/>
      <point x="163" y="77"/>
      <point x="172" y="146" type="curve"/>
      <point x="17" y="146" type="line"/>
      <point x="8" y="132" type="line"/>
      <point x="8" y="39"/>
      <point x="12" y="-61"/>
    </contour>
    <contour>
      <point x="257" y="-139" type="curve"/>
      <point x="397" y="-139" type="line"/>
      <point x="394" y="-72"/>
      <point x="396" y="77"/>
      <point x="405" y="146" type="curve"/>
      <point x="250" y="146" type="line"/>
      <point x="241" y="132" type="line"/>
      <point x="241" y="39"/>
      <point x="245" y="-61"/>
    </contour>
  </outline>
</glyph>
<glyph name="uni2E44" format="2">
  <advance width="369"/>
  <unicode hex="2E44"/>
  <outline>
    <contour>
      <point x="198" y="478" type="line"/>
      <point x="418" y="697" type="line"/>
      <point x="288" y="775" type="line"/>
      <point x="96" y="540" type="line"/>
    </contour>
    <contour>
      <point x="80" y="-76" type="line"/>
      <point x="300" y="143" type="line"/>
      <point x="170" y="221" type="line"/>
      <point x="-22" y="-14" type="line"/>
    </contour>
  </outline>
</glyph>
<glyph name="uniA642" format="2">
  <advance width="438"/>
  <unicode hex="A642"/>
  <outline>
    <contour>
      <point x="44" y="308" type="line"/>
      <point x="415" y="308" type="line"/>
      <point x="442" y="433" type="line"/>
      <point x="71" y="433" type="line"/>
    </contour>
    <component base="uniA640"/>
  </outline>
</glyph>
<glyph name="uniA650" format="2">
  <advance width="822"/>
  <unicode hex="A650"/>
  <anchor x="395" y="0" name="bottom"/>
  <anchor x="546" y="714" name="top"/>
  <outline>
    <contour>
      <point x="78" y="567" type="line"/>
      <point x="194" y="567" type="line"/>
      <point x="392" y="714" type="line"/>
      <point x="109" y="714" type="line"/>
    </contour>
    <component base="afii10045" xOffset="79"/>
  </outline>
</glyph>
<glyph name="uniA651" format="2">
  <advance width="767"/>
  <unicode hex="A651"/>
  <anchor x="366" y="0" name="bottom"/>
  <anchor x="465" y="553" name="top"/>
  <outline>
    <contour>
      <point x="42" y="411" type="line"/>
      <point x="156" y="411" type="line"/>
      <point x="337" y="553" type="line"/>
      <point x="72" y="553" type="line"/>
    </contour>
    <component base="afii10093" xOffset="77"/>
  </outline>
</glyph>
<glyph name="uniA655" format="2">
  <advance width="702"/>
  <unicode hex="A655"/>
  <anchor x="184" y="0" name="bottom"/>
  <anchor x="296" y="265" name="center"/>
  <anchor x="296" y="530" name="top"/>
  <anchor x="515" y="530" name="topright"/>
  <outline>
    <contour>
      <point x="432" y="351" type="line"/>
      <point x="403" y="215" type="line"/>
      <point x="485" y="215" type="line"/>
      <point x="439" y="0" type="line"/>
      <point x="599" y="0" type="line"/>
      <point x="716" y="553" type="line"/>
      <point x="556" y="553" type="line"/>
      <point x="513" y="351" type="line"/>
    </contour>
    <component base="o"/>
  </outline>
</glyph>
<glyph name="uniA65C" format="2">
  <advance width="792"/>
  <unicode hex="A65C"/>
  <outline>
    <contour>
      <point x="326" y="0" type="line"/>
      <point x="617" y="0" type="line"/>
      <point x="637" y="125" type="line"/>
      <point x="346" y="125" type="line"/>
    </contour>
    <component base="uniA656"/>
  </outline>
</glyph>
<glyph name="uniA661" format="2">
  <advance width="517"/>
  <unicode hex="A661"/>
  <outline>
    <contour>
      <point x="-86" y="-203" type="line"/>
      <point x="69" y="-203" type="line"/>
      <point x="112" y="0" type="line"/>
      <point x="414" y="0" type="line"/>
      <point x="531" y="553" type="line"/>
      <point x="371" y="553" type="line"/>
      <point x="282" y="136" type="line"/>
      <point x="201" y="136" type="line"/>
      <point x="290" y="553" type="line"/>
      <point x="130" y="553" type="line"/>
      <point x="41" y="135" type="line"/>
      <point x="-14" y="135" type="line"/>
    </contour>
  </outline>
</glyph>
<glyph name="uniA662" format="2">
  <advance width="716"/>
  <unicode hex="A662"/>
  <anchor x="198" y="-222" name="bottom"/>
  <anchor x="396" y="714" name="top"/>
  <outline>
    <contour>
      <point x="295" y="0" type="line"/>
      <point x="462" y="0" type="line"/>
      <point x="583" y="570" type="line"/>
      <point x="763" y="570" type="line"/>
      <point x="793" y="714" type="line"/>
      <point x="446" y="714" type="line"/>
    </contour>
    <component base="afii10021"/>
  </outline>
</glyph>
<glyph name="uniA664" format="2">
  <advance width="716"/>
  <unicode hex="A664"/>
  <anchor x="231" y="0" name="bottom"/>
  <anchor x="382" y="714" name="top"/>
  <outline>
    <contour>
      <point x="573" y="570" type="line"/>
      <point x="763" y="570" type="line"/>
      <point x="793" y="714" type="line"/>
      <point x="446" y="714" type="line"/>
    </contour>
    <component base="afii10029"/>
  </outline>
</glyph>
<glyph name="uniA671" format="2">
  <unicode hex="A671"/>
  <outline>
    <contour>
      <point x="-389" y="596" type="line"/>
      <point x="-262" y="596" type="line"/>
      <point x="-245" y="679" type="line"/>
      <point x="423" y="679" type="line"/>
      <point x="406" y="596" type="line"/>
      <point x="533" y="596" type="line"/>
      <point x="580" y="818" type="line"/>
      <point x="-343" y="818" type="line"/>
    </contour>
    <contour>
      <point x="-568" y="-296" type="line"/>
      <point x="355" y="-296" type="line"/>
      <point x="401" y="-74" type="line"/>
      <point x="274" y="-74" type="line"/>
      <point x="257" y="-157" type="line"/>
      <point x="-411" y="-157" type="line"/>
      <point x="-394" y="-74" type="line"/>
      <point x="-521" y="-74" type="line"/>
    </contour>
  </outline>
</glyph>
<glyph name="uniA680" format="2">
  <advance width="602"/>
  <unicode hex="A680"/>
  <anchor x="198" y="-222" name="bottom"/>
  <anchor x="396" y="714" name="top"/>
  <outline>
    <contour>
      <point x="223" y="636" type="line"/>
      <point x="373" y="636" type="line"/>
      <point x="434" y="920" type="line"/>
      <point x="284" y="920" type="line"/>
    </contour>
    <component base="afii10021"/>
  </outline>
</glyph>
<glyph name="uniA684" format="2">
  <advance width="1011"/>
  <unicode hex="A684"/>
  <anchor x="184" y="0" name="bottom_1"/>
  <anchor x="695" y="0" name="bottom_2"/>
  <anchor x="335" y="714" name="top_1"/>
  <anchor x="846" y="714" name="top_2"/>
  <outline>
    <contour>
      <point x="285" y="300" type="line"/>
      <point x="568" y="300" type="line"/>
      <point x="599" y="444" type="line"/>
      <point x="316" y="444" type="line"/>
    </contour>
    <component base="afii10025"/>
    <component base="afii10028" xOffset="490"/>
  </outline>
</glyph>
<glyph name="uniA685" format="2">
  <advance width="916"/>
  <unicode hex="A685"/>
  <anchor x="146" y="0" name="bottom_1"/>
  <anchor x="613" y="0" name="bottom_2"/>
  <anchor x="258" y="530" name="top_1"/>
  <anchor x="725" y="530" name="top_2"/>
  <outline>
    <contour>
      <point x="248" y="225" type="line"/>
      <point x="480" y="225" type="line"/>
      <point x="504" y="341" type="line"/>
      <point x="273" y="341" type="line"/>
    </contour>
    <component base="afii10073"/>
    <component base="afii10076" xOffset="421"/>
  </outline>
</glyph>
<glyph name="uniA69A" format="2">
  <advance width="574"/>
  <unicode hex="A69A"/>
  <anchor x="240" y="0" name="bottom"/>
  <anchor x="391" y="714" name="top"/>
  <outline>
    <contour>
      <point x="198" y="22" type="line"/>
      <point x="285" y="22" type="line"/>
      <point x="429" y="699" type="line"/>
      <point x="342" y="699" type="line"/>
    </contour>
    <component base="uni04E8"/>
  </outline>
</glyph>
<glyph name="uniA717" format="2">
  <advance width="398"/>
  <unicode hex="A717"/>
  <outline>
    <contour>
      <point x="317" y="628" type="line"/>
      <point x="433" y="628" type="line"/>
      <point x="433" y="935" type="line"/>
      <point x="317" y="935" type="line"/>
    </contour>
    <contour>
      <point x="222" y="707" type="curve" smooth="yes"/>
      <point x="265" y="707"/>
      <point x="294" y="731"/>
      <point x="294" y="780" type="curve" smooth="yes"/>
      <point x="294" y="827"/>
      <point x="265" y="853"/>
      <point x="222" y="853" type="curve" smooth="yes"/>
      <point x="182" y="853"/>
      <point x="149" y="827"/>
      <point x="149" y="780" type="curve" smooth="yes"/>
      <point x="149" y="731"/>
      <point x="182" y="707"/>
    </contour>
  </outline>
</glyph>
<glyph name="uniA71B" format="2">
  <advance width="486"/>
  <unicode hex="A71B"/>
  <outline>
    <contour>
      <point x="295" y="584" type="line"/>
      <point x="371" y="584" type="line"/>
      <point x="371" y="714" type="line"/>
      <point x="506" y="714" type="line"/>
      <point x="333" y="904" type="line"/>
      <point x="160" y="714" type="line"/>
      <point x="295" y="714" type="line"/>
    </contour>
  </outline>
</glyph>
<glyph name="uniA71D" format="2">
  <advance width="217"/>
  <unicode hex="A71D"/>
  <outline>
    <contour>
      <point x="107" y="523" type="line"/>
      <point x="212" y="523" type="line"/>
      <point x="302" y="869" type="line"/>
      <point x="163" y="869" type="line"/>
    </contour>
    <contour>
      <point x="126" y="331" type="curve" smooth="yes"/>
      <point x="171" y="331"/>
      <point x="205" y="359"/>
      <point x="205" y="413" type="curve" smooth="yes"/>
      <point x="205" y="446"/>
      <point x="184" y="467"/>
      <point x="148" y="467" type="curve" smooth="yes"/>
      <point x="93" y="467"/>
      <point x="66" y="429"/>
      <point x="66" y="384" type="curve" smooth="yes"/>
      <point x="66" y="357"/>
      <point x="80" y="331"/>
    </contour>
  </outline>
</glyph>
<glyph name="uniA73B" format="2">
  <advance width="712"/>
  <unicode hex="A73B"/>
  <anchor x="311" y="4" name="bottom"/>
  <anchor x="427" y="553" name="top"/>
  <outline>
    <contour>
      <point x="312" y="255" type="line"/>
      <point x="544" y="255" type="line"/>
      <point x="564" y="351" type="line"/>
      <point x="333" y="351" type="line"/>
    </contour>
    <component base="uniA739"/>
  </outline>
</glyph>
<glyph name="uniA740" format="2">
  <advance width="512"/>
  <unicode hex="A740"/>
  <anchor x="200" y="0" name="bottom"/>
  <anchor x="351" y="714" name="top"/>
  <anchor x="587" y="714" name="topright"/>
  <outline>
    <contour>
      <point x="68" y="564" type="line"/>
      <point x="314" y="564" type="line"/>
      <point x="336" y="669" type="line"/>
      <point x="90" y="669" type="line"/>
    </contour>
    <component base="K"/>
  </outline>
</glyph>
<glyph name="uniA741" format="2">
  <advance width="484"/>
  <unicode hex="A741"/>
  <anchor x="186" y="0" name="bottom"/>
  <anchor x="347" y="760" name="top"/>
  <anchor x="569" y="760" name="topright"/>
  <outline>
    <contour>
      <point x="64" y="565" type="line" smooth="yes"/>
      <point x="342" y="565" type="line" smooth="yes"/>
      <point x="367" y="679" type="line" smooth="yes"/>
      <point x="89" y="679" type="line" smooth="yes"/>
    </contour>
    <component base="k"/>
  </outline>
</glyph>
<glyph name="uniA742" format="2">
  <advance width="512"/>
  <unicode hex="A742"/>
  <anchor x="200" y="0" name="bottom"/>
  <anchor x="351" y="714" name="top"/>
  <anchor x="587" y="714" name="topright"/>
  <outline>
    <contour>
      <point x="235" y="59" type="line"/>
      <point x="481" y="106" type="line"/>
      <point x="462" y="209" type="line"/>
      <point x="215" y="162" type="line"/>
    </contour>
    <component base="K"/>
  </outline>
</glyph>
<glyph name="uniA743" format="2">
  <advance width="484"/>
  <unicode hex="A743"/>
  <anchor x="186" y="0" name="bottom"/>
  <anchor x="347" y="760" name="top"/>
  <anchor x="569" y="760" name="topright"/>
  <outline>
    <contour>
      <point x="211" y="48" type="line"/>
      <point x="460" y="119" type="line"/>
      <point x="438" y="194" type="line"/>
      <point x="189" y="123" type="line"/>
    </contour>
    <component base="k"/>
  </outline>
</glyph>
<glyph name="uniA744" format="2">
  <advance width="512"/>
  <unicode hex="A744"/>
  <anchor x="200" y="0" name="bottom"/>
  <anchor x="351" y="714" name="top"/>
  <anchor x="587" y="714" name="topright"/>
  <outline>
    <contour>
      <point x="235" y="59" type="line"/>
      <point x="481" y="106" type="line"/>
      <point x="462" y="209" type="line"/>
      <point x="215" y="162" type="line"/>
    </contour>
    <component base="uniA740"/>
  </outline>
</glyph>
<glyph name="uniA745" format="2">
  <advance width="484"/>
  <unicode hex="A745"/>
  <anchor x="186" y="0" name="bottom"/>
  <anchor x="347" y="760" name="top"/>
  <anchor x="569" y="760" name="topright"/>
  <outline>
    <contour>
      <point x="211" y="48" type="line"/>
      <point x="460" y="119" type="line"/>
      <point x="438" y="194" type="line"/>
      <point x="189" y="123" type="line"/>
    </contour>
    <component base="uniA741"/>
  </outline>
</glyph>
<glyph name="uniA748" format="2">
  <advance width="400"/>
  <unicode hex="A748"/>
  <anchor x="144" y="0" name="bottom"/>
  <anchor x="237" y="357" name="center"/>
  <anchor x="295" y="714" name="top"/>
  <anchor x="439" y="714" name="topright"/>
  <outline>
    <contour>
      <point x="58" y="527" type="line"/>
      <point x="364" y="527" type="line"/>
      <point x="386" y="632" type="line"/>
      <point x="80" y="632" type="line"/>
    </contour>
    <component base="L"/>
  </outline>
</glyph>
<glyph name="uniA749" format="2">
  <advance width="250"/>
  <unicode hex="A749"/>
  <anchor x="69" y="0" name="bottom"/>
  <anchor x="181" y="265" name="center"/>
  <anchor x="230" y="760" name="top"/>
  <anchor x="335" y="760" name="topright"/>
  <outline>
    <contour>
      <point x="64" y="565" type="line"/>
      <point x="312" y="565" type="line" smooth="yes"/>
      <point x="337" y="679" type="line" smooth="yes"/>
      <point x="89" y="679" type="line" smooth="yes"/>
    </contour>
    <component base="l"/>
  </outline>
</glyph>
<glyph name="uniA74A" format="2">
  <advance width="574"/>
  <unicode hex="A74A"/>
  <anchor x="231" y="0" name="bottom"/>
  <anchor x="324" y="357" name="center"/>
  <anchor x="382" y="714" name="top"/>
  <anchor x="649" y="714" name="topright"/>
  <outline>
    <contour>
      <point x="5" y="295" type="line"/>
      <point x="580" y="295" type="line"/>
      <point x="609" y="430" type="line"/>
      <point x="34" y="430" type="line"/>
    </contour>
    <component base="O"/>
  </outline>
</glyph>
<glyph name="uniA74B" format="2">
  <advance width="479"/>
  <unicode hex="A74B"/>
  <anchor x="184" y="0" name="bottom"/>
  <anchor x="296" y="265" name="center"/>
  <anchor x="296" y="530" name="top"/>
  <anchor x="515" y="530" name="topright"/>
  <outline>
    <contour>
      <point x="-11" y="222" type="line"/>
      <point x="468" y="222" type="line"/>
      <point x="493" y="338" type="line"/>
      <point x="14" y="338" type="line"/>
    </contour>
    <component base="o"/>
  </outline>
</glyph>
<glyph name="uniA750" format="2">
  <advance width="482"/>
  <unicode hex="A750"/>
  <anchor x="185" y="0" name="bottom"/>
  <anchor x="336" y="714" name="top"/>
  <anchor x="557" y="714" name="topright"/>
  <outline>
    <contour>
      <point x="-42" y="63" type="line"/>
      <point x="264" y="63" type="line"/>
      <point x="286" y="168" type="line"/>
      <point x="-20" y="168" type="line"/>
    </contour>
    <component base="P"/>
  </outline>
</glyph>
<glyph name="uniA757" format="2">
  <advance width="487"/>
  <unicode hex="A757"/>
  <anchor x="137" y="-240" name="bottom"/>
  <anchor x="300" y="530" name="top"/>
  <anchor x="523" y="530" name="topright"/>
  <outline>
    <contour>
      <point x="90" y="-174" type="line"/>
      <point x="398" y="-174" type="line"/>
      <point x="423" y="-60" type="line"/>
      <point x="115" y="-60" type="line"/>
    </contour>
    <component base="q"/>
  </outline>
</glyph>
<glyph name="uniA758" format="2">
  <advance width="747"/>
  <unicode hex="A758"/>
  <anchor x="195" y="-170" name="bottom"/>
  <anchor x="382" y="714" name="top"/>
  <anchor x="649" y="714" name="topright"/>
  <outline>
    <contour>
      <point x="136" y="-182" type="line"/>
      <point x="570" y="-25" type="line" smooth="yes"/>
      <point x="677" y="14"/>
      <point x="730" y="69"/>
      <point x="730" y="173" type="curve" smooth="yes"/>
      <point x="730" y="260"/>
      <point x="678" y="320"/>
      <point x="584" y="320" type="curve"/>
      <point x="583" y="242" type="line"/>
      <point x="633" y="242"/>
      <point x="650" y="205"/>
      <point x="650" y="168" type="curve" smooth="yes"/>
      <point x="650" y="124"/>
      <point x="628" y="81"/>
      <point x="546" y="51" type="curve" smooth="yes"/>
      <point x="110" y="-109" type="line"/>
    </contour>
    <component base="Q"/>
  </outline>
</glyph>
<glyph name="uniA75C" format="2">
  <advance width="674"/>
  <unicode hex="A75C"/>
  <outline>
    <contour>
      <point x="15" y="140" type="line"/>
      <point x="615" y="140" type="line"/>
      <point x="646" y="286" type="line"/>
      <point x="257" y="286" type="line"/>
      <point x="257" y="289" type="line"/>
      <point x="301" y="322" type="line" smooth="yes"/>
      <point x="428" y="418"/>
      <point x="458" y="483"/>
      <point x="458" y="572" type="curve" smooth="yes"/>
      <point x="458" y="662"/>
      <point x="392" y="724"/>
      <point x="299" y="724" type="curve" smooth="yes"/>
      <point x="221" y="724"/>
      <point x="152" y="690"/>
      <point x="85" y="609" type="curve"/>
      <point x="152" y="512" type="line"/>
      <point x="186" y="546"/>
      <point x="221" y="578"/>
      <point x="258" y="578" type="curve" smooth="yes"/>
      <point x="279" y="578"/>
      <point x="287" y="562"/>
      <point x="287" y="537" type="curve" smooth="yes"/>
      <point x="287" y="489"/>
      <point x="262" y="456"/>
      <point x="162" y="366" type="curve" smooth="yes"/>
      <point x="40" y="256" type="line"/>
    </contour>
    <contour>
      <point x="346" y="0" type="line"/>
      <point x="506" y="0" type="line"/>
      <point x="589" y="393" type="line"/>
      <point x="430" y="393" type="line"/>
    </contour>
  </outline>
</glyph>
<glyph name="uniA75E" format="2">
  <advance width="519"/>
  <unicode hex="A75E"/>
  <anchor x="204" y="0" name="bottom"/>
  <anchor x="355" y="714" name="top"/>
  <anchor x="594" y="714" name="topright"/>
  <outline>
    <contour>
      <point x="7" y="0" type="line"/>
      <point x="81" y="0" type="line"/>
      <point x="382" y="714" type="line"/>
      <point x="307" y="714" type="line"/>
    </contour>
    <component base="V"/>
  </outline>
</glyph>
<glyph name="uniA75F" format="2">
  <advance width="457"/>
  <unicode hex="A75F"/>
  <anchor x="173" y="0" name="bottom"/>
  <anchor x="285" y="530" name="top"/>
  <anchor x="493" y="530" name="topright"/>
  <outline>
    <contour>
      <point x="-8" y="-90" type="line"/>
      <point x="41" y="-90" type="line"/>
      <point x="337" y="624" type="line"/>
      <point x="287" y="624" type="line"/>
    </contour>
    <component base="v"/>
  </outline>
</glyph>
<glyph name="uniA764" format="2">
  <advance width="482"/>
  <unicode hex="A764"/>
  <outline>
    <contour>
      <point x="-5" y="0" type="line"/>
      <point x="162" y="0" type="line"/>
      <point x="182" y="93" type="line"/>
      <point x="221" y="93" type="line" smooth="yes"/>
      <point x="407" y="93"/>
      <point x="471" y="212"/>
      <point x="471" y="349" type="curve" smooth="yes"/>
      <point x="471" y="452"/>
      <point x="415" y="520"/>
      <point x="280" y="520" type="curve" smooth="yes"/>
      <point x="272" y="520" type="line"/>
      <point x="313" y="714" type="line"/>
      <point x="146" y="714" type="line"/>
    </contour>
    <contour>
      <point x="212" y="237" type="line"/>
      <point x="242" y="376" type="line"/>
      <point x="251" y="376" type="line" smooth="yes"/>
      <point x="283" y="376"/>
      <point x="299" y="366"/>
      <point x="299" y="327" type="curve" smooth="yes"/>
      <point x="299" y="246"/>
      <point x="277" y="237"/>
      <point x="225" y="237" type="curve" smooth="yes"/>
    </contour>
    <contour>
      <point x="64" y="564" type="line"/>
      <point x="350" y="564" type="line"/>
      <point x="372" y="669" type="line"/>
      <point x="86" y="669" type="line"/>
    </contour>
  </outline>
</glyph>
<glyph name="uniA765" format="2">
  <advance width="487"/>
  <unicode hex="A765"/>
  <anchor x="137" y="-240" name="bottom"/>
  <anchor x="349" y="761" name="top"/>
  <outline>
    <contour>
      <point x="72" y="600" type="line" smooth="yes"/>
      <point x="380" y="600" type="line" smooth="yes"/>
      <point x="405" y="714" type="line" smooth="yes"/>
      <point x="97" y="714" type="line" smooth="yes"/>
    </contour>
    <component base="thorn"/>
  </outline>
</glyph>
<glyph name="uniA767" format="2">
  <advance width="487"/>
  <unicode hex="A767"/>
  <anchor x="137" y="-240" name="bottom"/>
  <anchor x="349" y="761" name="top"/>
  <outline>
    <contour>
      <point x="-94" y="-174" type="line"/>
      <point x="214" y="-174" type="line"/>
      <point x="239" y="-60" type="line"/>
      <point x="-69" y="-60" type="line"/>
    </contour>
    <component base="thorn"/>
  </outline>
</glyph>
<glyph name="uniA768" format="2">
  <advance width="611"/>
  <unicode hex="A768"/>
  <outline>
    <contour>
      <point x="-87" y="-240" type="line"/>
      <point x="247" y="-240" type="line"/>
      <point x="265" y="-154" type="line"/>
      <point x="189" y="-114" type="line"/>
      <point x="210" y="-14" type="line"/>
      <point x="703" y="714" type="line"/>
      <point x="524" y="714" type="line"/>
      <point x="338" y="420" type="line" smooth="yes"/>
      <point x="311" y="378"/>
      <point x="293" y="339"/>
      <point x="277" y="298" type="curve"/>
      <point x="275" y="298" type="line"/>
      <point x="286" y="339"/>
      <point x="293" y="379"/>
      <point x="302" y="420" type="curve" smooth="yes"/>
      <point x="337" y="588" type="line"/>
      <point x="430" y="628" type="line"/>
      <point x="448" y="714" type="line"/>
      <point x="114" y="714" type="line"/>
      <point x="96" y="628" type="line"/>
      <point x="170" y="588" type="line"/>
      <point x="22" y="-114" type="line"/>
      <point x="-69" y="-154" type="line"/>
    </contour>
  </outline>
</glyph>
